<svg width="111" height="109" viewBox="0 0 111 109" fill="none" xmlns="http://www.w3.org/2000/svg">
<path d="M109.455 6.91227L109.483 6.94062C108.345 8.15895 107.194 9.37659 106.053 10.5813C105.457 9.96907 104.871 9.36828 104.29 8.77248C102.712 7.15453 101.17 5.57338 99.5518 3.89902C99.9589 3.51754 100.387 3.11853 100.828 2.70793C101.561 2.02569 102.327 1.31145 103.088 0.592457L103.28 0.782723L103.334 0.836144L103.387 0.889558L103.414 0.916263L103.441 0.942966L103.468 0.969667L103.481 0.983018L103.495 0.996367L103.549 1.04976L103.603 1.10315L103.71 1.20991L103.724 1.22325L103.737 1.2366L103.75 1.24994L103.764 1.26328L103.777 1.27662L103.791 1.28996L103.804 1.3033L103.818 1.31665L103.831 1.32999L103.844 1.34333L103.871 1.37001L103.885 1.38334L103.898 1.39668L103.912 1.41002L103.925 1.42336L103.979 1.47671L103.992 1.49004L104.006 1.50338L104.019 1.51672L104.033 1.53005L104.046 1.54339L104.059 1.55672L104.086 1.58339L104.1 1.59672L104.113 1.61006L104.127 1.62339L104.14 1.63672L104.194 1.69005L104.247 1.74337L104.274 1.77003L104.301 1.79669L104.355 1.85001L104.409 1.90332L104.422 1.91664L104.435 1.92997L104.449 1.9433L104.462 1.95662L104.476 1.96995L104.489 1.98327L104.503 1.9966L104.516 2.00992L104.543 2.03657L104.57 2.06322L104.583 2.07655L104.597 2.08987L104.623 2.11652L104.65 2.14316L104.677 2.16981L104.731 2.22309L104.744 2.23641L104.758 2.24973L104.771 2.26305L104.784 2.27637L104.892 2.38293L104.919 2.40957L104.945 2.4362L104.999 2.48947L105.053 2.54274L105.08 2.56937L105.093 2.58269L105.106 2.596L105.12 2.60932L105.133 2.62263L105.147 2.63595L105.16 2.64926L105.173 2.66258L105.187 2.67589L105.2 2.68921L105.214 2.70252L105.267 2.75578L105.321 2.80903L105.334 2.82235L105.348 2.83566L105.361 2.84897L105.375 2.86228L105.428 2.91553L105.536 3.02203L105.589 3.07527L105.603 3.08858L105.616 3.10189L105.643 3.12851L105.656 3.14182L105.67 3.15514L105.683 3.16845L105.696 3.18176L105.723 3.20838L105.75 3.235L105.777 3.26161L105.79 3.27492L105.804 3.28823L105.817 3.30154L105.831 3.31485L105.844 3.32816L105.857 3.34147L105.884 3.36809L105.911 3.39471L105.938 3.42133L105.951 3.43463L105.965 3.44794L106.018 3.50118L106.072 3.55441L106.099 3.58103L106.126 3.60765L106.152 3.63426L106.166 3.64757L106.179 3.66088L106.206 3.6875L106.219 3.7008L106.233 3.71411L106.246 3.72742L106.26 3.74073L106.286 3.76735L106.3 3.78065L106.313 3.79396L106.327 3.80727L106.34 3.82058L106.353 3.83389L106.367 3.8472L106.394 3.87381L106.501 3.98028L106.555 4.03351L106.568 4.04682L106.581 4.06013L106.595 4.07344L106.608 4.08675L106.662 4.13999L106.675 4.15329L106.689 4.1666L106.702 4.17991L106.715 4.19322L106.769 4.24646L106.782 4.25977L106.796 4.27308L106.809 4.28639L106.823 4.2997L106.836 4.31301L106.85 4.32632L106.863 4.33963L106.876 4.35294L106.903 4.37956L106.917 4.39287L106.93 4.40618L106.943 4.41949L106.957 4.4328L106.984 4.45942L106.997 4.47273L107.01 4.48604L107.037 4.51267L107.145 4.61916L107.158 4.63247L107.171 4.64578L107.185 4.6591L107.198 4.67241L107.225 4.69903L107.252 4.72566L107.305 4.77891L107.319 4.79223L107.332 4.80554L107.359 4.83217L107.386 4.8588L107.413 4.88543L107.466 4.93869L107.52 4.99195L107.574 5.04522L107.587 5.05854L107.601 5.07186L107.614 5.08517L107.627 5.09849L107.654 5.12513L107.668 5.13845L107.681 5.15176L107.695 5.16508L107.708 5.1784L107.735 5.20504L107.762 5.23168L107.775 5.245L107.788 5.25832L107.802 5.27164L107.815 5.28496L107.842 5.3116L107.856 5.32492L107.869 5.33824L107.896 5.36489L108.003 5.47147L108.218 5.68469L108.231 5.69801L108.245 5.71134L108.258 5.72467L108.272 5.738L108.299 5.76466L108.312 5.77799L108.325 5.79132L108.379 5.84464L108.393 5.85797L108.406 5.87131L108.433 5.89797L108.46 5.92464L108.487 5.9513L108.54 6.00464L108.594 6.05799L108.648 6.11133L108.702 6.16469L108.715 6.17803L108.728 6.19137L108.742 6.20471L108.755 6.21805L108.782 6.24473L108.796 6.25807L108.809 6.27141L108.836 6.2981L108.849 6.31144L108.863 6.32478L108.876 6.33813L108.89 6.35147L108.917 6.37816L108.93 6.3915L108.943 6.40485L108.957 6.4182L108.97 6.43154L108.984 6.44489L108.997 6.45824L109.011 6.47158L109.024 6.48493L109.051 6.51163L109.064 6.52498L109.078 6.53833L109.091 6.55168L109.105 6.56503L109.132 6.59173L109.186 6.64513L109.199 6.65849L109.212 6.67184L109.226 6.68519L109.239 6.69855L109.253 6.7119L109.266 6.72526L109.293 6.75197L109.307 6.76533L109.32 6.77868L109.333 6.79204L109.347 6.8054L109.401 6.85883L109.455 6.91227Z" fill="#21BBB3" stroke="url(#paint0_linear_680_856)"/>
<path d="M6.87263 0.782723L7.06409 0.592672C7.6383 1.13768 8.21474 1.6879 8.78517 2.23237C9.406 2.82495 10.0197 3.41072 10.6156 3.97557L7.39116 7.17633L4.2004 10.3436C3.55831 9.71165 2.87608 9.05307 2.18146 8.38253C1.68414 7.90245 1.18046 7.41623 0.68062 6.92925L0.684257 6.92564L0.697718 6.91227L0.724637 6.88555L0.751555 6.85883L0.765013 6.84547L0.778471 6.83211L0.805385 6.8054L0.859208 6.75197L0.872663 6.73861L0.886118 6.72526L0.899571 6.7119L0.913025 6.69855L0.93993 6.67184L0.953383 6.65849L0.966834 6.64513L1.02064 6.59173L1.03409 6.57838L1.04754 6.56503L1.06099 6.55168L1.07443 6.53833L1.08788 6.52498L1.10133 6.51163L1.11478 6.49828L1.12822 6.48493L1.15512 6.45824L1.16856 6.44489L1.18201 6.43154L1.19545 6.4182L1.2089 6.40485L1.23579 6.37816L1.24923 6.36481L1.26267 6.35147L1.27611 6.33813L1.28956 6.32478L1.39708 6.21805L1.41052 6.20471L1.42396 6.19137L1.4374 6.17803L1.45084 6.16469L1.46427 6.15135L1.47771 6.13801L1.49115 6.12467L1.50459 6.11133L1.53146 6.08466L1.55833 6.05799L1.61207 6.00464L1.6255 5.99131L1.63893 5.97797L1.6658 5.9513L1.67923 5.93797L1.69266 5.92464L1.7061 5.9113L1.71953 5.89797L1.77325 5.84464L1.78668 5.83131L1.80011 5.81798L1.81354 5.80465L1.82697 5.79132L1.8404 5.77799L1.85383 5.76466L1.86725 5.75133L1.88068 5.738L1.89411 5.72467L1.90754 5.71134L1.92096 5.69801L1.93439 5.68469L2.0418 5.57807L2.06864 5.55142L2.08207 5.53809L2.09549 5.52477L2.10892 5.51144L2.12234 5.49812L2.13576 5.4848L2.14918 5.47147L2.16261 5.45815L2.17603 5.44482L2.20287 5.41818L2.21629 5.40485L2.22971 5.39153L2.25656 5.36489L2.2834 5.33824L2.31024 5.3116L2.32366 5.29828L2.33708 5.28496L2.36391 5.25832L2.47126 5.15176L2.48467 5.13845L2.49809 5.12513L2.52492 5.09849L2.55176 5.07186L2.57859 5.04522L2.592 5.0319L2.60542 5.01859L2.61883 5.00527L2.63225 4.99195L2.65908 4.96532L2.68591 4.93869L2.79322 4.83217L2.80663 4.81886L2.82004 4.80554L2.84687 4.77891L2.86028 4.7656L2.87369 4.75229L2.8871 4.73897L2.90051 4.72566L2.91393 4.71235L2.92734 4.69903L2.94075 4.68572L2.95416 4.67241L2.98098 4.64578L3.0078 4.61916L3.03462 4.59253L3.04803 4.57922L3.06144 4.56591L3.07486 4.5526L3.08827 4.53929L3.11509 4.51267L3.12849 4.49935L3.1419 4.48604L3.15531 4.47273L3.16872 4.45942L3.18213 4.44611L3.19554 4.4328L3.20895 4.41949L3.22236 4.40618L3.24918 4.37956L3.276 4.35294L3.2894 4.33963L3.30281 4.32632L3.31622 4.31301L3.32963 4.2997L3.35645 4.27308L3.36985 4.25977L3.38326 4.24646L3.39667 4.23315L3.41008 4.21984L3.42349 4.20653L3.43689 4.19322L3.4503 4.17991L3.46371 4.1666L3.47712 4.15329L3.49052 4.13999L3.51734 4.11337L3.53075 4.10006L3.54415 4.08675L3.55756 4.07344L3.57097 4.06013L3.58437 4.04682L3.59778 4.03351L3.61119 4.02021L3.6246 4.0069L3.638 3.99359L3.65141 3.98028L3.86592 3.76735L4.08043 3.55441L4.09384 3.5411L4.10724 3.5278L4.12065 3.51449L4.13406 3.50118L4.16087 3.47456L4.18769 3.44794L4.20109 3.43463L4.2145 3.42133L4.24132 3.39471L4.26813 3.36809L4.29495 3.34147L4.40221 3.235L4.41562 3.22169L4.42903 3.20838L4.44244 3.19507L4.45584 3.18176L4.48266 3.15514L4.49607 3.14182L4.50948 3.12851L4.5363 3.10189L4.54971 3.08858L4.56312 3.07527L4.58993 3.04865L4.60334 3.03534L4.61675 3.02203L4.63016 3.00872L4.64357 2.9954L4.65698 2.98209L4.67039 2.96878L4.69721 2.94216L4.72404 2.91553L4.75086 2.88891L4.76427 2.8756L4.77768 2.86228L4.8045 2.83566L4.81791 2.82235L4.83133 2.80903L4.85815 2.78241L4.87156 2.76909L4.88497 2.75578L4.89839 2.74246L4.9118 2.72915L4.92521 2.71584L4.93862 2.70252L4.96545 2.67589L4.99228 2.64926L5.0191 2.62263L5.04593 2.596L5.07276 2.56937L5.08618 2.55605L5.09959 2.54274L5.11301 2.52942L5.12642 2.51611L5.13984 2.50279L5.15325 2.48947L5.18008 2.46284L5.1935 2.44952L5.20691 2.4362L5.22033 2.42288L5.23375 2.40957L5.26058 2.38293L5.28742 2.35629L5.31425 2.32965L5.32767 2.31633L5.34109 2.30301L5.35451 2.28969L5.36793 2.27637L5.38134 2.26305L5.39476 2.24973L5.4216 2.22309L5.43502 2.20977L5.44844 2.19645L5.46186 2.18313L5.47528 2.16981L5.4887 2.15648L5.50212 2.14316L5.52897 2.11652L5.54239 2.10319L5.55581 2.08987L5.56923 2.07655L5.58266 2.06322L5.6095 2.03657L5.63635 2.00992L5.64977 1.9966L5.66319 1.98327L5.67662 1.96995L5.69004 1.95662L5.71689 1.92997L5.73032 1.91664L5.74374 1.90332L5.75717 1.88999L5.7706 1.87666L5.79745 1.85001L5.8243 1.82335L5.83773 1.81002L5.85116 1.79669L5.87801 1.77003L5.90487 1.74337L5.9183 1.73004L5.93173 1.71671L5.95859 1.69005L5.97202 1.67672L5.98545 1.66339L6.01231 1.63672L6.06604 1.58339L6.09291 1.55672L6.10634 1.54339L6.11977 1.53005L6.22725 1.42336L6.24069 1.41002L6.25413 1.39668L6.281 1.37001L6.29444 1.35667L6.30788 1.34333L6.32132 1.32999L6.33476 1.31665L6.36164 1.28996L6.37508 1.27662L6.38852 1.26328L6.4154 1.2366L6.44228 1.20991L6.46917 1.18322L6.48261 1.16988L6.49605 1.15653L6.5095 1.14319L6.52294 1.12984L6.53639 1.1165L6.54983 1.10315L6.56328 1.0898L6.57672 1.07646L6.59017 1.06311L6.60362 1.04976L6.61706 1.03641L6.63051 1.02307L6.65741 0.996367L6.67085 0.983017L6.6843 0.969667L6.7112 0.942966L6.7381 0.916263L6.75155 0.902911L6.765 0.889558L6.77846 0.876205L6.79191 0.862852L6.80536 0.849498L6.81881 0.836144L6.87263 0.782723Z" fill="#21BBB3" stroke="url(#paint1_linear_680_856)"/>
<path d="M72.4097 33.3125C72.413 33.3139 72.4156 33.3152 72.4176 33.3162C73.7629 34.6093 75.107 35.9437 76.408 37.2983C76.4099 37.3023 76.4126 37.3083 76.4159 37.3168C76.4276 37.3474 76.4392 37.392 76.4457 37.4444C76.4522 37.4967 76.4522 37.5452 76.4479 37.5826C76.4453 37.6049 76.442 37.617 76.4408 37.6208L76.4372 37.6274L76.4306 37.6413C75.677 39.2381 75.3815 40.8111 75.5394 42.373C75.6849 43.8117 76.2123 45.2143 77.0804 46.5949C56.4563 67.152 35.811 87.73 15.1027 108.35C10.0961 104.79 4.17228 98.9081 0.916919 94.2175C21.5587 73.6429 42.2006 53.0683 62.8844 32.4728C64.2938 33.4515 65.7525 34.0408 67.2643 34.209C68.8957 34.3905 70.5545 34.0778 72.2394 33.2846C72.2418 33.2844 72.2449 33.2841 72.2487 33.2839C72.2695 33.2827 72.2987 33.284 72.3315 33.2899C72.3644 33.2958 72.3916 33.3045 72.4097 33.3125Z" fill="#21BBB3" stroke="url(#paint2_linear_680_856)"/>
<path d="M83.257 79.4563L83.257 79.4562C78.6413 75.2436 71.0433 74.0554 64.6062 77.7498C63.9805 77.1343 63.3562 76.5187 62.7334 75.9046C61.4144 74.604 60.1023 73.3101 58.7988 72.0395C61.1522 69.7245 63.5204 67.3993 65.8835 65.0792C68.1934 62.8113 70.4984 60.5482 72.7799 58.3041C82.4839 67.8188 92.2942 77.439 102.104 87.0591C104.493 89.4014 106.882 91.7436 109.269 94.0844C108.85 94.8364 108.104 95.8521 107.128 97.0216C106.018 98.3522 104.636 99.8503 103.163 101.333C100.358 104.158 97.2623 106.89 95.1249 108.3C92.2815 105.498 89.4755 102.753 86.6896 100.027C88.5365 96.3168 89.3273 92.7146 88.8534 89.2847C88.3647 85.7469 86.5385 82.4521 83.257 79.4563Z" fill="#21BBB3" stroke="url(#paint3_linear_680_856)"/>
<path d="M75.2666 80.7606L75.2666 80.7606L75.2702 80.7614C80.4131 81.9049 84.0311 86.4157 84.0311 91.6617C84.0311 97.1073 80.0867 101.744 74.6509 102.685C74.3122 102.741 74.0752 102.727 73.8826 102.662C73.6935 102.598 73.4968 102.466 73.2699 102.196C70.7043 99.1187 69.4101 95.7138 69.3608 92.2224C69.3116 88.7283 70.5089 85.1087 72.9933 81.6079C73.2571 81.237 73.4338 80.9895 73.5861 80.8151C73.7338 80.6459 73.8201 80.592 73.8835 80.5683C73.9479 80.5442 74.0513 80.5278 74.2796 80.5575C74.5138 80.588 74.8164 80.657 75.2666 80.7606Z" fill="#21BBB3" stroke="url(#paint4_linear_680_856)"/>
<path d="M34.5591 40.5118L34.5593 40.5128C34.882 42.734 34.2533 44.7233 33.1425 46.4471C34.6093 47.8867 36.0274 49.2931 37.3961 50.6517C39.6981 48.3872 42.0141 46.1131 44.3349 43.8344C46.7098 41.5027 49.0896 39.166 51.4645 36.8296C50.0297 35.4055 48.6073 33.9948 47.1403 32.555C45.8026 33.4734 44.4089 34.0306 42.9573 34.1982C41.3786 34.3806 39.7633 34.0985 38.1148 33.3638L38.1109 33.3621C38.1108 33.3622 38.0908 33.3549 38.0443 33.3525C37.9955 33.3501 37.9344 33.3541 37.8682 33.3666C37.7234 33.3937 37.6292 33.4455 37.6019 33.4691C36.9662 34.0583 36.3502 34.6696 35.7307 35.2872C35.6889 35.3289 35.6471 35.3706 35.6053 35.4123C35.0279 35.9881 34.4458 36.5686 33.8492 37.1307M34.5591 40.5118L37.2656 33.0991C36.578 33.7361 35.9149 34.3974 35.2533 35.0571C34.6747 35.6342 34.0973 36.21 33.5059 36.7672C33.0547 37.1938 33.0977 37.5137 33.3125 38.0468M34.5591 40.5118C34.4223 39.5838 34.1281 38.6898 33.7746 37.8559M34.5591 40.5118L33.3125 38.0468M33.8492 37.1307C33.849 37.1309 33.8489 37.131 33.8487 37.1312L33.5059 36.7673L33.8494 37.1306C33.8493 37.1306 33.8492 37.1307 33.8492 37.1307ZM33.8492 37.1307C33.6755 37.2949 33.6607 37.3766 33.6572 37.4139C33.6508 37.4821 33.6697 37.5947 33.7746 37.8559M33.7746 37.8559C33.774 37.8544 33.7734 37.853 33.7728 37.8516L33.3125 38.0468M33.7746 37.8559C33.7752 37.8572 33.7757 37.8586 33.7763 37.86L33.3125 38.0468" fill="#21BBB3" stroke="url(#paint5_linear_680_856)"/>
<path d="M17.7698 14.1312C19.3746 15.7192 20.9843 17.3121 22.59 18.8968C21.4604 20.0182 20.2814 21.19 19.1507 22.3271C18.1162 21.3062 17.0797 20.2815 16.0431 19.2567C13.8534 17.0921 11.663 14.9268 9.48925 12.7941L9.50165 12.7818L9.50977 12.7738L9.51789 12.7657L9.58288 12.7012L9.64794 12.6366L9.66422 12.6204L9.67236 12.6124L9.6805 12.6043L9.68864 12.5962L9.69679 12.5881L9.70493 12.58L9.71308 12.5719L9.72937 12.5558L9.74566 12.5396L9.76197 12.5234L9.77827 12.5072L9.81089 12.4748L9.81905 12.4668L9.82721 12.4587L9.84352 12.4425L9.90884 12.3776L9.94151 12.3452L9.94968 12.3371L9.95785 12.329L9.9742 12.3127L9.99055 12.2965L10.0069 12.2803L10.0396 12.2478L10.0723 12.2153L10.1051 12.1828L10.1378 12.1503L10.146 12.1422L10.1542 12.1341L10.1706 12.1178L10.2033 12.0853L10.2115 12.0771L10.2197 12.069L10.2361 12.0527L10.2443 12.0446L10.2525 12.0365L10.2689 12.0202L10.3017 11.9876L10.3345 11.9551L10.3509 11.9388L10.3673 11.9225L10.3755 11.9144L10.3837 11.9062L10.4001 11.8899L10.4329 11.8574L10.4494 11.8411L10.4576 11.8329L10.4658 11.8248L10.4986 11.7922L10.5315 11.7596L10.5397 11.7514L10.5479 11.7433L10.5643 11.727L10.5972 11.6944L10.6136 11.6781L10.63 11.6617L10.6629 11.6291L10.6793 11.6128L10.6875 11.6047L10.6957 11.5965L10.7039 11.5884L10.7122 11.5802L10.7204 11.572L10.7286 11.5639L10.7368 11.5557L10.745 11.5476L10.7615 11.5313L10.7697 11.5231L10.7779 11.5149L10.7943 11.4986L10.8272 11.466L10.8354 11.4578L10.8436 11.4497L10.8601 11.4334L10.8929 11.4007L10.9094 11.3844L10.9258 11.3681L10.9587 11.3355L10.9669 11.3273L10.9751 11.3192L10.9834 11.311L10.9916 11.3028L11.008 11.2865L11.0162 11.2784L11.0244 11.2702L11.0573 11.2376L11.0737 11.2213L11.082 11.2131L11.0902 11.205L11.123 11.1723L11.1313 11.1642L11.1395 11.156L11.1477 11.1479L11.1559 11.1397L11.1888 11.1071L11.2052 11.0908L11.2216 11.0745L11.2298 11.0663L11.2381 11.0582L11.2545 11.0419L11.2873 11.0092L11.2955 11.0011L11.3038 10.9929L11.312 10.9848L11.3202 10.9766L11.3366 10.9603L11.3448 10.9522L11.353 10.944L11.3612 10.9359L11.3694 10.9277L11.3776 10.9196L11.3859 10.9115L11.4023 10.8952L11.4105 10.887L11.4187 10.8789L11.4269 10.8707L11.4351 10.8626L11.4515 10.8463L11.4597 10.8381L11.4679 10.83L11.4843 10.8137L11.5171 10.7811L11.5253 10.773L11.5335 10.7649L11.5499 10.7486L11.5581 10.7404L11.5663 10.7323L11.5745 10.7242L11.5827 10.716L11.5909 10.7079L11.5991 10.6998L11.6073 10.6916L11.6155 10.6835L11.6237 10.6754L11.6319 10.6672L11.6401 10.6591L11.6483 10.651L11.681 10.6184L11.7465 10.5534L11.7629 10.5372L11.7711 10.5291L11.7793 10.5209L11.7956 10.5047L11.812 10.4885L11.8202 10.4803L11.8283 10.4722L11.8447 10.456L11.8774 10.4235L11.8937 10.4073L11.9019 10.3992L11.9101 10.3911L11.9427 10.3586L11.9591 10.3424L11.9754 10.3262L11.9917 10.31L11.9999 10.3019L12.0081 10.2938L12.0162 10.2857L12.0244 10.2776L12.0325 10.2695L12.0407 10.2614L12.0733 10.2291L12.1385 10.1644L12.1711 10.132L12.2036 10.0997L12.2687 10.0351L12.2849 10.019L12.293 10.0109L12.3012 10.0029L12.3174 9.98675L12.3336 9.97063L12.3499 9.95451L12.3661 9.9384L12.3986 9.90619L12.4067 9.89814L12.4148 9.8901L12.4229 9.88205L12.431 9.87401L12.4472 9.85792L12.4553 9.84988L12.4634 9.84184L12.4958 9.80969L12.5281 9.77756L12.6574 9.64927L12.6735 9.63326L12.6816 9.62525L12.6896 9.61725L12.6977 9.60925L12.7058 9.60125L12.7138 9.59325L12.7219 9.58526L12.7299 9.57726L12.738 9.56927L12.7541 9.55328L12.7621 9.5453L12.7702 9.53731L12.7782 9.52932L12.7863 9.52134L12.7943 9.51335L12.8023 9.50537L12.8104 9.49739L12.8184 9.48941L12.8345 9.47346L12.8425 9.46549L12.8506 9.45752L12.8586 9.44955L12.8666 9.44158L12.8827 9.42564L12.8987 9.40972L12.9067 9.40176L12.9147 9.3938L12.9228 9.38584L12.9308 9.37788L12.9388 9.36993L12.9464 9.36239C14.5388 10.9338 16.1445 12.5228 17.7552 14.1167L17.7698 14.1312Z" fill="#21BBB3" stroke="url(#paint6_linear_680_856)"/>
<path d="M90.9981 22.3284L89.2771 20.6201L87.5602 18.9159C89.159 17.3196 90.7663 15.7191 92.3716 14.1206L92.3794 14.1129C93.9875 12.5116 95.5936 10.9123 97.1866 9.32179C98.331 10.4579 99.4975 11.6172 100.626 12.7521C97.4593 15.914 94.2212 19.1289 90.9981 22.3284Z" fill="#21BBB3" stroke="url(#paint7_linear_680_856)"/>
<path d="M30.2618 33.5248C27.7717 31.0514 25.2685 28.5471 22.8498 26.1091C23.4308 25.5385 24.0135 24.96 24.5896 24.3882L24.5903 24.3875C25.164 23.818 25.731 23.2551 26.2847 22.7114L29.9659 26.3655L33.72 30.092L33.5943 30.2167L33.5867 30.2244L33.579 30.232L33.5713 30.2396L33.5636 30.2472L33.5483 30.2625L33.5406 30.2701L33.5329 30.2777L33.5175 30.293L33.5021 30.3083L33.4712 30.3389L33.4635 30.3466L33.4558 30.3543L33.4403 30.3696L33.4326 30.3773L33.4249 30.385L33.4171 30.3927L33.4094 30.4003L33.3939 30.4157L33.3861 30.4234L33.3784 30.4311L33.3473 30.462L33.3395 30.4697L33.3317 30.4774L33.324 30.4851L33.3162 30.4929L33.3084 30.5006L33.3006 30.5083L33.285 30.5238L33.2772 30.5316L33.2694 30.5393L33.2538 30.5548L33.2381 30.5703L33.2303 30.5781L33.2225 30.5859L33.0969 30.7105L33.089 30.7184L33.0811 30.7262L33.0732 30.734L33.0654 30.7418L33.0575 30.7497L33.0496 30.7575L33.0338 30.7732L32.9705 30.836L32.9626 30.8439L32.9546 30.8518L32.9467 30.8596L32.9388 30.8675L32.9308 30.8754L32.9229 30.8833L32.9149 30.8911L32.907 30.899L32.899 30.9069L32.8911 30.9148L32.8831 30.9227L32.8752 30.9306L32.8593 30.9464L32.8433 30.9622L32.8114 30.9939L32.8034 31.0018L32.7954 31.0098L32.7795 31.0256L32.7715 31.0336L32.7635 31.0415L32.7555 31.0494L32.7475 31.0574L32.7315 31.0733L32.7154 31.0892L32.5868 31.2168L32.5546 31.2489L32.5384 31.2649L32.5223 31.2809L32.5142 31.2889L32.5061 31.297L32.498 31.305L32.4899 31.313L32.4738 31.3291L32.4576 31.3452L32.4414 31.3612L32.4251 31.3773L32.3927 31.4096L32.3846 31.4176L32.3764 31.4257L32.3602 31.4418L32.3439 31.458L32.3276 31.4741L32.3195 31.4822L32.3114 31.4903L32.3032 31.4984L32.2951 31.5065L32.2788 31.5227L32.2624 31.5388L32.1971 31.6037L32.1316 31.6687L32.1234 31.6769L32.1152 31.685L32.0988 31.7013L32.066 31.7339L32.0331 31.7665L32.0166 31.7828L32.0002 31.7992L31.992 31.8074L31.9837 31.8155L31.9672 31.8319L31.9343 31.8646L31.9013 31.8974L31.8682 31.9302L31.8351 31.963L31.802 31.9959L31.7855 32.0123L31.7772 32.0206L31.7689 32.0288L31.7523 32.0452L31.7357 32.0617L31.6693 32.1277L31.661 32.1359L31.6526 32.1442L31.6443 32.1524L31.636 32.1607L31.6194 32.1772L31.6027 32.1937L31.5861 32.2103L31.5694 32.2268L31.5527 32.2434L31.5444 32.2516L31.536 32.2599L31.5277 32.2682L31.5193 32.2765L31.511 32.2848L31.5027 32.2931L31.4692 32.3262L31.4525 32.3428L31.4358 32.3594L31.4274 32.3677L31.4191 32.376L31.4107 32.3843L31.4023 32.3926L31.3353 32.4592L31.3018 32.4925L31.2934 32.5008L31.285 32.5091L31.2766 32.5174L31.2682 32.5258L31.2346 32.5591L31.201 32.5925L31.1674 32.6259L31.1589 32.6342L31.1505 32.6426L31.1337 32.6593L31.1169 32.676L31.1084 32.6844L31.1 32.6928L31.0831 32.7095L31.0663 32.7262L31.0579 32.7346L31.0494 32.743L31.041 32.7513L31.0326 32.7597L31.0157 32.7765L30.9988 32.7932L30.9904 32.8016L30.9819 32.81L30.965 32.8267L30.9566 32.8351L30.9481 32.8435L30.9312 32.8603L30.9143 32.8771L30.9059 32.8855L30.8974 32.8939L30.8636 32.9275L30.8551 32.9359L30.8466 32.9443L30.8297 32.9611L30.7958 32.9947L30.7619 33.0284L30.745 33.0452L30.728 33.062L30.6601 33.1294L30.6431 33.1463L30.6261 33.1631L30.6176 33.1716L30.6091 33.18L30.5921 33.1969L30.5241 33.2644L30.5071 33.2813L30.4986 33.2898L30.4901 33.2982L30.456 33.332L30.422 33.3658L30.3879 33.3996L30.3708 33.4166L30.3538 33.4335L30.3453 33.442L30.3367 33.4504L30.3197 33.4674L30.3111 33.4758L30.3026 33.4843L30.2855 33.5012L30.277 33.5097L30.2685 33.5182L30.2618 33.5248Z" fill="#21BBB3" stroke="url(#paint8_linear_680_856)"/>
<path d="M79.8047 33.4183C78.6606 32.2828 77.4802 31.1124 76.3491 30.0042C77.5857 28.7776 78.8386 27.5388 80.0918 26.2996L80.0924 26.299C81.348 25.0575 82.604 23.8156 83.8437 22.5858L85.5647 24.2942L87.2805 25.9974L83.5613 29.6892L79.8047 33.4183Z" fill="#21BBB3" stroke="url(#paint9_linear_680_856)"/>
<path d="M63.3133 85.5573C64.293 84.0472 65.5921 82.7936 67.0651 82.0094C63.9155 88.3325 63.3501 94.6531 66.6073 101.049C65.5313 100.473 64.4775 99.4546 63.5959 98.1457C62.3997 96.3697 61.5755 94.1373 61.4623 91.9784C61.3607 89.7831 62.0653 87.4809 63.3133 85.5573Z" fill="#21BBB3" stroke="url(#paint10_linear_680_856)"/>
<defs>
<linearGradient id="paint0_linear_680_856" x1="104.458" y1="0.000244141" x2="104.458" y2="11.3033" gradientUnits="userSpaceOnUse">
<stop stop-color="white"/>
<stop offset="1" stop-opacity="0"/>
</linearGradient>
<linearGradient id="paint1_linear_680_856" x1="5.70508" y1="0.000244141" x2="5.70508" y2="11.0474" gradientUnits="userSpaceOnUse">
<stop stop-color="white"/>
<stop offset="1" stop-opacity="0"/>
</linearGradient>
<linearGradient id="paint2_linear_680_856" x1="38.9951" y1="31.8193" x2="38.9951" y2="109" gradientUnits="userSpaceOnUse">
<stop stop-color="white"/>
<stop offset="1" stop-opacity="0"/>
</linearGradient>
<linearGradient id="paint3_linear_680_856" x1="83.9834" y1="57.6033" x2="83.9834" y2="108.936" gradientUnits="userSpaceOnUse">
<stop stop-color="white"/>
<stop offset="1" stop-opacity="0"/>
</linearGradient>
<linearGradient id="paint4_linear_680_856" x1="76.6952" y1="80.0415" x2="76.6952" y2="103.22" gradientUnits="userSpaceOnUse">
<stop stop-color="white"/>
<stop offset="1" stop-opacity="0"/>
</linearGradient>
<linearGradient id="paint5_linear_680_856" x1="42.3359" y1="31.9048" x2="42.3359" y2="51.3546" gradientUnits="userSpaceOnUse">
<stop stop-color="white"/>
<stop offset="1" stop-opacity="0"/>
</linearGradient>
<linearGradient id="paint6_linear_680_856" x1="16.0391" y1="8.65894" x2="16.0391" y2="23.033" gradientUnits="userSpaceOnUse">
<stop stop-color="white"/>
<stop offset="1" stop-opacity="0"/>
</linearGradient>
<linearGradient id="paint7_linear_680_856" x1="94.0918" y1="8.61621" x2="94.0918" y2="23.033" gradientUnits="userSpaceOnUse">
<stop stop-color="white"/>
<stop offset="1" stop-opacity="0"/>
</linearGradient>
<linearGradient id="paint8_linear_680_856" x1="28.2852" y1="22.0093" x2="28.2852" y2="34.2294" gradientUnits="userSpaceOnUse">
<stop stop-color="white"/>
<stop offset="1" stop-opacity="0"/>
</linearGradient>
<linearGradient id="paint9_linear_680_856" x1="81.8135" y1="21.8813" x2="81.8135" y2="34.1228" gradientUnits="userSpaceOnUse">
<stop stop-color="white"/>
<stop offset="1" stop-opacity="0"/>
</linearGradient>
<linearGradient id="paint10_linear_680_856" x1="64.5564" y1="80.9985" x2="64.5564" y2="101.984" gradientUnits="userSpaceOnUse">
<stop stop-color="white"/>
<stop offset="1" stop-opacity="0"/>
</linearGradient>
</defs>
</svg>
