<svg width="30" height="30" viewBox="0 0 30 30" fill="none" xmlns="http://www.w3.org/2000/svg">
<path d="M4.99885 7.86395C3.62135 9.82145 2.81177 12.2019 2.81177 14.7756C2.81177 17.3494 3.62135 19.7298 4.99885 21.6873C7.92302 20.7569 10.0618 18.014 10.0618 14.7756C10.0618 11.5373 7.92302 8.79437 4.99885 7.86395ZM24.7913 7.86395C21.8672 8.79437 19.7284 11.5373 19.7284 14.7756C19.7284 18.014 21.8672 20.7569 24.7913 21.6873C26.1688 19.7298 26.9784 17.3494 26.9784 14.7756C26.9784 12.2019 26.1688 9.82145 24.7913 7.86395Z" fill="white"/>
<path d="M17.3117 14.7756C17.3117 10.8123 19.6921 7.41687 23.0996 5.91854C20.9488 3.92479 18.0729 2.69229 14.895 2.69229C11.7171 2.69229 8.84126 3.92479 6.69043 5.91854C10.0979 7.41687 12.4783 10.8123 12.4783 14.7756C12.4783 18.739 10.0979 22.1344 6.69043 23.6327C8.84126 25.6265 11.7171 26.859 14.895 26.859C18.0729 26.859 20.9488 25.6265 23.0996 23.6327C21.3786 22.8785 19.9146 21.6391 18.8867 20.0661C17.8588 18.4931 17.3115 16.6547 17.3117 14.7756Z" fill="white"/>
</svg>
