<svg width="15" height="15" viewBox="0 0 15 15" fill="none" xmlns="http://www.w3.org/2000/svg">
<path d="M2.38125 3.92505C1.66875 4.93755 1.25 6.1688 1.25 7.50005C1.25 8.8313 1.66875 10.0625 2.38125 11.075C3.89375 10.5938 5 9.17505 5 7.50005C5 5.82505 3.89375 4.4063 2.38125 3.92505ZM12.6188 3.92505C11.1063 4.4063 10 5.82505 10 7.50005C10 9.17505 11.1063 10.5938 12.6188 11.075C13.3313 10.0625 13.75 8.8313 13.75 7.50005C13.75 6.1688 13.3313 4.93755 12.6188 3.92505Z" fill="#21BBB3"/>
<path d="M8.7501 7.5C8.7501 5.45 9.98135 3.69375 11.7438 2.91875C10.6313 1.8875 9.14385 1.25 7.5001 1.25C5.85635 1.25 4.36885 1.8875 3.25635 2.91875C5.01885 3.69375 6.2501 5.45 6.2501 7.5C6.2501 9.55 5.01885 11.3062 3.25635 12.0813C4.36885 13.1125 5.85635 13.75 7.5001 13.75C9.14385 13.75 10.6313 13.1125 11.7438 12.0813C10.8537 11.6911 10.0964 11.0501 9.56475 10.2364C9.03307 9.42283 8.74998 8.47193 8.7501 7.5Z" fill="#21BBB3"/>
</svg>
