<svg width="20" height="20" viewBox="0 0 20 20" fill="none" xmlns="http://www.w3.org/2000/svg">
<path fill-rule="evenodd" clip-rule="evenodd" d="M17.4998 3.125C17.4998 2.95924 17.434 2.80027 17.3168 2.68306C17.1995 2.56585 17.0406 2.5 16.8748 2.5H9.37481C9.20905 2.5 9.05008 2.56585 8.93287 2.68306C8.81566 2.80027 8.74981 2.95924 8.74981 3.125C8.74981 3.29076 8.81566 3.44973 8.93287 3.56694C9.05008 3.68415 9.20905 3.75 9.37481 3.75H15.3661L2.68231 16.4325C2.6242 16.4906 2.57811 16.5596 2.54666 16.6355C2.51521 16.7114 2.49902 16.7928 2.49902 16.875C2.49902 16.9572 2.51521 17.0386 2.54666 17.1145C2.57811 17.1904 2.6242 17.2594 2.68231 17.3175C2.74042 17.3756 2.80941 17.4217 2.88533 17.4532C2.96126 17.4846 3.04263 17.5008 3.12481 17.5008C3.20699 17.5008 3.28837 17.4846 3.36429 17.4532C3.44022 17.4217 3.5092 17.3756 3.56731 17.3175L16.2498 4.63375V10.625C16.2498 10.7908 16.3157 10.9497 16.4329 11.0669C16.5501 11.1842 16.7091 11.25 16.8748 11.25C17.0406 11.25 17.1995 11.1842 17.3168 11.0669C17.434 10.9497 17.4998 10.7908 17.4998 10.625V3.125Z" fill="white"/>
</svg>
