<svg width="28" height="27" viewBox="0 0 28 27" fill="none" xmlns="http://www.w3.org/2000/svg">
<path d="M10.5 9.90594H15.9654C17.1769 9.90594 18.1596 10.9265 18.1596 11.9597C18.1596 13.0937 17.1769 14.0135 15.9654 14.0135H10.5V9.90594Z" stroke="#868686" stroke-width="1.5" stroke-miterlimit="10" stroke-linecap="round" stroke-linejoin="round"/>
<path d="M10.5 14.0009H16.7462C18.1327 14.0009 19.25 14.9206 19.25 16.0546C19.25 17.1886 18.1327 18.1084 16.7462 18.1084H10.5V14.0009Z" stroke="#868686" stroke-width="1.5" stroke-miterlimit="10" stroke-linecap="round" stroke-linejoin="round"/>
<path d="M14.323 18.0959V20.1497" stroke="#868686" stroke-width="1.5" stroke-miterlimit="10" stroke-linecap="round" stroke-linejoin="round"/>
<path d="M11.5903 18.0959V20.1497" stroke="#868686" stroke-width="1.5" stroke-miterlimit="10" stroke-linecap="round" stroke-linejoin="round"/>
<path d="M14.323 7.85217V9.90595" stroke="#868686" stroke-width="1.5" stroke-miterlimit="10" stroke-linecap="round" stroke-linejoin="round"/>
<path d="M11.5903 7.85217V9.90595" stroke="#868686" stroke-width="1.5" stroke-miterlimit="10" stroke-linecap="round" stroke-linejoin="round"/>
<path d="M12.5731 9.90594H8.75" stroke="#868686" stroke-width="1.5" stroke-miterlimit="10" stroke-linecap="round" stroke-linejoin="round"/>
<path d="M12.5731 18.0959H8.75" stroke="#868686" stroke-width="1.5" stroke-miterlimit="10" stroke-linecap="round" stroke-linejoin="round"/>
<path d="M13.9999 24.7779C20.4432 24.7779 25.6666 19.8889 25.6666 13.8581C25.6666 7.82721 20.4432 2.93823 13.9999 2.93823C7.5566 2.93823 2.33325 7.82721 2.33325 13.8581C2.33325 19.8889 7.5566 24.7779 13.9999 24.7779Z" stroke="#868686" stroke-width="1.5" stroke-miterlimit="10"/>
</svg>
