<svg width="63" height="74" viewBox="0 0 63 74" fill="none" xmlns="http://www.w3.org/2000/svg">
<path d="M9.76582 38.396L9.76284 38.396C7.4087 38.3818 5.51504 36.4675 5.5 34.087C5.50079 31.7105 7.39155 29.7944 9.74846 29.7652C12.1523 29.7518 14.0831 31.6695 14.0831 34.0727C14.0831 36.4812 12.1313 38.4243 9.76582 38.396ZM6.89581 34.1261L6.89582 34.1262C6.91491 35.7302 8.24722 37.0511 9.84518 37.0319C11.4439 37.0126 12.7381 35.6698 12.719 34.0509L12.719 34.0508C12.6999 32.4447 11.3813 31.1419 9.76974 31.161C8.1571 31.1802 6.87674 32.5052 6.89581 34.1261Z" fill="#21BBB3" stroke="url(#paint0_linear_686_855)"/>
<path d="M17.7849 45.2982V45.2982L17.7899 45.2981C20.1779 45.2744 22.565 45.2773 24.9621 45.2803C25.7628 45.2813 26.5646 45.2823 27.368 45.2823H27.3866H27.4052H27.4238H27.4424H27.461H27.4796H27.4981H27.5167H27.5353H27.5539H27.5725H27.5911H27.6097H27.6283H27.6469H27.6655H27.684H27.7026H27.7212H27.7398H27.7584H27.777H27.7956H27.8141H27.8327H27.8513H27.8699H27.8885H27.9071H27.9256H27.9442H27.9628H27.9814H28H28.0186H28.0371H28.0557H28.0743H28.0929H28.1115H28.13H28.1486H28.1672H28.1858H28.2043H28.2229H28.2415H28.2601H28.2787H28.2972H28.3158H28.3344H28.353H28.3715H28.3901H28.4087H28.4273H28.4458H28.4644H28.483H28.5016H28.5201H28.5387H28.5573H28.5759H28.5944H28.613H28.6316H28.6501H28.6687H28.6873H28.7059H28.7244H28.743H28.7616H28.7801H28.7987H28.8173H28.8358H28.8544H28.873H28.8915H28.9101H28.9287H28.9473H28.9658H28.9844H29.003H29.0215H29.0401H29.0587H29.0772H29.0958H29.1143H29.1329H29.1515H29.17H29.1886H29.2072H29.2257H29.2443H29.2629H29.2814H29.3H29.3186H29.3371H29.3557H29.3742H29.3928H29.4114H29.4299H29.4485H29.467H29.4856H29.5042H29.5227H29.5413H29.5599H29.5784H29.597H29.6155H29.6341H29.6526H29.6712H29.6898H29.7083H29.7269H29.7454H29.764H29.7826H29.8011H29.8197H29.8382H29.8568H29.8753H29.8939H29.9125H29.931H29.9496H29.9681H29.9867H30.0052H30.0238H30.0424H30.0609H30.0795H30.098H30.1166H30.1351H30.1537H30.1722H30.1908H30.2093H30.2279H30.2465H30.265H30.2836H30.3021H30.3207H30.3392H30.3578H30.3763H30.3949H30.4134H30.432H30.4505H30.4691H30.4876H30.5062H30.5247H30.5433H30.5618H30.5804H30.599H30.6175H30.6361H30.6546H30.6732H30.6917H30.7103H30.7288H30.7474H30.7659H30.7845H30.803H30.8216H30.8401H30.8587H30.8772H30.8958H30.9143H30.9329H30.9514H30.97H30.9885H31.0071H31.0256H31.0442H31.0627H31.0813H31.0998H31.1183H31.1369H31.1554H31.174H31.1925H31.2111H31.2296H31.2482H31.2667H31.2853H31.3038H31.3224H31.3409H31.3595H31.378H31.3966H31.4151H31.4337H31.4522H31.4708H31.4893H31.5079H31.5264H31.545H31.5635H31.582H31.6006H31.6191H31.6377H31.6562H31.6748H31.6933H31.7119H31.7304H31.749H31.7675H31.7861H31.8046H31.8232H31.8417H31.8602H31.8788H31.8973H31.9159H31.9344H31.953H31.9715H31.9901H32.0086H32.0272H32.0457H32.0643H32.0828H32.1014H32.1199H32.1384H32.157H32.1755H32.1941H32.2126H32.2312H32.2497H32.2683H32.2868H32.3054H32.3239H32.3425H32.361H32.3796H32.3981H32.4166H32.4352H32.4537H32.4723H32.4908H32.5094H32.5279H32.5465H32.565H32.5836H32.6021H32.6207H32.6392H32.6578H32.6763H32.6949H32.7134H32.7319H32.7505H32.769H32.7876H32.8061H32.8247H32.8432H32.8618H32.8803H32.8989H32.9174H32.936H32.9545H32.9731H32.9916H33.0102H33.0287H33.0473H33.0658H33.0844H33.1029H33.1215H33.14H33.1586H33.1771H33.1957H33.2142H33.2327H33.2513H33.2698H33.2884H33.3069H33.3255H33.344H33.3626H33.3811H33.3997H33.4182H33.4368H33.4553H33.4739H33.4924H33.511H33.5295H33.5481H33.5666H33.5852H33.6038H33.6223H33.6409H33.6594H33.678H33.6965H33.7151H33.7336H33.7522H33.7707H33.7893H33.8078H33.8264H33.8449H33.8635H33.882H33.9006H33.9191H33.9377H33.9562H33.9748H33.9934H34.0119H34.0305H34.049H34.0676H34.0861H34.1047H34.1232H34.1418H34.1603H34.1789H34.1975H34.216H34.2346H34.2531H34.2717H34.2902H34.3088H34.3273H34.3459H34.3645H34.383H34.4016H34.4201H34.4387H34.4572H34.4758H34.4944H34.5129H34.5315H34.55H34.5686H34.5872H34.6057H34.6243H34.6428H34.6614H34.68H34.6985H34.7171H34.7356H34.7542H34.7728H34.7913H34.8099H34.8284H34.847H34.8656H34.8841H34.9027H34.9213H34.9398H34.9584H34.9769H34.9955H35.0141H35.0326H35.0512H35.0698H35.0883H35.1069H35.1255H35.144H35.1626H35.1812H35.1997H35.2183H35.2369H35.2554H35.274H35.2926H35.3111H35.3297H35.3483H35.3668H35.3854H35.404H35.4225H35.4411H35.4597H35.4782H35.4968H35.5154H35.5339H35.5525H35.5711H35.5897H35.6082H35.6268H35.6454H35.6639H35.6825H35.7011H35.7197H35.7382H35.7568H35.7754H35.794H35.8125H35.8311H35.8497H35.8683H35.8868H35.9054H35.924H35.9426H35.9611H35.9797H35.9983H36.0169H36.0355H36.054H36.0726H36.0912H36.1098H36.1283H36.1469H36.1655H36.1841H36.2027H36.2213H36.2398H36.2584H36.277H36.2956H36.3142H36.3327H36.3513H36.3699H36.3885H36.4071H36.4257H36.4443H36.4628H36.4814H36.5H36.5186H36.5372H36.5558H36.5744H36.5929H36.6115H36.6301H36.6487H36.6673H36.6859H36.7045H36.7231H36.7417H36.7602H36.7788H36.7974H36.816H36.8346H36.8532H36.8718C37.1371 45.2823 37.3214 45.3186 37.4499 45.3834C37.5608 45.4394 37.6612 45.5314 37.7378 45.7233C37.8756 46.0968 37.6917 46.4734 37.3241 46.5902C37.1086 46.6583 36.8698 46.6622 36.5386 46.6622H36.5027H36.4668H36.431H36.3951H36.3592H36.3233H36.2874H36.2515H36.2156H36.1798H36.1439H36.108H36.0721H36.0362H36.0003H35.9645H35.9286H35.8927H35.8568H35.8209H35.785H35.7491H35.7133H35.6774H35.6415H35.6056H35.5697H35.5338H35.498H35.4621H35.4262H35.3903H35.3544H35.3185H35.2826H35.2468H35.2109H35.175H35.1391H35.1032H35.0673H35.0315H34.9956H34.9597H34.9238H34.8879H34.852H34.8161H34.7803H34.7444H34.7085H34.6726H34.6367H34.6008H34.565H34.5291H34.4932H34.4573H34.4214H34.3855H34.3496H34.3138H34.2779H34.242H34.2061H34.1702H34.1343H34.0985H34.0626H34.0267H33.9908H33.9549H33.919H33.8831H33.8473H33.8114H33.7755H33.7396H33.7037H33.6678H33.632H33.5961H33.5602H33.5243H33.4884H33.4525H33.4166H33.3808H33.3449H33.309H33.2731H33.2372H33.2013H33.1655H33.1296H33.0937H33.0578H33.0219H32.986H32.9501H32.9143H32.8784H32.8425H32.8066H32.7707H32.7348H32.699H32.6631H32.6272H32.5913H32.5554H32.5195H32.4836H32.4478H32.4119H32.376H32.3401H32.3042H32.2683H32.2325H32.1966H32.1607H32.1248H32.0889H32.053H32.0171H31.9813H31.9454H31.9095H31.8736H31.8377H31.8018H31.766H31.7301H31.6942H31.6583H31.6224H31.5865H31.5506H31.5148H31.4789H31.443H31.4071H31.3712H31.3353H31.2995H31.2636H31.2277H31.1918H31.1559H31.12H31.0841H31.0483H31.0124H30.9765H30.9406H30.9047H30.8688H30.833H30.7971H30.7612H30.7253H30.6894H30.6535H30.6176H30.5818H30.5459H30.51H30.4741H30.4382H30.4023H30.3665H30.3306H30.2947H30.2588H30.2229H30.187H30.1511H30.1153H30.0794H30.0435H30.0076H29.9717H29.9358H29.9H29.8641H29.8282H29.7923H29.7564H29.7205H29.6846H29.6488H29.6129H29.577H29.5411H29.5052H29.4693H29.4334H29.3976H29.3617H29.3258H29.2899H29.254H29.2181H29.1823H29.1464H29.1105H29.0746H29.0387H29.0028H28.9669H28.9311H28.8952H28.8593H28.8234H28.7875H28.7516H28.7158H28.6799H28.644H28.6081H28.5722H28.5363H28.5004H28.4646H28.4287H28.3928H28.3569H28.321H28.2851H28.2493H28.2134H28.1775H28.1416H28.1057H28.0698H28.0339H27.9981H27.9622H27.9263H27.8904H27.8545H27.8186H27.7828H27.7469H27.711H27.6751H27.6392H27.6033H27.5674H27.5316H27.4957H27.4598H27.4239H27.388H27.3521H27.3163H27.2804H27.2445H27.2086H27.1727H27.1368H27.1009H27.0651H27.0292H26.9933H26.9574H26.9215H26.8856H26.8498H26.8139H26.778H26.7421H26.7062H26.6703H26.6344H26.5986H26.5627H26.5268H26.4909H26.455H26.4191H26.3833H26.3474H26.3115H26.2756H26.2397H26.2038H26.1679H26.1321H26.0962H26.0603H26.0244H25.9885H25.9526H25.9168H25.8809H25.845H25.8091H25.7732H25.7373H25.7014H25.6656H25.6297H25.5938H25.5579H25.522H25.4861H25.4503H25.4144H25.3785H25.3426H25.3067H25.2708H25.2349H25.1991H25.1632H25.1273H25.0914H25.0555H25.0196H24.9838H24.9479H24.912H24.8761H24.8402H24.8043H24.7684H24.7326H24.6967H24.6608H24.6249H24.589H24.5531H24.5173H24.4814H24.4455H24.4096H24.3737H24.3378H24.3019H24.2661H24.2302H24.1943H24.1584H24.1225H24.0866H24.0508H24.0149H23.979H23.9431H23.9072H23.8713H23.8354H23.7996H23.7637H23.7278H23.6919H23.656H23.6201H23.5843H23.5484H23.5125H23.4766H23.4407H23.4048H23.3689H23.3331H23.2972H23.2613H23.2254H23.1895H23.1536H23.1178H23.0819H23.046H23.0101H22.9742H22.9383H22.9024H22.8666H22.8307H22.7948H22.7589H22.723H22.6871H22.6513H22.6154H22.5795H22.5436H22.5077H22.4718H22.4359H22.4001H22.3642H22.3283H22.2924H22.2565H22.2206H22.1848H22.1489H22.113H22.0771H22.0412H22.0053H21.9694H21.9336H21.8977H21.8618H21.8259H21.79H21.7541H21.7183H21.6824H21.6465H21.6106H21.5747H21.5388H21.5029H21.4671H21.4312H21.3953H21.3594H21.3235H21.2876H21.2518H21.2159H21.18H21.1441H21.1082H21.0723H21.0364H21.0006H20.9647H20.9288H20.8929H20.857H20.8211H20.7853H20.7494H20.7135H20.6776H20.6417H20.6058H20.5699H20.5341H20.4982H20.4623H20.4264H20.3905H20.3546H20.3188H20.2829H20.247H20.2111H20.1752H20.1393H20.1034H20.0676H20.0317H19.9958H19.9599H19.924H19.8881H19.8523H19.8164H19.7805H19.7446H19.7087H19.6728H19.6369H19.6011H19.5652H19.5293H19.4934H19.4575H19.4216H19.3858H19.3499H19.314H19.2781H19.2422H19.2063H19.1704H19.1346H19.0987H19.0628H19.0269H18.991H18.9551H18.9193H18.8834H18.8475H18.8116H18.7757H18.7398H18.7039H18.6681H18.6322H18.5963H18.5604H18.5245H18.4886H18.4528H18.4169H18.381H18.3451H18.3092H18.2733H18.2374H18.2016H18.1657H18.1649H18.1642H18.1634H18.1627H18.162H18.1612H18.1605H18.1597H18.159H18.1582H18.1575H18.1567H18.156H18.1552H18.1545H18.1537H18.153H18.1522H18.1515H18.1507H18.15H18.1492H18.1485H18.1477H18.147H18.1462H18.1455H18.1447H18.144H18.1432H18.1425H18.1417H18.1409H18.1402H18.1394H18.1387H18.1379H18.1372H18.1364H18.1356H18.1349H18.1341H18.1334H18.1326H18.1319H18.1311H18.1303H18.1296H18.1288H18.1281H18.1273H18.1265H18.1258H18.125H18.1243H18.1235H18.1227H18.122H18.1212H18.1204H18.1197H18.1189H18.1182H18.1174H18.1166H18.1159H18.1151H18.1143H18.1136H18.1128H18.112H18.1113H18.1105H18.1097H18.109H18.1082H18.1074H18.1067H18.1059H18.1051H18.1044H18.1036H18.1028H18.1021H18.1013H18.1005H18.0998H18.099H18.0982H18.0974H18.0967H18.0959H18.0951H18.0944H18.0936H18.0928H18.092H18.0913H18.0905H18.0897H18.0889H18.0882H18.0874H18.0866H18.0859H18.0851H18.0843H18.0835H18.0828H18.082H18.0812H18.0804H18.0797H18.0789H18.0781H18.0773H18.0766H18.0758H18.075H18.0742H18.0734H18.0727H18.0719H18.0711H18.0703H18.0696H18.0688H18.068H18.0672H18.0664H18.0657H18.0649H18.0641H18.0633H18.0625H18.0618H18.061H18.0602H18.0594H18.0586H18.0579H18.0571H18.0563H18.0555H18.0547H18.054H18.0532H18.0524H18.0516H18.0508H18.05H18.0493H18.0485H18.0477H18.0469H18.0461H18.0453H18.0446H18.0438H18.043H18.0422H18.0414H18.0406H18.0399H18.0391H18.0383H18.0375H18.0367H18.0359H18.0352H18.0344H18.0336H18.0328H18.032H18.0312H18.0304H18.0297H18.0289H18.0281H18.0273H18.0265H18.0257H18.0249H18.0242H18.0234H18.0226H18.0218H18.021H18.0202H18.0194H18.0186H18.0179H18.0171H18.0163H18.0155H18.0147H18.0139H18.0131H18.0123H18.0116H18.0108H18.01H18.0092H18.0084H18.0076H18.0068H18.006H18.0053H18.0045H18.0037H18.0029H18.0021H18.0013H18.0005H17.9997H17.9989H17.9982H17.9974H17.9966H17.9958H17.995H17.9942H17.9934H17.9926H17.9918H17.991H17.9903H17.9895H17.9887H17.9879H17.9871H17.9863H17.9855H17.9847H17.9839H17.9831H17.9824H17.9816H17.9808H17.98H17.9792H17.9784H17.9776H17.9768H17.976H17.9752H17.9745H17.9737H17.9729H17.9721H17.9713H17.9705H17.9697H17.9689H17.9681H17.9673H17.9666H17.9658H17.965H17.9642H17.9634H17.9626H17.9618H17.961H17.9602H17.9594H17.9587H17.9579H17.9571H17.9563H17.9555H17.9547H17.9539H17.9531H17.9523H17.9515H17.9508H17.95H17.9492H17.9484H17.9476H17.9468H17.946H17.9452H17.9444H17.9436H17.9429H17.9421H17.9413H17.9405H17.9397H17.9389H17.9381H17.9373H17.9365H17.9358H17.935H17.9342H17.9334H17.9326H17.9318H17.931H17.9302H17.9294H17.9287H17.9279H17.9271H17.9263H17.9255H17.9247H17.9239H17.9231H17.9223H17.9216H17.9208H17.92H17.9192H17.9184H17.9176H17.9168H17.916H17.9153H17.9145H17.9137H17.9129H17.9121H17.9113H17.9105H17.9098H17.909H17.9082H17.9074H17.9066H17.9058H17.905H17.9043H17.9035H17.9027H17.9019H17.9011H17.9003H17.8995H17.8988H17.898H17.8972H17.8964H17.8956H17.8948H17.894H17.8933H17.8925H17.8917H17.8909H17.8901H17.8893H17.8886H17.8878H17.887H17.8862H17.8854H17.8846H17.8839H17.8831H17.8823H17.8815H17.8807H17.88H17.8792H17.8784H17.8776H17.8768H17.8761H17.8753H17.8745H17.8737H17.8729H17.8722H17.8714H17.8706H17.8698H17.869H17.8683H17.8675H17.8667H17.8659H17.8651H17.8644H17.8636H17.8628H17.862H17.8613H17.8605H17.8597H17.8589H17.8581H17.8574H17.8566H17.8558H17.855H17.8543H17.8535H17.8527H17.8519H17.8512H17.8504H17.8496H17.8488H17.8481H17.8473H17.8465H17.8457H17.845H17.8442H17.8434H17.8427H17.8419H17.8411H17.8403H17.8396H17.8388H17.838H17.8373H17.8365H17.8357H17.8349H17.8342H17.8334H17.8326H17.8319H17.8311H17.8303H17.8296H17.8288H17.828H17.8273H17.8265H17.8257H17.825H17.8242H17.8234H17.8227H17.8219H17.8211H17.8204H17.8196H17.8188H17.8181H17.8173H17.8165H17.8158H17.815H17.8142H17.8135H17.8127H17.812H17.8112H17.8104H17.8097H17.8089H17.8082H17.8074H17.8066H17.8059H17.8051H17.8044H17.8036H17.8028H17.8021H17.8013H17.8006H17.7998H17.799H17.7983H17.7975H17.7968H17.796H17.7953H17.7945H17.7938H17.793H17.7922H17.7915H17.7907H17.79H17.7892H17.7885H17.7877H17.787H17.7862H17.7855H17.7847H17.784H17.7836C17.4417 46.641 17.2177 46.5415 17.0868 46.4269C16.9637 46.3192 16.8887 46.1699 16.8887 45.9564C16.8887 45.7312 16.9658 45.5886 17.0799 45.4934C17.2049 45.3891 17.4281 45.2982 17.7849 45.2982Z" fill="#21BBB3" stroke="url(#paint1_linear_686_855)"/>
<path d="M24.8796 59.7363H24.893H24.9065H24.92H24.9335H24.947H24.9604H24.9739H24.9874H25.0009H25.0144H25.0278H25.0413H25.0548H25.0683H25.0818H25.0952H25.1087H25.1222H25.1357H25.1492H25.1626H25.1761H25.1896H25.2031H25.2166H25.23H25.2435H25.257H25.2705H25.284H25.2974H25.3109H25.3244H25.3379H25.3514H25.3648H25.3783H25.3918H25.4053H25.4188H25.4322H25.4457H25.4592H25.4727H25.4862H25.4996H25.5131H25.5266H25.5401H25.5536H25.567H25.5805H25.594H25.6075H25.621H25.6344H25.6479H25.6614H25.6749H25.6884H25.7018H25.7153H25.7288H25.7423H25.7558H25.7692H25.7827H25.7962H25.8097H25.8232H25.8366H25.8501H25.8636H25.8771H25.8906H25.904H25.9175H25.931H25.9445H25.958H25.9714H25.9849H25.9984H26.0119H26.0254H26.0388H26.0523H26.0658H26.0793H26.0928H26.1062H26.1197H26.1332H26.1467H26.1602H26.1736H26.1871H26.2006H26.2141H26.2276H26.241H26.2545H26.268H26.2815H26.295H26.3084H26.3219H26.3354H26.3489H26.3624H26.3758H26.3893H26.4028H26.4163H26.4298H26.4432H26.4567H26.4702H26.4837H26.4972H26.5106H26.5241H26.5376H26.5511H26.5646H26.578H26.5915H26.605H26.6185H26.632H26.6454H26.6589H26.6724H26.6859H26.6994H26.7128H26.7263H26.7398H26.7533H26.7668H26.7802H26.7937H26.8072H26.8207H26.8342H26.8476H26.8611H26.8746H26.8881H26.9016H26.915H26.9285H26.942H26.9555H26.969H26.9824H26.9959H27.0094H27.0229H27.0364H27.0498H27.0633H27.0768H27.0903H27.1038H27.1172H27.1307H27.1442H27.1577H27.1712H27.1846H27.1981H27.2116H27.2251H27.2386H27.252H27.2655H27.279H27.2925H27.306H27.3194H27.3329H27.3464H27.3599H27.3734H27.3868H27.4003H27.4138H27.4273H27.4408H27.4542H27.4677H27.4812H27.4947H27.5082H27.5216H27.5351H27.5486H27.5621H27.5756H27.589H27.6025H27.616H27.6295H27.643H27.6564H27.6699H27.6834H27.6969H27.7104H27.7238H27.7373H27.7508H27.7643H27.7778H27.7912H27.8047H27.8182H27.8317H27.8452H27.8586H27.8721H27.8856H27.8991H27.9126H27.926H27.9395H27.953H27.9665H27.98H27.9934H28.0069H28.0204H28.0339H28.0474H28.0608H28.0743H28.0878H28.1013H28.1148H28.1282H28.1417H28.1552H28.1687H28.1822H28.1956H28.2091H28.2226H28.2361H28.2496H28.263H28.2765H28.29H28.3035H28.317H28.3304H28.3439H28.3574H28.3709H28.3844H28.3978H28.4113H28.4248H28.4383H28.4518H28.4652H28.4787H28.4922H28.5057H28.5192H28.5326H28.5461H28.5596H28.5731H28.5866H28.6H28.6135H28.627H28.6405H28.654H28.6674H28.6809H28.6944H28.7079H28.7214H28.7348H28.7483H28.7618H28.7753H28.7888H28.8022H28.8157H28.8292H28.8427H28.8562H28.8696H28.8831H28.8966H28.9101H28.9236H28.937H28.9505H28.964H28.9775H28.991H29.0044H29.0179H29.0314H29.0449H29.0584H29.0718H29.0853H29.0988H29.1123H29.1258H29.1392H29.1527H29.1662H29.1797H29.1932H29.2066H29.2201H29.2336H29.2471H29.2606H29.274H29.2875H29.301H29.3145H29.328H29.3414H29.3549H29.3684H29.3819H29.3954H29.4088H29.4223H29.4358H29.4493H29.4628H29.4762H29.4897H29.5032H29.5167H29.5302H29.5436H29.5571H29.5706H29.5841H29.5976H29.611H29.6245H29.638H29.6515H29.665H29.6784H29.6919H29.7054H29.7189H29.7324H29.7458H29.7593H29.7728H29.7863H29.7998H29.8132H29.8267H29.8402H29.8537H29.8672H29.8806H29.8941H29.9076H29.9211H29.9346H29.948H29.9615H29.975H29.9885H30.002H30.0154H30.0289H30.0424H30.0559H30.0694H30.0828H30.0963H30.1098H30.1233H30.1368H30.1502H30.1637H30.1772H30.1907H30.2042H30.2176H30.2311H30.2446H30.2581H30.2716H30.285H30.2985H30.312H30.3255H30.339H30.3524H30.3659H30.3794H30.3929H30.4064H30.4198H30.4333H30.4468H30.4603H30.4738H30.4872H30.5007H30.5142H30.5277H30.5412H30.5546H30.5681H30.5816H30.5951H30.6086H30.622H30.6355H30.649H30.6625H30.676H30.6894H30.7029H30.7164H30.7299H30.7434H30.7568H30.7703H30.7838H30.7973H30.8108H30.8242H30.8377H30.8512H30.8647H30.8782H30.8916H30.9051H30.9186H30.9321H30.9456H30.959H30.9725H30.986H30.9995H31.013H31.0264H31.0399H31.0534H31.0669H31.0804H31.0938H31.1073H31.1208H31.1343H31.1478H31.1612H31.1747H31.1882H31.2017H31.2152H31.2286H31.2421H31.2556H31.2691H31.2826H31.296H31.3095H31.323H31.3365H31.35H31.3634H31.3769H31.3904H31.4039H31.4174H31.4308H31.4443H31.4578H31.4713H31.4848H31.4982H31.5117H31.5252H31.5387H31.5522H31.5656H31.5791H31.5926H31.6061H31.6196H31.633H31.6465H31.66H31.6735H31.687H31.7004H31.7139H31.7274H31.7409H31.7544H31.7678H31.7813C32.1806 59.7363 32.427 59.8285 32.5643 59.9358C32.6865 60.0313 32.7678 60.1728 32.7728 60.4054C32.7777 60.6357 32.6979 60.7891 32.5652 60.8966C32.4188 61.0153 32.1581 61.1162 31.7496 61.1162H31.7224H31.6953H31.6681H31.641H31.6139H31.5867H31.5596H31.5324H31.5053H31.4781H31.451H31.4239H31.3967H31.3696H31.3424H31.3153H31.2882H31.261H31.2339H31.2067H31.1796H31.1525H31.1253H31.0982H31.071H31.0439H31.0168H30.9896H30.9625H30.9354H30.9082H30.8811H30.854H30.8268H30.7997H30.7726H30.7454H30.7183H30.6912H30.664H30.6369H30.6098H30.5826H30.5555H30.5284H30.5012H30.4741H30.447H30.4198H30.3927H30.3656H30.3385H30.3113H30.2842H30.2571H30.2299H30.2028H30.1757H30.1486H30.1214H30.0943H30.0672H30.0401H30.0129H29.9858H29.9587H29.9316H29.9044H29.8773H29.8502H29.8231H29.7959H29.7688H29.7417H29.7146H29.6874H29.6603H29.6332H29.6061H29.579H29.5518H29.5247H29.4976H29.4705H29.4434H29.4162H29.3891H29.362H29.3349H29.3078H29.2806H29.2535H29.2264H29.1993H29.1722H29.145H29.1179H29.0908H29.0637H29.0366H29.0095H28.9823H28.9552H28.9281H28.901H28.8739H28.8468H28.8196H28.7925H28.7654H28.7383H28.7112H28.6841H28.657H28.6298H28.6027H28.5756H28.5485H28.5214H28.4943H28.4672H28.4401H28.4129H28.3858H28.3587H28.3316H28.3045H28.2774H28.2503H28.2232H28.1961H28.1689H28.1418H28.1147H28.0876H28.0605H28.0334H28.0063H27.9792H27.9521H27.925H27.8979H27.8707H27.8436H27.8165H27.7894H27.7623H27.7352H27.7081H27.681H27.6539H27.6268H27.5997H27.5726H27.5455H27.5183H27.4912H27.4641H27.437H27.4099H27.3828H27.3557H27.3286H27.3015H27.2744H27.2473H27.2202H27.1931H27.166H27.1389H27.1118H27.0847H27.0576H27.0305H27.0033H26.9762H26.9491H26.922H26.8949H26.8678H26.8407H26.8136H26.7865H26.7594H26.7323H26.7052H26.6781H26.651H26.6239H26.5968H26.5697H26.5426H26.5155H26.4884H26.4613H26.4342H26.4071H26.38H26.3529H26.3258H26.2987H26.2716H26.2445H26.2174H26.1903H26.1632H26.1361H26.109H26.0819H26.0548H26.0277H26.0006H25.9735H25.9464H25.9193H25.8922H25.8651H25.838H25.8109H25.7838H25.7567H25.7296H25.7025H25.6754H25.6483H25.6212H25.5941H25.567H25.5399H25.5128H25.4857H25.4586H25.4315H25.4044H25.3773H25.3502H25.3231H25.296H25.2689H25.2418H25.2147H25.1876H25.1605H25.1334H25.1063H25.0792H25.0521H25.025H24.9979H24.9708H24.9437H24.9166H24.8895H24.8624H24.8353H24.8082H24.7811H24.754H24.7269H24.6998H24.6727H24.6456H24.6185H24.5914H24.5643H24.5372H24.5101H24.483H24.4559H24.4288H24.4017H24.3746H24.3475H24.3204H24.2933H24.2662H24.2391H24.212H24.1849H24.1578H24.1307H24.1036H24.0765H24.0494H24.0223H23.9952H23.9681H23.941H23.9139H23.8868H23.8597H23.8326H23.8055H23.7784H23.7513H23.7242H23.6971H23.67H23.6429H23.6158H23.5887H23.5616H23.5345H23.5074H23.4803H23.4532H23.4261H23.399H23.3719H23.3448H23.3177H23.2906H23.2635H23.2364H23.2093H23.1822H23.1551H23.1279H23.1008H23.0737H23.0466H23.0195H22.9924H22.9653H22.9382H22.9111H22.884H22.8569H22.8298H22.8027H22.7756H22.7485H22.7214H22.6943H22.6672H22.6401H22.613H22.5859H22.5588H22.5317H22.5046H22.4775H22.4504H22.4233H22.3962H22.369H22.3419H22.3148H22.2877H22.2606H22.2335H22.2064H22.1793H22.1522H22.1251H22.098H22.0709H22.0438H22.0167H21.9896H21.9625H21.9353H21.9082H21.8811H21.854H21.8269H21.7998H21.7727H21.7456H21.7185H21.6914H21.6643H21.6372H21.6101H21.5829H21.5558H21.5287H21.5016H21.4745H21.4474H21.4203H21.3932H21.3661H21.3389H21.3118H21.2847H21.2576H21.2305H21.2034H21.1763H21.1492H21.1221H21.0949H21.0678H21.0407H21.0136H20.9865H20.9594H20.9323H20.9051H20.878H20.8509H20.8238H20.7967H20.7696H20.7425H20.7153H20.6882H20.6611H20.634H20.6069H20.5798H20.5526H20.5255H20.4984H20.4713H20.4442H20.4171H20.3899H20.3628H20.3357H20.3086H20.2815H20.2543H20.2272H20.2001H20.173H20.1459H20.1187H20.0916H20.0645H20.0374H20.0103H19.9831H19.956H19.9289H19.9018H19.8747H19.8475H19.8204H19.7933H19.7662H19.739H19.7119H19.6848H19.6577H19.6305H19.6034H19.5763H19.5492H19.522H19.4949H19.4678H19.4407H19.4135H19.3864H19.3593H19.3321H19.305H19.2779H19.2508H19.2236H19.1965H19.1694H19.1422H19.1151H19.088H19.0608H19.0337H19.0066H18.9794H18.9523H18.9252H18.898H18.8709H18.8438H18.8166H18.7895H18.7624H18.7352H18.7081H18.681H18.6538H18.6267H18.5996H18.5724H18.5453H18.5182H18.491H18.4639H18.4367H18.4096H18.3825H18.3553H18.3282H18.301H18.2739H18.2468H18.2196H18.1925H18.1653H18.1382H18.1111H18.0839H18.0568H18.0296H18.0025H17.9753H17.9482H17.921H17.8939H17.8668C17.481 61.1162 17.2337 61.0227 17.092 60.9107C16.9631 60.8087 16.8803 60.6604 16.8752 60.4315C16.8701 60.1822 16.9499 60.039 17.0685 59.9441C17.2056 59.8344 17.463 59.7363 17.8985 59.7363H17.9122H17.9258H17.9395H17.9531H17.9668H17.9805H17.9941H18.0078H18.0215H18.0351H18.0488H18.0625H18.0761H18.0898H18.1034H18.1171H18.1308H18.1444H18.1581H18.1717H18.1854H18.199H18.2127H18.2264H18.24H18.2537H18.2673H18.281H18.2946H18.3083H18.322H18.3356H18.3493H18.3629H18.3766H18.3902H18.4039H18.4175H18.4312H18.4448H18.4585H18.4722H18.4858H18.4995H18.5131H18.5268H18.5404H18.5541H18.5677H18.5814H18.595H18.6087H18.6223H18.636H18.6496H18.6632H18.6769H18.6905H18.7042H18.7178H18.7315H18.7451H18.7588H18.7724H18.7861H18.7997H18.8134H18.827H18.8406H18.8543H18.8679H18.8816H18.8952H18.9089H18.9225H18.9361H18.9498H18.9634H18.9771H18.9907H19.0044H19.018H19.0316H19.0453H19.0589H19.0726H19.0862H19.0998H19.1135H19.1271H19.1408H19.1544H19.168H19.1817H19.1953H19.2089H19.2226H19.2362H19.2499H19.2635H19.2771H19.2908H19.3044H19.318H19.3317H19.3453H19.3589H19.3726H19.3862H19.3999H19.4135H19.4271H19.4408H19.4544H19.468H19.4817H19.4953H19.5089H19.5226H19.5362H19.5498H19.5635H19.5771H19.5907H19.6043H19.618H19.6316H19.6452H19.6589H19.6725H19.6861H19.6998H19.7134H19.727H19.7407H19.7543H19.7679H19.7815H19.7952H19.8088H19.8224H19.8361H19.8497H19.8633H19.8769H19.8906H19.9042H19.9178H19.9315H19.9451H19.9587H19.9723H19.986H19.9996H20.0132H20.0268H20.0405H20.0541H20.0677H20.0814H20.095H20.1086H20.1222H20.1359H20.1495H20.1631H20.1767H20.1904H20.204H20.2176H20.2312H20.2449H20.2585H20.2721H20.2857H20.2994H20.313H20.3266H20.3402H20.3538H20.3675H20.3811H20.3947H20.4083H20.422H20.4356H20.4492H20.4628H20.4765H20.4901H20.5037H20.5173H20.5309H20.5446H20.5582H20.5718H20.5854H20.5991H20.6127H20.6263H20.6399H20.6535H20.6672H20.6808H20.6944H20.708H20.7216H20.7353H20.7489H20.7625H20.7761H20.7898H20.8034H20.817H20.8306H20.8442H20.8579H20.8715H20.8851H20.8987H20.9123H20.926H20.9396H20.9532H20.9668H20.9804H20.9941H21.0077H21.0213H21.0349H21.0485H21.0622H21.0758H21.0894H21.103H21.1166H21.1303H21.1439H21.1575H21.1711H21.1847H21.1984H21.212H21.2256H21.2392H21.2528H21.2665H21.2801H21.2937H21.3073H21.3209H21.3345H21.3482H21.3618H21.3754H21.389H21.4026H21.4163H21.4299H21.4435H21.4571H21.4707H21.4844H21.498H21.5116H21.5252H21.5388H21.5525H21.5661H21.5797H21.5933H21.6069H21.6206H21.6342H21.6478H21.6614H21.675H21.6887H21.7023H21.7159H21.7295H21.7431H21.7568H21.7704H21.784H21.7976H21.8112H21.8249H21.8385H21.8521H21.8657H21.8793H21.893H21.9066H21.9202H21.9338H21.9474H21.9611H21.9747H21.9883H22.0019H22.0155H22.0292H22.0428H22.0564H22.07H22.0836H22.0973H22.1109H22.1245H22.1381H22.1518H22.1654H22.179H22.1926H22.2062H22.2199H22.2335H22.2471H22.2607H22.2744H22.288H22.3016H22.3152H22.3288H22.3425H22.3561H22.3697H22.3833H22.397H22.4106H22.4242H22.4378H22.4515H22.4651H22.4787H22.4923H22.5059H22.5196H22.5332H22.5468H22.5604H22.5741H22.5877H22.6013H22.6149H22.6286H22.6422H22.6558H22.6694H22.6831H22.6967H22.7103H22.724H22.7376H22.7512H22.7648H22.7785H22.7921H22.8057H22.8193H22.833H22.8466H22.8602H22.8738H22.8875H22.9011H22.9147H22.9284H22.942H22.9556H22.9692H22.9829H22.9965H23.0101H23.0238H23.0374H23.051H23.0647H23.0783H23.0919H23.1055H23.1192H23.1328H23.1464H23.1601H23.1737H23.1873H23.201H23.2146H23.2282H23.2419H23.2555H23.2691H23.2828H23.2964H23.31H23.3237H23.3373H23.3509H23.3646H23.3782H23.3918H23.4055H23.4191H23.4327H23.4464H23.46H23.4736H23.4873H23.5009H23.5146H23.5282H23.5418H23.5555H23.5691H23.5827H23.5964H23.61H23.6237H23.6373H23.6509H23.6646H23.6782H23.6919H23.7055H23.7191H23.7328H23.7464H23.7601H23.7737H23.7873H23.801H23.8146H23.8283H23.8419H23.8555H23.8692H23.8828H23.8965H23.9101H23.9238H23.9374H23.951H23.9647H23.9783H23.992H24.0056H24.0193H24.0329H24.0466H24.0602H24.0739H24.0875H24.1012H24.1148H24.1285H24.1421H24.1557H24.1694H24.183H24.1967H24.2103H24.224H24.2376H24.2513H24.2649H24.2786H24.2922H24.3059H24.3196H24.3332H24.3469H24.3605H24.3742H24.3878H24.4015H24.4151H24.4288H24.4424H24.4561H24.4697H24.4834H24.4971H24.5107H24.5244H24.538H24.5517H24.5653H24.579H24.5927H24.6063H24.62H24.6336H24.6473H24.661H24.6746H24.6883H24.7019H24.7156H24.7293H24.7429H24.7566H24.7703H24.7839H24.7976H24.8112H24.8249H24.8386H24.8522H24.8659H24.8796Z" fill="#21BBB3" stroke="url(#paint2_linear_686_855)"/>
<path d="M32.4548 37.5322L32.4547 37.5321L32.451 37.5365C32.451 37.5364 32.4383 37.5494 32.4001 37.5687C32.3591 37.5896 32.3017 37.6111 32.2275 37.6306C32.08 37.6694 31.9037 37.6902 31.7371 37.6976C29.4415 37.7134 27.1298 37.7134 24.8002 37.7134H24.7868H24.7733H24.7598H24.7463H24.7328H24.7194H24.7059H24.6924H24.6789H24.6654H24.652H24.6385H24.625H24.6115H24.598H24.5846H24.5711H24.5576H24.5441H24.5306H24.5172H24.5037H24.4902H24.4767H24.4632H24.4498H24.4363H24.4228H24.4093H24.3958H24.3824H24.3689H24.3554H24.3419H24.3284H24.315H24.3015H24.288H24.2745H24.261H24.2476H24.2341H24.2206H24.2071H24.1936H24.1802H24.1667H24.1532H24.1397H24.1262H24.1128H24.0993H24.0858H24.0723H24.0588H24.0454H24.0319H24.0184H24.0049H23.9914H23.978H23.9645H23.951H23.9375H23.924H23.9106H23.8971H23.8836H23.8701H23.8566H23.8432H23.8297H23.8162H23.8027H23.7892H23.7758H23.7623H23.7488H23.7353H23.7218H23.7084H23.6949H23.6814H23.6679H23.6544H23.641H23.6275H23.614H23.6005H23.587H23.5736H23.5601H23.5466H23.5331H23.5196H23.5062H23.4927H23.4792H23.4657H23.4522H23.4388H23.4253H23.4118H23.3983H23.3848H23.3714H23.3579H23.3444H23.3309H23.3174H23.304H23.2905H23.277H23.2635H23.25H23.2366H23.2231H23.2096H23.1961H23.1826H23.1692H23.1557H23.1422H23.1287H23.1152H23.1018H23.0883H23.0748H23.0613H23.0478H23.0344H23.0209H23.0074H22.9939H22.9804H22.967H22.9535H22.94H22.9265H22.913H22.8996H22.8861H22.8726H22.8591H22.8456H22.8322H22.8187H22.8052H22.7917H22.7782H22.7648H22.7513H22.7378H22.7243H22.7108H22.6974H22.6839H22.6704H22.6569H22.6434H22.63H22.6165H22.603H22.5895H22.576H22.5626H22.5491H22.5356H22.5221H22.5086H22.4952H22.4817H22.4682H22.4547H22.4412H22.4278H22.4143H22.4008H22.3873H22.3738H22.3604H22.3469H22.3334H22.3199H22.3064H22.293H22.2795H22.266H22.2525H22.239H22.2256H22.2121H22.1986H22.1851H22.1716H22.1582H22.1447H22.1312H22.1177H22.1042H22.0908H22.0773H22.0638H22.0503H22.0368H22.0234H22.0099H21.9964H21.9829H21.9694H21.956H21.9425H21.929H21.9155H21.902H21.8886H21.8751H21.8616H21.8481H21.8346H21.8212H21.8077H21.7942H21.7807H21.7672H21.7538H21.7403H21.7268H21.7133H21.6998H21.6864H21.6729H21.6594H21.6459H21.6324H21.619H21.6055H21.592H21.5785H21.565H21.5516H21.5381H21.5246H21.5111H21.4976H21.4842H21.4707H21.4572H21.4437H21.4302H21.4168H21.4033H21.3898H21.3763H21.3628H21.3494H21.3359H21.3224H21.3089H21.2954H21.282H21.2685H21.255H21.2415H21.228H21.2146H21.2011H21.1876H21.1741H21.1606H21.1472H21.1337H21.1202H21.1067H21.0932H21.0798H21.0663H21.0528H21.0393H21.0258H21.0124H20.9989H20.9854H20.9719H20.9584H20.945H20.9315H20.918H20.9045H20.891H20.8776H20.8641H20.8506H20.8371H20.8236H20.8102H20.7967H20.7832H20.7697H20.7562H20.7428H20.7293H20.7158H20.7023H20.6888H20.6754H20.6619H20.6484H20.6349H20.6214H20.608H20.5945H20.581H20.5675H20.554H20.5406H20.5271H20.5136H20.5001H20.4866H20.4732H20.4597H20.4462H20.4327H20.4192H20.4058H20.3923H20.3788H20.3653H20.3518H20.3384H20.3249H20.3114H20.2979H20.2844H20.271H20.2575H20.244H20.2305H20.217H20.2036H20.1901H20.1766H20.1631H20.1496H20.1362H20.1227H20.1092H20.0957H20.0822H20.0688H20.0553H20.0418H20.0283H20.0148H20.0014H19.9879H19.9744H19.9609H19.9474H19.934H19.9205H19.907H19.8935H19.88H19.8666H19.8531H19.8396H19.8261H19.8126H19.7992H19.7857H19.7722H19.7587H19.7452H19.7318H19.7183H19.7048H19.6913H19.6778H19.6644H19.6509H19.6374H19.6239H19.6104H19.597H19.5835H19.57H19.5565H19.543H19.5296H19.5161H19.5026H19.4891H19.4756H19.4622H19.4487H19.4352H19.4217H19.4082H19.3948H19.3813H19.3678H19.3543H19.3408H19.3274H19.3139H19.3004H19.2869H19.2734H19.26H19.2465H19.233H19.2195H19.206H19.1926H19.1791H19.1656H19.1521H19.1386H19.1252H19.1117H19.0982H19.0847H19.0712H19.0578H19.0443H19.0308H19.0173H19.0038H18.9904H18.9769H18.9634H18.9499H18.9364H18.923H18.9095H18.896H18.8825H18.869H18.8556H18.8421H18.8286H18.8151H18.8016H18.7882H18.7747H18.7612H18.7477H18.7342H18.7208H18.7073H18.6938H18.6803H18.6668H18.6534H18.6399H18.6264H18.6129H18.5994H18.586H18.5725H18.559H18.5455H18.532H18.5186H18.5051H18.4916H18.4781H18.4646H18.4512H18.4377H18.4242H18.4107H18.3972H18.3838H18.3703H18.3568H18.3433H18.3298H18.3164H18.3029H18.2894H18.2759H18.2624H18.249H18.2355H18.222H18.2085H18.195H18.1816H18.1681H18.1546H18.1411H18.1276H18.1142H18.1007H18.0872H18.0737H18.0602H18.0468H18.0333H18.0198H18.0063H17.9928H17.9794H17.9659H17.9524H17.9389H17.9254H17.912H17.8985C17.463 37.7134 17.2056 37.6154 17.0685 37.5057C16.9499 37.4108 16.8701 37.2675 16.8752 37.0182C16.8804 36.7847 16.9625 36.6375 17.0876 36.5379C17.2256 36.4279 17.4713 36.3335 17.8668 36.3335H17.894H17.9212H17.9485H17.9757H18.0029H18.0302H18.0574H18.0847H18.1119H18.1391H18.1664H18.1936H18.2209H18.2481H18.2753H18.3026H18.3298H18.3571H18.3843H18.4115H18.4388H18.466H18.4932H18.5205H18.5477H18.575H18.6022H18.6294H18.6567H18.6839H18.7112H18.7384H18.7656H18.7929H18.8201H18.8474H18.8746H18.9018H18.9291H18.9563H18.9835H19.0108H19.038H19.0653H19.0925H19.1197H19.147H19.1742H19.2015H19.2287H19.2559H19.2832H19.3104H19.3377H19.3649H19.3921H19.4194H19.4466H19.4738H19.5011H19.5283H19.5556H19.5828H19.61H19.6373H19.6645H19.6918H19.719H19.7462H19.7735H19.8007H19.828H19.8552H19.8824H19.9097H19.9369H19.9641H19.9914H20.0186H20.0459H20.0731H20.1003H20.1276H20.1548H20.1821H20.2093H20.2365H20.2638H20.291H20.3183H20.3455H20.3727H20.4H20.4272H20.4544H20.4817H20.5089H20.5362H20.5634H20.5906H20.6179H20.6451H20.6724H20.6996H20.7268H20.7541H20.7813H20.8086H20.8358H20.863H20.8903H20.9175H20.9447H20.972H20.9992H21.0265H21.0537H21.0809H21.1082H21.1354H21.1627H21.1899H21.2171H21.2444H21.2716H21.2989H21.3261H21.3533H21.3806H21.4078H21.435H21.4623H21.4895H21.5168H21.544H21.5712H21.5985H21.6257H21.653H21.6802H21.7074H21.7347H21.7619H21.7891H21.8164H21.8436H21.8709H21.8981H21.9253H21.9526H21.9798H22.0071H22.0343H22.0615H22.0888H22.116H22.1433H22.1705H22.1977H22.225H22.2522H22.2794H22.3067H22.3339H22.3612H22.3884H22.4156H22.4429H22.4701H22.4974H22.5246H22.5518H22.5791H22.6063H22.6336H22.6608H22.688H22.7153H22.7425H22.7697H22.797H22.8242H22.8515H22.8787H22.9059H22.9332H22.9604H22.9877H23.0149H23.0421H23.0694H23.0966H23.1239H23.1511H23.1783H23.2056H23.2328H23.26H23.2873H23.3145H23.3418H23.369H23.3962H23.4235H23.4507H23.478H23.5052H23.5324H23.5597H23.5869H23.6142H23.6414H23.6686H23.6959H23.7231H23.7503H23.7776H23.8048H23.8321H23.8593H23.8865H23.9138H23.941H23.9683H23.9955H24.0227H24.05H24.0772H24.1045H24.1317H24.1589H24.1862H24.2134H24.2406H24.2679H24.2951H24.3224H24.3496H24.3768H24.4041H24.4313H24.4586H24.4858H24.513H24.5403H24.5675H24.5948H24.622H24.6492H24.6765H24.7037H24.7309H24.7582H24.7854H24.8127H24.8399H24.8671H24.8944H24.9216H24.9489H24.9761H25.0033H25.0306H25.0578H25.0851H25.1123H25.1395H25.1668H25.194H25.2212H25.2485H25.2757H25.303H25.3302H25.3574H25.3847H25.4119H25.4392H25.4664H25.4936H25.5209H25.5481H25.5754H25.6026H25.6298H25.6571H25.6843H25.7115H25.7388H25.766H25.7933H25.8205H25.8477H25.875H25.9022H25.9295H25.9567H25.9839H26.0112H26.0384H26.0656H26.0929H26.1201H26.1474H26.1746H26.2018H26.2291H26.2563H26.2836H26.3108H26.338H26.3653H26.3925H26.4198H26.447H26.4742H26.5015H26.5287H26.556H26.5832H26.6104H26.6377H26.6649H26.6921H26.7194H26.7466H26.7739H26.8011H26.8283H26.8556H26.8828H26.9101H26.9373H26.9645H26.9918H27.019H27.0462H27.0735H27.1007H27.128H27.1552H27.1824H27.2097H27.2369H27.2642H27.2914H27.3186H27.3459H27.3731H27.4004H27.4276H27.4548H27.4821H27.5093H27.5365H27.5638H27.591H27.6183H27.6455H27.6727H27.7H27.7272H27.7545H27.7817H27.8089H27.8362H27.8634H27.8907H27.9179H27.9451H27.9724H27.9996H28.0268H28.0541H28.0813H28.1086H28.1358H28.163H28.1903H28.2175H28.2448H28.272H28.2992H28.3265H28.3537H28.381H28.4082H28.4354H28.4627H28.4899H28.5171H28.5444H28.5716H28.5989H28.6261H28.6533H28.6806H28.7078H28.7351H28.7623H28.7895H28.8168H28.844H28.8713H28.8985H28.9257H28.953H28.9802H29.0074H29.0347H29.0619H29.0892H29.1164H29.1436H29.1709H29.1981H29.2254H29.2526H29.2798H29.3071H29.3343H29.3616H29.3888H29.416H29.4433H29.4705H29.4977H29.525H29.5522H29.5795H29.6067H29.6339H29.6612H29.6884H29.7157H29.7429H29.7701H29.7974H29.8246H29.8519H29.8791H29.9063H29.9336H29.9608H29.988H30.0153H30.0425H30.0698H30.097H30.1242H30.1515H30.1787H30.206H30.2332H30.2604H30.2877H30.3149H30.3422H30.3694H30.3966H30.4239H30.4511H30.4783H30.5056H30.5328H30.5601H30.5873H30.6145H30.6418H30.669H30.6963H30.7235H30.7507H30.778H30.8052H30.8325H30.8597H30.8869H30.9142H30.9414H30.9686H30.9959H31.0231H31.0504H31.0776H31.1048H31.1321H31.1593H31.1866H31.2138H31.241H31.2683H31.2955H31.3228H31.35H31.3772H31.4045H31.4317H31.4589H31.4862H31.5134H31.5407H31.5679H31.5951H31.6224H31.6496H31.6769H31.7041H31.7313H31.7586H31.7858H31.813C32.0961 36.3335 32.3074 36.3744 32.4455 36.4468C32.5558 36.5047 32.6347 36.5877 32.6693 36.762C32.6852 36.864 32.6764 37.0124 32.6323 37.1713C32.5872 37.3337 32.5179 37.4612 32.4548 37.5322Z" fill="#21BBB3" stroke="url(#paint3_linear_686_855)"/>
<path d="M31.8202 32.1925L31.8188 32.1925C31.3171 32.203 30.8141 32.1995 30.3055 32.196C30.0482 32.1942 29.7894 32.1924 29.5286 32.1924H29.5197H29.5107H29.5018H29.4929H29.484H29.475H29.4661H29.4572H29.4482H29.4393H29.4304H29.4214H29.4125H29.4035H29.3946H29.3857H29.3767H29.3678H29.3588H29.3499H29.332H29.323H29.3141H29.3051H29.2962H29.2872H29.2783H29.2693H29.2604H29.2514H29.2425H28.9553H28.6672H28.6582H28.6492H28.6402H28.6311H28.6221H28.6131H28.6041H28.5951H28.586H28.577H28.568H28.559H28.5499H28.5409H28.5319H28.5229H28.5138H28.5048H28.4958H28.4867H28.4777H28.4687H28.4596H28.4506H28.4416H28.4325H28.4235H28.4145H28.4054H28.3964H28.3873H28.3783H28.3693H28.3602H28.3512H28.3421H28.3331H28.324H28.315H28.3059H28.2969H28.2879H28.2788H28.2698H28.2607H28.2517H28.2426H28.2336H28.2245H28.2154H28.2064H28.1973H28.1883H28.1792H28.1702H28.1611H28.1521H28.143H28.1339H28.1249H28.1158H28.1068H28.0977H28.0886H28.0796H28.0705H28.0614H28.0524H28.0433H28.0342H28.0252H28.0161H28.007H27.998H27.9889H27.9798H27.9708H27.9617H27.9526H27.9435H27.9345H27.9254H27.9163H27.9073H27.8982H27.8891H27.88H27.8709H27.8619H27.8528H27.8437H27.8346H27.8256H27.8165H27.8074H27.7983H27.7892H27.7802H27.7711H27.762H27.7529H27.7438H27.7347H27.7256H27.7166H27.7075H27.6984H27.6893H27.6802H27.6711H27.662H27.6529H27.6439H27.6348H27.6257H27.6166H27.6075H27.5984H27.5893H27.5802H27.5711H27.562H27.5529H27.5438H27.5347H27.5256H27.5165H27.5074H27.4983H27.4892H27.4801H27.471H27.4619H27.4528H27.4437H27.4346H27.4255H27.4164H27.4073H27.3982H27.3891H27.38H27.3709H27.3618H27.3527H27.3436H27.3345H27.3254H27.3163H27.3072H27.2981H27.289H27.2799H27.2708H27.2617H27.2525H27.2434H27.2343H27.2252H27.2161H27.207H27.1979H27.1888H27.1797H27.1705H27.1614H27.1523H27.1432H27.1341H27.125H27.1159H27.1068H27.0976H27.0885H27.0794H27.0703H27.0612H27.0521H27.0429H27.0338H27.0247H27.0156H27.0065H26.9974H26.9882H26.9791H26.97H26.9609H26.9518H26.9426H26.9335H26.9244H26.9153H26.9062H26.897H26.8879H26.8788H26.8697H26.8605H26.8514H26.8423H26.8332H26.8149H26.8058H26.7967H26.7876H26.7784H26.7693H26.7602H26.7511H26.7419H26.7328H26.7237H26.7145H26.7054H26.6963H26.6872H26.678H26.6689H26.6598H26.6507H26.6415H26.6324H26.6233H26.6141H26.605H26.5959H26.5868H26.5776H26.5685H26.5594H26.5502H26.5411H26.532H26.5229H26.5137H26.5046H26.4955H26.4863H26.4772H26.4681H26.4589H26.4498H26.4407H26.4315H26.4224H26.4133H26.4042H26.395H26.3859H26.3768H26.3676H26.3585H26.3494H26.3402H26.048H25.7557H25.7466H25.7374H25.7283H25.7192H25.71H25.7009H25.6918H25.6826H25.6735H25.6644H25.6552H25.6461H25.637H25.6279H25.6187H25.6096H25.6005H25.5913H25.5822H25.5731H25.5639H25.5548H25.5457H25.5365H25.5274H25.5183H25.5092H25.5H25.4909H25.4818H25.4726H25.4635H25.4544H25.4453H25.4361H25.427H25.4179H25.4088H25.3996H25.3905H25.3814H25.3722H25.3631H25.354H25.3449H25.3357H25.3266H25.3175H25.3084H25.2992H25.2901H25.281H25.2719H25.2628H25.2536H25.2445H25.2354H25.2263H25.2171H25.208H25.1989H25.1898H25.1807H25.1715H25.1624H25.1533H25.1442H25.135H25.1259H25.1168H25.1077H25.0986H25.0895H25.0803H25.0712H25.0621H25.053H25.0439H25.0348H25.0256H25.0165H25.0074H24.9983H24.9892H24.9801H24.9709H24.9618H24.9527H24.9436H24.9345H24.9254H24.9163H24.9072H24.898H24.8889H24.8798H24.8666H24.8534H24.8402H24.827H24.8138H24.8006H24.7874H24.7742H24.761H24.7478H24.7346H24.7214H24.7082H24.695H24.6818H24.6686H24.6555H24.6423H24.6291H24.6159H24.6027H24.5895H24.5763H24.5631H24.5499H24.5367H24.5235H24.5103H24.4971H24.4839H24.4708H24.4576H24.4444H24.4312H24.418H24.4048H24.3916H24.3784H24.3652H24.3521H24.3389H24.3257H24.3125H24.2993H24.2861H24.2729H24.2597H24.2466H24.2334H24.2202H24.207H24.1938H24.1806H24.1675H24.1543H24.1411H24.1279H24.1147H24.1015H24.0884H24.0752H24.062H24.0488H24.0356H24.0225H24.0093H23.9961H23.9829H23.9697H23.9566H23.9434H23.9302H23.917H23.9038H23.8907H23.8775H23.8643H23.8511H23.838H23.8248H23.8116H23.7984H23.7852H23.7721H23.7589H23.7457H23.7325H23.7194H23.7062H23.693H23.6798H23.6667H23.6535H23.6403H23.6272H23.614H23.6008H23.5876H23.5745H23.5613H23.5481H23.5349H23.5218H23.5086H23.4954H23.4823H23.4691H23.4559H23.4428H23.4296H23.4164H23.4032H23.3901H23.3769H23.3637H23.3506H23.3374H23.3242H23.3111H23.2979H23.2847H23.2716H23.2584H23.2452H23.2321H23.2189H23.2057H23.1926H23.1794H23.1662H23.1531H23.1399H23.1267H23.1136H23.1004H23.0872H23.0741H23.0609H23.0477H23.0346H23.0214H23.0083H22.9951H22.9819H22.9688H22.9556H22.9424H22.9293H22.9161H22.9029H22.8898H22.8766H22.8635H22.8503H22.8371H22.824H22.8108H22.7976H22.7845H22.7713H22.7582H22.745H22.7318H22.7187H22.7055H22.6924H22.6792H22.666H22.6529H22.6397H22.6266H22.6134H22.6002H22.5871H22.5739H22.5608H22.5476H22.5344H22.5213H22.5081H22.495H22.4818H22.4687H22.4555H22.4423H22.4292H22.416H22.4029H22.3897H22.3765H22.3634H22.3502H22.3371H22.3239H22.3108H22.2976H22.2844H22.2713H22.2581H22.245H22.2318H22.2187H22.2055H22.1923H22.1792H22.166H22.1529H22.1397H22.1266H22.1134H22.1003H22.0871H22.0739H22.0608H22.0476H22.0345H22.0213H22.0082H21.995H21.9819H21.9687H21.9555H21.9424H21.9292H21.9161H21.9029H21.8898H21.8766H21.8635H21.8503H21.8371H21.824H21.8108H21.7977H21.7845H21.7714H21.7582H21.7451H21.7319H21.7188H21.7056H21.6924H21.6793H21.6661H21.653H21.6398H21.6267H21.6135H21.6004H21.5872H21.574H21.5609H21.5477H21.5346H21.5214H21.5083H21.4951H21.482H21.4688H21.4557H21.4425H21.4293H21.4162H21.403H21.3899H21.3767H21.3636H21.3504H21.3373H21.3241H21.311H21.2978H21.2846H21.2715H21.2583H21.2452H21.232H21.2189H21.2057H21.1926H21.1794H21.1663H21.1531H21.1399H21.1268H21.1136H21.1005H21.0873H21.0742H21.061H21.0479H21.0347H21.0215H21.0084H20.9952H20.9821H20.9689H20.9558H20.9426H20.9295H20.9163H20.9031H20.89H20.8768H20.8637H20.8505H20.8374H20.8242H20.811H20.7979H20.7847H20.7716H20.7584H20.7453H20.7321H20.7189H20.7058H20.6926H20.6795H20.6663H20.6532H20.64H20.6268H20.6137H20.6005H20.5874H20.5742H20.5611H20.5479H20.5347H20.5216H20.5084H20.4953H20.4821H20.4689H20.4558H20.4426H20.4295H20.4163H20.4031H20.39H20.3768H20.3637H20.3505H20.3373H20.3242H20.311H20.2979H20.2847H20.2715H20.2584H20.2452H20.2321H20.2189H20.2057H20.1926H20.1794H20.1663H20.1531H20.1399H20.1268H20.1136H20.1004H20.0873H20.0741H20.061H20.0478H20.0346H20.0215H20.0083H19.9951H19.982H19.9688H19.9556H19.9425H19.9293H19.9162H19.903H19.8898H19.8767H19.8635H19.8503H19.8372H19.824H19.8108H19.7977H19.7845H19.7713H19.7582H19.745H19.7318H19.7187H19.7055H19.6923H19.6792H19.666H19.6528H19.6396H19.6265H19.6133H19.6001H19.587H19.5738H19.5606H19.5475H19.5343H19.5211H19.5079H19.4948H19.4816H19.4684H19.4553H19.4421H19.4289H19.4157H19.4026H19.3894H19.3762H19.3631H19.3499H19.3367H19.3235H19.3104H19.2972H19.284H19.2708H19.2577H19.2445H19.2313H19.2181H19.205H19.1918H19.1786H19.1654H19.1522H19.1391H19.1259H19.1127H19.0995H19.0864H19.0732H19.06H19.0468H19.0336H19.0205H19.0073H18.9941H18.9809H18.9677H18.9546H18.9414H18.9282H18.915H18.9018H18.8886H18.8755H18.8623H18.8491H18.8359H18.8227H18.8095H18.7964H18.7832H18.77H18.7568H18.7436H18.7304H18.7172H18.7041H18.6909H18.6777H18.6645H18.6513H18.6381H18.6249H18.6117H18.5986H18.5854H18.5722H18.559H18.5458H18.5326H18.5194H18.5062H18.493H18.4798H18.4666H18.4535H18.4403H18.4271H18.4139H18.4007H18.3875H18.3743H18.3611H18.3479H18.3347H18.3215H18.3083H18.2951H18.2819H18.2687H18.2555H18.2423H18.2291H18.2159H18.2027H18.1895H18.1763H18.1631H18.1499H18.1367C17.8427 32.1924 17.598 32.1904 17.376 32.1416C17.1702 32.0922 17.0545 32.0053 16.9878 31.9164C16.9196 31.8255 16.8699 31.6884 16.8754 31.4842C16.881 31.2776 16.9377 31.142 17.0096 31.0546C17.0791 30.9701 17.1956 30.8907 17.3983 30.8526C17.6348 30.8136 17.8776 30.8125 18.1843 30.8125H18.2102H18.236H18.2619H18.2877H18.3136H18.3394H18.3652H18.3911H18.4169H18.4428H18.4686H18.4945H18.5203H18.5462H18.572H18.5978H18.6237H18.6495H18.6754H18.7012H18.7271H18.7529H18.7788H18.8046H18.8304H18.8563H18.8821H18.908H18.9338H18.9597H18.9855H19.0114H19.0372H19.063H19.0889H19.1147H19.1406H19.1664H19.1923H19.2181H19.2439H19.2698H19.2956H19.3215H19.3473H19.3732H19.399H19.4249H19.4507H19.4765H19.5024H19.5282H19.5541H19.5799H19.6058H19.6316H19.6575H19.6833H19.7091H19.735H19.7608H19.7867H19.8125H19.8384H19.8642H19.8901H19.9159H19.9417H19.9676H19.9934H20.0193H20.0451H20.071H20.0968H20.1227H20.1485H20.1743H20.2002H20.226H20.2519H20.2777H20.3036H20.3294H20.3553H20.3811H20.4069H20.4328H20.4586H20.4845H20.5103H20.5362H20.562H20.5879H20.6137H20.6395H20.6654H20.6912H20.7171H20.7429H20.7688H20.7946H20.8205H20.8463H20.8721H20.898H20.9238H20.9497H20.9755H21.0014H21.0272H21.0531H21.0789H21.1047H21.1306H21.1564H21.1823H21.2081H21.234H21.2598H21.2857H21.3115H21.3373H21.3632H21.389H21.4149H21.4407H21.4666H21.4924H21.5183H21.5441H21.5699H21.5958H21.6216H21.6475H21.6733H21.6992H21.725H21.7509H21.7767H21.8025H21.8284H21.8542H21.8801H21.9059H21.9318H21.9576H21.9835H22.0093H22.0351H22.061H22.0868H22.1127H22.1385H22.1644H22.1902H22.2161H22.2419H22.2677H22.2936H22.3194H22.3453H22.3711H22.397H22.4228H22.4487H22.4745H22.5003H22.5262H22.552H22.5779H22.6037H22.6296H22.6554H22.6813H22.7071H22.7329H22.7588H22.7846H22.8105H22.8363H22.8622H22.888H22.9139H22.9397H22.9655H22.9914H23.0172H23.0431H23.0689H23.0948H23.1206H23.1465H23.1723H23.1981H23.224H23.2498H23.2757H23.3015H23.3274H23.3532H23.379H23.4049H23.4307H23.4566H23.4824H23.5083H23.5341H23.56H23.5858H23.6116H23.6375H23.6633H23.6892H23.715H23.7409H23.7667H23.7926H23.8184H23.8442H23.8701H23.8959H23.9218H23.9476H23.9735H23.9993H24.0252H24.051H24.0768H24.1027H24.1285H24.1544H24.1802H24.2061H24.2319H24.2578H24.2836H24.3094H24.3353H24.3611H24.387H24.4128H24.4387H24.4645H24.4904H24.5162H24.542H24.5679H24.5937H24.6196H24.6454H24.6713H24.6971H24.723H24.7488H24.7746H24.8005H24.8263H24.8522H24.878H24.9039H24.9297H24.9556H24.9814H25.0072H25.0331H25.0589H25.0848H25.1106H25.1365H25.1623H25.1882H25.214H25.2398H25.2657H25.2915H25.3174H25.3432H25.3691H25.3949H25.4208H25.4466H25.4724H25.4983H25.5241H25.55H25.5758H25.6017H25.6275H25.6534H25.6792H25.705H25.7309H25.7567H25.7826H25.8084H25.8343H25.8601H25.886H25.9118H25.9376H25.9635H25.9893H26.0152H26.041H26.0669H26.0927H26.1186H26.1444H26.1702H26.1961H26.2219H26.2478H26.2736H26.2995H26.3253H26.3512H26.377H26.4028H26.4287H26.4545H26.4804H26.5062H26.5321H26.5579H26.5838H26.6096H26.6354H26.6613H26.6871H26.713H26.7388H26.7647H26.7905H26.8164H26.8422H26.868H26.8939H26.9197H26.9456H26.9714H26.9973H27.0231H27.049H27.0748H27.1006H27.1265H27.1523H27.1782H27.204H27.2299H27.2557H27.2816H27.3074H27.3332H27.3591H27.3849H27.4108H27.4366H27.4625H27.4883H27.5142H27.54H27.5658H27.5917H27.6175H27.6434H27.6692H27.6951H27.7209H27.7467H27.7726H27.7984H27.8243H27.8501H27.876H27.9018H27.9277H27.9535H27.9793H28.0052H28.031H28.0569H28.0827H28.1086H28.1344H28.1603H28.1861H28.2119H28.2378H28.2636H28.2895H28.3153H28.3412H28.367H28.3929H28.4187H28.4445H28.4704H28.4962H28.5221H28.5479H28.5738H28.5996H28.6255H28.6513H28.6771H28.703H28.7288H28.7547H28.7805H28.8064H28.8322H28.8581H28.8839H28.9097H28.9356H28.9614H28.9873H29.0131H29.039H29.0648H29.0907H29.1165H29.1423H29.1682H29.194H29.2199H29.2457H29.2716H29.2974H29.3233H29.3491H29.3749H29.4008H29.4266H29.4525H29.4783H29.5042H29.53H29.5559H29.5817H29.6075H29.6334H29.6592H29.6851H29.7109H29.7368H29.7626H29.7885H29.8143H29.8401H29.866H29.8918H29.9177H29.9435H29.9694H29.9952H30.0211H30.0469H30.0727H30.0986H30.1244H30.1503H30.1761H30.202H30.2278H30.2537H30.2795H30.3053H30.3312H30.357H30.3829H30.4087H30.4346H30.4604H30.4863H30.5121H30.5379H30.5638H30.5896H30.6155H30.6413H30.6672H30.693H30.7189H30.7447H30.7705H30.7964H30.8222H30.8481H30.8739H30.8998H30.9256H30.9515H30.9773H31.0031H31.029H31.0548H31.0807H31.1065H31.1324H31.1582H31.1841H31.2099H31.2357H31.2616H31.2874H31.3133H31.3391H31.365H31.3908H31.4167H31.4174H31.4181H31.4189H31.4196H31.4204H31.4211H31.4219H31.4226H31.4234H31.4241H31.4249H31.4256H31.4263H31.4271H31.4278H31.4286H31.4293H31.4301H31.4308H31.4316H31.4323H31.4331H31.4339H31.4346H31.4354H31.4361H31.4369H31.4376H31.4384H31.4391H31.4399H31.4406H31.4414H31.4421H31.4429H31.4436H31.4444H31.4452H31.4459H31.4467H31.4474H31.4482H31.4489H31.4497H31.4505H31.4512H31.452H31.4527H31.4535H31.4543H31.455H31.4558H31.4565H31.4573H31.4581H31.4588H31.4596H31.4604H31.4611H31.4619H31.4626H31.4634H31.4642H31.4649H31.4657H31.4665H31.4672H31.468H31.4688H31.4695H31.4703H31.4711H31.4718H31.4726H31.4734H31.4741H31.4749H31.4757H31.4764H31.4772H31.478H31.4787H31.4795H31.4803H31.481H31.4818H31.4826H31.4833H31.4841H31.4849H31.4857H31.4864H31.4872H31.488H31.4887H31.4895H31.4903H31.4911H31.4918H31.4926H31.4934H31.4941H31.4949H31.4957H31.4965H31.4972H31.498H31.4988H31.4996H31.5003H31.5011H31.5019H31.5027H31.5034H31.5042H31.505H31.5058H31.5066H31.5073H31.5081H31.5089H31.5097H31.5104H31.5112H31.512H31.5128H31.5135H31.5143H31.5151H31.5159H31.5167H31.5174H31.5182H31.519H31.5198H31.5206H31.5213H31.5221H31.5229H31.5237H31.5245H31.5252H31.526H31.5268H31.5276H31.5284H31.5292H31.5299H31.5307H31.5315H31.5323H31.5331H31.5338H31.5346H31.5354H31.5362H31.537H31.5378H31.5385H31.5393H31.5401H31.5409H31.5417H31.5425H31.5432H31.544H31.5448H31.5456H31.5464H31.5472H31.548H31.5487H31.5495H31.5503H31.5511H31.5519H31.5527H31.5535H31.5542H31.555H31.5558H31.5566H31.5574H31.5582H31.559H31.5597H31.5605H31.5613H31.5621H31.5629H31.5637H31.5645H31.5653H31.566H31.5668H31.5676H31.5684H31.5692H31.57H31.5708H31.5716H31.5723H31.5731H31.5739H31.5747H31.5755H31.5763H31.5771H31.5779H31.5787H31.5794H31.5802H31.581H31.5818H31.5826H31.5834H31.5842H31.585H31.5858H31.5865H31.5873H31.5881H31.5889H31.5897H31.5905H31.5913H31.5921H31.5929H31.5936H31.5944H31.5952H31.596H31.5968H31.5976H31.5984H31.5992H31.6H31.6008H31.6015H31.6023H31.6031H31.6039H31.6047H31.6055H31.6063H31.6071H31.6079H31.6087H31.6094H31.6102H31.611H31.6118H31.6126H31.6134H31.6142H31.615H31.6158H31.6166H31.6173H31.6181H31.6189H31.6197H31.6205H31.6213H31.6221H31.6229H31.6237H31.6245H31.6252H31.626H31.6268H31.6276H31.6284H31.6292H31.63H31.6308H31.6316H31.6324H31.6331H31.6339H31.6347H31.6355H31.6363H31.6371H31.6379H31.6387H31.6395H31.6403H31.641H31.6418H31.6426H31.6434H31.6442H31.645H31.6458H31.6466H31.6474H31.6481H31.6489H31.6497H31.6505H31.6513H31.6521H31.6529H31.6537H31.6545H31.6552H31.656H31.6568H31.6576H31.6584H31.6592H31.66H31.6608H31.6616H31.6623H31.6631H31.6639H31.6647H31.6655H31.6663H31.6671H31.6679H31.6686H31.6694H31.6702H31.671H31.6718H31.6726H31.6734H31.6741H31.6749H31.6757H31.6765H31.6773H31.6781H31.6789H31.6796H31.6804H31.6812H31.682H31.6828H31.6836H31.6844H31.6851H31.6859H31.6867H31.6875H31.6883H31.6891H31.6898H31.6906H31.6914H31.6922H31.693H31.6938H31.6945H31.6953H31.6961H31.6969H31.6977H31.6985H31.6992H31.7H31.7008H31.7016H31.7024H31.7031H31.7039H31.7047H31.7055H31.7063H31.7071H31.7078H31.7086H31.7094H31.7102H31.711H31.7117H31.7125H31.7133H31.7141H31.7148H31.7156H31.7164H31.7172H31.718H31.7187H31.7195H31.7203H31.7211H31.7219H31.7226H31.7234H31.7242H31.725H31.7257H31.7265H31.7273H31.7281H31.7288H31.7296H31.7304H31.7312H31.7319H31.7327H31.7335H31.7343H31.735H31.7358H31.7366H31.7374H31.7381H31.7389H31.7397H31.7404H31.7412H31.742H31.7428H31.7435H31.7443H31.7451H31.7458H31.7466H31.7474H31.7482H31.7489H31.7497H31.7505H31.7512H31.752H31.7528H31.7535H31.7543H31.7551H31.7558H31.7566H31.7574H31.7581H31.7589H31.7597H31.7604H31.7612H31.762H31.7627H31.7635H31.7643H31.765H31.7658H31.7666H31.7673H31.7681H31.7688H31.7696H31.7704H31.7711H31.7719H31.7727H31.7734H31.7742H31.7749H31.7757H31.7765H31.7772H31.778H31.7787H31.7795H31.7802H31.781H31.7818H31.7825H31.7833H31.784H31.7848H31.7855H31.7863H31.7871H31.7878H31.7886H31.7893H31.7901H31.7908H31.7916H31.7923H31.7931H31.7938H31.7946H31.7954H31.7961H31.7969H31.7976H31.7984H31.7991H31.7999H31.8006H31.8014H31.8021H31.8029H31.8036H31.8043C32.1863 30.827 32.4275 30.9281 32.5629 31.0429C32.686 31.1473 32.7622 31.2957 32.7572 31.5233C32.7522 31.7394 32.6747 31.8829 32.5531 31.9827C32.4206 32.0915 32.1881 32.1859 31.8202 32.1925Z" fill="#21BBB3" stroke="url(#paint4_linear_686_855)"/>
<path d="M17.8985 50.8034L17.9011 50.8034C20.9456 50.7875 23.9743 50.7875 27.0189 50.8034H27.0215C27.4259 50.8034 27.6723 50.8983 27.8105 51.0073C27.9354 51.1058 28.0176 51.2509 28.029 51.478C28.0326 51.7097 27.9535 51.8605 27.8257 51.9649C27.6829 52.0816 27.4239 52.1833 27.0056 52.1833H26.9966H26.9876H26.9786H26.9695H26.9605H26.9515H26.9425H26.9335H26.9245H26.9155H26.9064H26.8974H26.8884H26.8794H26.8704H26.8614H26.8524H26.8434H26.8343H26.8253H26.8163H26.8073H26.7983H26.7893H26.7803H26.7713H26.7623H26.7533H26.7442H26.7352H26.7262H26.7172H26.7082H26.6992H26.6902H26.6812H26.6722H26.6632H26.6542H26.6452H26.6362H26.6272H26.6182H26.6092H26.6002H26.5912H26.5822H26.5732H26.5642H26.5552H26.5462H26.5372H26.5282H26.5192H26.5102H26.5012H26.4922H26.4832H26.4742H26.4652H26.4562H26.4472H26.4382H26.4292H26.4202H26.4112H26.4022H26.3932H26.3842H26.3752H26.3662H26.3572H26.3482H26.3392H26.3302H26.3212H26.3122H26.3032H26.2942H26.2852H26.2762H26.2673H26.2583H26.2493H26.2403H26.2313H26.2223H26.2133H26.2043H26.1953H26.1863H26.1773H26.1684H26.1594H26.1504H26.1414H26.1324H26.1234H26.1144H26.1054H26.0964H26.0875H26.0785H26.0695H26.0605H26.0515H26.0425H26.0335H26.0245H26.0156H26.0066H25.9976H25.9886H25.9796H25.9706H25.9616H25.9527H25.9437H25.9347H25.9257H25.9167H25.9077H25.8987H25.8898H25.8808H25.8718H25.8628H25.8538H25.8448H25.8359H25.8269H25.8179H25.8089H25.7999H25.791H25.782H25.773H25.764H25.755H25.7461H25.7371H25.7281H25.7191H25.7101H25.7012H25.6922H25.6832H25.6742H25.6652H25.6563H25.6473H25.6383H25.6293H25.6203H25.6114H25.6024H25.5934H25.5844H25.5754H25.5665H25.5575H25.5485H25.5395H25.5306H25.5216H25.5126H25.5036H25.4947H25.4857H25.4767H25.4677H25.4587H25.4498H25.4408H25.4318H25.4228H25.4139H25.4049H25.3959H25.3869H25.378H25.369H25.36H25.351H25.3421H25.3331H25.3241H25.3151H25.3062H25.2972H25.2882H25.2792H25.2703H25.2613H25.2523H25.2433H25.2344H25.2254H25.2164H25.2075H25.1985H25.1895H25.1805H25.1716H25.1626H25.1536H25.1446H25.1357H25.1267H25.1177H25.1088H25.0998H25.0908H25.0818H25.0729H25.0639H25.0549H25.0459H25.037H25.028H25.019H25.0101H25.0011H24.9921H24.9831H24.9742H24.9652H24.9562H24.9473H24.9383H24.9293H24.9203H24.9114H24.9024H24.8934H24.8845H24.8755H24.8665H24.8575H24.8486H24.8396H24.8306H24.8217H24.8127H24.8037H24.7947H24.7858H24.7768H24.7678H24.7589H24.7499H24.7409H24.7319H24.723H24.714H24.705H24.6961H24.6871H24.6781H24.6691H24.6602H24.6512H24.6422H24.6333H24.6243H24.6153H24.6063H24.5974H24.5884H24.5794H24.5705H24.5615H24.5525H24.5435H24.5346H24.5256H24.5166H24.5077H24.4987H24.4897H24.4807H24.4718H24.4628H24.4538H24.4449H24.4359H24.4269H24.4179H24.409H24.4H24.391H24.3821H24.3731H24.3641H24.3551H24.3462H24.3372H24.3282H24.3193H24.3103H24.3013H24.2923H24.2834H24.2744H24.2654H24.2564H24.2475H24.2385H24.2295H24.2205H24.2116H24.2026H24.1936H24.1847H24.1757H24.1667H24.1577H24.1488H24.1398H24.1308H24.1218H24.1129H24.1039H24.0949H24.0859H24.077H24.068H24.059H24.05H24.0411H24.0321H24.0231H24.0141H24.0052H23.9962H23.9872H23.9782H23.9693H23.9603H23.9513H23.9423H23.9334H23.9244H23.9154H23.9064H23.8975H23.8885H23.8795H23.8705H23.8615H23.8526H23.8436H23.8346H23.8256H23.8167H23.8077H23.7987H23.7897H23.7807H23.7718H23.7628H23.7538H23.7448H23.7358H23.7269H23.7179H23.7089H23.6999H23.6909H23.682H23.673H23.664H23.655H23.646H23.6371H23.6281H23.6191H23.6101H23.6011H23.5922H23.5832H23.5742H23.5652H23.5562H23.5472H23.5383H23.5293H23.5203H23.5113H23.5023H23.4933H23.4844H23.4754H23.4664H23.4574H23.4484H23.4394H23.4304H23.4215H23.4125H23.4035H23.3945H23.3855H23.3765H23.3675H23.3586H23.3496H23.3406H23.3316H23.3226H23.3136H23.3046H23.2956H23.2867H23.2777H23.2687H23.2597H23.2507H23.2417H23.2327H23.2237H23.2147H23.2057H23.1968H23.1878H23.1788H23.1698H23.1608H23.1518H23.1428H23.1338H23.1248H23.1158H23.1068H23.0978H23.0888H23.0798H23.0709H23.0619H23.0529H23.0439H23.0349H23.0259H23.0169H23.0079H22.9989H22.9899H22.9809H22.9719H22.9629H22.9539H22.9449H22.9359H22.9269H22.9179H22.9089H22.8999H22.8909H22.8819H22.8729H22.8639H22.8549H22.8459H22.8369H22.8279H22.8189H22.8099H22.8009H22.7919H22.7829H22.7739H22.7649H22.7559H22.7469H22.7379H22.7289H22.7199H22.7108H22.7018H22.6928H22.6838H22.6748H22.6658H22.6568H22.6478H22.6388H22.6298H22.6208H22.6118H22.6027H22.5937H22.5847H22.5757H22.5667H22.5577H22.5487H22.5397H22.5307H22.5216H22.5126H22.5036H22.4946H22.4856H22.4766H22.4676H22.4585H22.4495H22.4405H22.4315H22.4225H22.4135H22.4044C21.8982 52.1833 21.3939 52.1851 20.8906 52.1869C19.8885 52.1904 18.8904 52.1939 17.8895 52.1834C17.4805 52.1763 17.2313 52.0811 17.0917 51.972C16.9674 51.8749 16.8864 51.7341 16.8751 51.5088C16.8714 51.2667 16.9522 51.118 17.0766 51.0173C17.2179 50.903 17.4764 50.8034 17.8985 50.8034Z" fill="#21BBB3" stroke="url(#paint5_linear_686_855)"/>
<path d="M15.0565 19.8799L15.0533 19.8799C12.5486 19.8958 10.0439 19.8958 7.52324 19.8799V19.8799H7.5201C7.13685 19.8799 6.90671 19.7838 6.78149 19.6759C6.66799 19.5781 6.58677 19.4251 6.59203 19.169C6.59728 18.9361 6.67705 18.7906 6.79135 18.6952C6.91554 18.5916 7.13824 18.5 7.50423 18.5H7.51167H7.5191H7.52654H7.53398H7.54142H7.54885H7.55629H7.56373H7.57116H7.5786H7.58604H7.59348H7.60091H7.60835H7.61579H7.62323H7.63066H7.6381H7.64554H7.65297H7.66041H7.66785H7.67529H7.68272H7.69016H7.6976H7.70503H7.71247H7.71991H7.72735H7.73478H7.74222H7.74966H7.7571H7.76453H7.77197H7.77941H7.78684H7.79428H7.80172H7.80916H7.81659H7.82403H7.83147H7.83891H7.84634H7.85378H7.86122H7.86865H7.87609H7.88353H7.89097H7.8984H7.90584H7.91328H7.92071H7.92815H7.93559H7.94303H7.95046H7.9579H7.96534H7.97278H7.98021H7.98765H7.99509H8.00252H8.00996H8.0174H8.02484H8.03227H8.03971H8.04715H8.05458H8.06202H8.06946H8.0769H8.08433H8.09177H8.09921H8.10665H8.11408H8.12152H8.12896H8.13639H8.14383H8.15127H8.15871H8.16614H8.17358H8.18102H8.18845H8.19589H8.20333H8.21077H8.2182H8.22564H8.23308H8.24052H8.24795H8.25539H8.26283H8.27026H8.2777H8.28514H8.29258H8.30001H8.30745H8.31489H8.32232H8.32976H8.3372H8.34464H8.35207H8.35951H8.36695H8.37439H8.38182H8.38926H8.3967H8.40413H8.41157H8.41901H8.42645H8.43388H8.44132H8.44876H8.4562H8.46363H8.47107H8.47851H8.48594H8.49338H8.50082H8.50826H8.51569H8.52313H8.53057H8.538H8.54544H8.55288H8.56032H8.56775H8.57519H8.58263H8.59007H8.5975H8.60494H8.61238H8.61981H8.62725H8.63469H8.64213H8.64956H8.657H8.66444H8.67188H8.67931H8.68675H8.69419H8.70162H8.70906H8.7165H8.72394H8.73137H8.73881H8.74625H8.75368H8.76112H8.76856H8.776H8.78343H8.79087H8.79831H8.80575H8.81318H8.82062H8.82806H8.83549H8.84293H8.85037H8.85781H8.86524H8.87268H8.88012H8.88755H8.89499H8.90243H8.90987H8.9173H8.92474H8.93218H8.93962H8.94705H8.95449H8.96193H8.96936H8.9768H8.98424H8.99168H8.99911H9.00655H9.01399H9.02142H9.02886H9.0363H9.04374H9.05117H9.05861H9.06605H9.07349H9.08092H9.08836H9.0958H9.10323H9.11067H9.11811H9.12555H9.13298H9.14042H9.14786H9.15529H9.16273H9.17017H9.17761H9.18504H9.19248H9.19992H9.20736H9.21479H9.22223H9.22967H9.2371H9.24454H9.25198H9.25942H9.26685H9.27429H9.28173H9.28917H9.2966H9.30404H9.31148H9.31891H9.32635H9.33379H9.34123H9.34866H9.3561H9.36354H9.37097H9.37841H9.38585H9.39329H9.40072H9.40816H9.4156H9.42304H9.43047H9.43791H9.44535H9.45278H9.46022H9.46766H9.4751H9.48253H9.48997H9.49741H9.50484H9.51228H9.51972H9.52716H9.53459H9.54203H9.54947H9.55691H9.56434H9.57178H9.57922H9.58665H9.59409H9.60153H9.60897H9.6164H9.62384H9.63128H9.63871H9.64615H9.65359H9.66103H9.66846H9.6759H9.68334H9.69078H9.69821H9.70565H9.71309H9.72052H9.72796H9.7354H9.74284H9.75027H9.75771H9.76515H9.77259H9.78002H9.78746H9.7949H9.80233H9.80977H9.81721H9.82465H9.83208H9.83952H9.84696H9.85439H9.86183H9.86927H9.87671H9.88414H9.89158H9.89902H9.90646H9.91389H9.92133H9.92877H9.9362H9.94364H9.95108H9.95852H9.96595H9.97339H9.98083H9.98826H9.9957H10.0031H10.0106H10.018H10.0255H10.0329H10.0403H10.0478H10.0552H10.0626H10.0701H10.0775H10.0849H10.0924H10.0998H10.1073H10.1147H10.1221H10.1296H10.137H10.1444H10.1519H10.1593H10.1668H10.1742H10.1816H10.1891H10.1965H10.2039H10.2114H10.2188H10.2263H10.2337H10.2411H10.2486H10.256H10.2634H10.2709H10.2783H10.2858H10.2932H10.3006H10.3081H10.3155H10.3229H10.3304H10.3378H10.3453H10.3527H10.3601H10.3676H10.375H10.3824H10.3899H10.3973H10.4047H10.4122H10.4196H10.4271H10.4345H10.4419H10.4494H10.4568H10.4642H10.4717H10.4791H10.4866H10.494H10.5014H10.5089H10.5163H10.5237H10.5312H10.5386H10.5461H10.5535H10.5609H10.5684H10.5758H10.5832H10.5907H10.5981H10.6056H10.613H10.6204H10.6279H10.6353H10.6427H10.6502H10.6576H10.6651H10.6725H10.6799H10.6874H10.6948H10.7022H10.7097H10.7171H10.7246H10.732H10.7394H10.7469H10.7543H10.7617H10.7692H10.7766H10.784H10.7915H10.7989H10.8064H10.8138H10.8212H10.8287H10.8361H10.8435H10.851H10.8584H10.8659H10.8733H10.8807H10.8882H10.8956H10.903H10.9105H10.9179H10.9254H10.9328H10.9402H10.9477H10.9551H10.9625H10.97H10.9774H10.9849H10.9923H10.9997H11.0072H11.0146H11.022H11.0295H11.0369H11.0444H11.0518H11.0592H11.0667H11.0741H11.0815H11.089H11.0964H11.1038H11.1113H11.1187H11.1262H11.1336H11.141H11.1485H11.1559H11.1633H11.1708H11.1782H11.1857H11.1931H11.2005H11.208H11.2154H11.2228H11.2303H11.2377H11.2452H11.2526H11.26H11.2675H11.2749H11.2823H11.2898H11.2972H11.3047H11.3121H11.3193H11.3266H11.3338H11.3411H11.3484H11.3556H11.3629H11.3701H11.3774H11.3846H11.3919H11.3991H11.4064H11.4136H11.4209H11.4282H11.4354H11.4427H11.4499H11.4572H11.4644H11.4717H11.479H11.4862H11.4935H11.5007H11.508H11.5153H11.5225H11.5298H11.537H11.5443H11.5516H11.5588H11.5661H11.5734H11.5806H11.5879H11.5952H11.6024H11.6097H11.6169H11.6242H11.6315H11.6387H11.646H11.6533H11.6605H11.6678H11.6751H11.6823H11.6896H11.6969H11.7042H11.7114H11.7187H11.726H11.7332H11.7405H11.7478H11.755H11.7623H11.7696H11.7769H11.7841H11.7914H11.7987H11.8059H11.8132H11.8205H11.8278H11.835H11.8423H11.8496H11.8569H11.8641H11.8714H11.8787H11.886H11.8932H11.9005H11.9078H11.9151H11.9223H11.9296H11.9369H11.9442H11.9515H11.9587H11.966H11.9733H11.9806H11.9878H11.9951H12.0024H12.0097H12.017H12.0242H12.0315H12.0388H12.0461H12.0534H12.0606H12.0679H12.0752H12.0825H12.0898H12.0971H12.1043H12.1116H12.1189H12.1262H12.1335H12.1407H12.148H12.1553H12.1626H12.1699H12.1772H12.1845H12.1917H12.199H12.2063H12.2136H12.2209H12.2282H12.2355H12.2427H12.25H12.2573H12.2646H12.2719H12.2792H12.2865H12.2937H12.301H12.3083H12.3156H12.3229H12.3302H12.3375H12.3448H12.352H12.3593H12.3666H12.3739H12.3812H12.3885H12.3958H12.4031H12.4104H12.4177H12.4249H12.4322H12.4395H12.4468H12.4541H12.4614H12.4687H12.476H12.4833H12.4906H12.4979H12.5051H12.5124H12.5197H12.527H12.5343H12.5416H12.5489H12.5562H12.5635H12.5708H12.5781H12.5854H12.5927H12.5999H12.6072H12.6145H12.6218H12.6291H12.6364H12.6437H12.651H12.6583H12.6656H12.6729H12.6802H12.6875H12.6948H12.7021H12.7094H12.7167H12.724H12.7312H12.7385H12.7458H12.7531H12.7604H12.7677H12.775H12.7823H12.7896H12.7969H12.8042H12.8115H12.8188H12.8261H12.8334H12.8407H12.848H12.8553H12.8626H12.8699H12.8772H12.8845H12.8918H12.8991H12.9064H12.9136H12.9209H12.9282H12.9355H12.9428H12.9501H12.9574H12.9647H12.972H12.9793H12.9866H12.9939H13.0012H13.0085H13.0158H13.0231H13.0304H13.0377H13.045H13.0523H13.0596H13.0669H13.0742H13.0815H13.0888H13.0961H13.1034H13.1107H13.118H13.1253H13.1326H13.1399H13.1472H13.1545H13.1618H13.1691H13.1764H13.1837H13.191H13.1983H13.2055H13.2128H13.2201H13.2274H13.2347H13.242H13.2493H13.2566H13.2639H13.2712H13.2785H13.2858H13.2931H13.3004H13.3077H13.315H13.3223H13.3296H13.3369H13.3442H13.3515H13.3588H13.3661H13.3734H13.3807H13.388H13.3953H13.4026H13.4099H13.4172H13.4245H13.4318H13.4391H13.4464H13.4537H13.461H13.4683H13.4756H13.4828H13.4901H13.4974H13.5047H13.512H13.5193H13.5266H13.5339H13.5412H13.5485H13.5558H13.5631H13.5704H13.5777H13.585H13.5923H13.5996H13.6069H13.6142H13.6215H13.6288H13.6361H13.6434H13.6506H13.6579H13.6652H13.6725H13.6798H13.6871H13.6944H13.7017H13.709H13.7163H13.7236H13.7309H13.7382H13.7455H13.7528H13.7601H13.7674H13.7746H13.7819H13.7892H13.7965H13.8038H13.8111H13.8184H13.8257H13.833H13.8403H13.8476H13.8549H13.8622H13.8694H13.8767H13.884H13.8913H13.8986H13.9059H13.9132H13.9205H13.9278H13.9351H13.9424H13.9496H13.9569H13.9642H13.9715H13.9788H13.9861H13.9934H14.0007H14.008H14.0152H14.0225H14.0298H14.0371H14.0444H14.0517H14.059H14.0663H14.0735H14.0808H14.0881H14.0954H14.1027H14.11H14.1173H14.1245H14.1318H14.1391H14.1464H14.1537H14.161H14.1683H14.1755H14.1828H14.1901H14.1974H14.2047H14.212H14.2192H14.2265H14.2338H14.2411H14.2484H14.2557H14.2629H14.2702H14.2775H14.2848H14.2921H14.2994H14.3066H14.3139H14.3212H14.3285H14.3358H14.343H14.3503H14.3576H14.3649H14.3722H14.3794H14.3867H14.394H14.4013H14.4085H14.4158H14.4231H14.4304H14.4376H14.4449H14.4522H14.4595H14.4668H14.474H14.4813H14.4886H14.4959H14.5031H14.5104H14.5177H14.525H14.5322H14.5395H14.5468H14.554H14.5613H14.5686H14.5759H14.5831H14.5904H14.5977H14.6049H14.6122H14.6195H14.6268H14.634H14.6413H14.6486H14.6558H14.6631H14.6704H14.6776H14.6849H14.6922H14.6994H14.7067H14.714H14.7212H14.7285H14.7358H14.743H14.7503H14.7576H14.7648H14.7721H14.7794H14.7866H14.7939H14.8011H14.8084H14.8157H14.8229H14.8302H14.8375H14.8447H14.852H14.8592H14.8665H14.8738H14.881H14.8883H14.8955H14.9028H14.91H14.9173H14.9246H14.9318H14.9391H14.9463H14.9536H14.9608H14.9681H14.9753H14.9826H14.9899H14.9971H15.0044H15.0116H15.0189H15.0261H15.0334H15.0406C15.4198 18.5 15.6506 18.5981 15.7775 18.7084C15.8944 18.8101 15.9739 18.9653 15.9687 19.2111C15.9635 19.4392 15.883 19.5857 15.765 19.6834C15.6371 19.7892 15.4126 19.8799 15.0565 19.8799Z" fill="#21BBB3" stroke="url(#paint6_linear_686_855)"/>
<mask id="path-8-inside-1_686_855" fill="white">
<path fill-rule="evenodd" clip-rule="evenodd" d="M0 31.0046V9.63137C0 7.29017 1.48854 5.80162 3.8442 5.80162H10.5643C11.3881 5.80162 11.8794 6.24963 11.8505 6.92887C11.8216 7.5503 11.3736 7.95495 10.6221 7.95495C9.15821 7.96458 7.7007 7.96138 6.24107 7.95817C5.51044 7.95656 4.77929 7.95495 4.04652 7.95495C2.63024 7.95495 2.16778 8.41741 2.16778 9.80479V31.1326C1.45317 31.0612 0.730195 31.0181 0 31.0046ZM21.803 71.8178H47.1276C48.4282 71.8178 48.934 71.3409 48.934 70.0402V38.0293C48.934 37.9148 48.9233 37.8003 48.9116 37.6761V37.676V37.676C48.9042 37.5963 48.8963 37.5126 48.8907 37.4223C44.0927 38.1883 39.9161 37.0032 36.4621 33.607C33.7596 30.9479 32.4011 27.6529 32.4155 23.8665C32.43 19.5454 34.1498 15.9613 37.4737 13.2154C40.7832 10.484 44.6418 9.63137 48.8329 10.3106C49.1508 8.67755 48.5872 7.95495 47.0119 7.95495H37.1847H36.332C36.332 8.13653 36.3337 8.3131 36.3353 8.48637C36.3385 8.82337 36.3415 9.14789 36.332 9.4724C36.3031 11.2355 35.2915 12.2472 33.5283 12.2472C28.2101 12.2616 22.8773 12.2616 17.559 12.2472C15.767 12.2472 14.7409 11.2066 14.7409 9.41459C14.7409 8.89486 14.7393 8.37352 14.7377 7.85165C14.7345 6.8063 14.7313 5.7588 14.7409 4.71773C14.7554 1.95743 16.7064 0.0208768 19.4956 0.00642498C22.1638 -0.00320767 24.8256 0 27.4896 0.00321152C28.8224 0.00481792 30.1557 0.00642498 31.4906 0.00642498C34.381 0.00642498 36.2887 1.88517 36.332 4.77554V5.80162H37.1558H47.1998C49.5988 5.80162 51.1163 7.27572 51.0585 9.67473C51.044 10.643 51.2608 11.1922 52.2291 11.539C52.8163 11.7554 53.3522 12.0966 53.9361 12.4684C54.1712 12.6182 54.4142 12.7729 54.6714 12.9264C54.7716 12.8147 54.8737 12.6979 54.9782 12.5784L54.9786 12.578L54.9793 12.5772L54.9795 12.577C55.2668 12.2485 55.5717 11.9 55.8998 11.5824C57.4173 10.1083 59.5851 10.0794 61.0158 11.4957C62.4321 12.9119 62.4321 15.1231 60.9435 16.6116C56.6802 20.9038 52.4025 25.1671 48.1247 29.4304C46.5784 30.9768 44.4684 30.9623 42.9076 29.4304C40.9422 27.4794 38.9767 25.5284 37.0257 23.5485C35.5082 22.0166 35.4793 19.8199 36.9245 18.3892C38.3553 16.9729 40.523 17.0018 42.0405 18.4904C42.6852 19.119 43.3165 19.7566 43.9392 20.3856L43.9393 20.3857L43.9393 20.3857L43.9401 20.3865C44.4338 20.8851 44.9222 21.3785 45.4078 21.8577C46.6526 20.6128 47.8832 19.3787 49.1154 18.1429L49.1226 18.1357L49.124 18.1343L49.1254 18.1329L49.1278 18.1304L49.1321 18.1261C50.3692 16.8854 51.608 15.6429 52.8649 14.386C52.7537 14.3178 52.638 14.2443 52.518 14.1681L52.518 14.168C52.1549 13.9373 51.7531 13.682 51.3186 13.4756C43.7025 9.74698 34.8435 15.0942 34.5544 23.563C34.3521 29.546 39.0779 34.9366 44.9309 35.428C51.3619 35.9627 56.8248 31.7138 57.6485 25.5429C57.6864 25.2963 57.7119 25.0436 57.7372 24.7928C57.7505 24.6613 57.7637 24.5304 57.7786 24.4012C57.8508 23.6641 58.2699 23.245 58.9058 23.2595C59.5417 23.2884 59.9608 23.7508 59.9319 24.4879C59.8018 27.3349 58.8914 29.9073 57.1716 32.1763C55.7409 34.0839 53.9344 35.5436 51.7377 36.4685C51.1885 36.6997 51.0585 36.9888 51.0585 37.5379C51.0639 41.5322 51.0632 45.5244 51.0625 49.5161V49.5162V49.5164V49.5166V49.5168V49.5169V49.5171V49.5173V49.5174V49.5176V49.5178C51.0614 56.1698 51.0603 62.8203 51.0874 69.4766C51.1018 71.6877 50.3792 73.2485 48.2259 74H20.2377C20.795 73.3006 21.3176 72.5723 21.803 71.8178ZM33.3983 10.0938H25.5365C24.679 10.0938 23.8199 10.0906 22.9608 10.0874C21.2426 10.081 19.5245 10.0746 17.8192 10.0938C17.1399 10.1083 16.8653 9.92041 16.8942 9.19781C16.9203 8.30452 16.915 7.40601 16.9098 6.50855V6.5084V6.50825V6.5081V6.50795V6.50779V6.50764V6.50749V6.50734V6.50719V6.50704C16.9064 5.90952 16.9029 5.31247 16.9087 4.71773C16.9231 3.17138 17.9059 2.17421 19.4378 2.17421C23.4987 2.15975 27.5742 2.15975 31.6351 2.17421C33.1237 2.17421 34.1064 3.09913 34.1498 4.57322C34.1758 5.54422 34.1706 6.51002 34.1654 7.47685C34.1619 8.12169 34.1584 8.76698 34.1642 9.41459C34.1642 9.97822 33.8896 10.0938 33.3983 10.0938ZM58.9058 12.6952C59.5273 12.8975 59.8307 13.3455 59.903 14.1837C59.8662 14.2481 59.8294 14.3345 59.7884 14.4307L59.7884 14.4307C59.7006 14.6367 59.5936 14.8879 59.4261 15.0653C55.1628 19.3575 50.885 23.6352 46.6073 27.8985C45.9136 28.5778 45.1332 28.5778 44.4395 27.8841C42.4596 25.9331 40.5086 23.9676 38.5576 22.0022C37.9073 21.3374 37.8928 20.5425 38.4709 19.95C39.049 19.3575 39.8583 19.3719 40.523 20.0223C41.2662 20.7489 42.0046 21.4897 42.7438 22.2312C43.2982 22.7874 43.8531 23.3441 44.4106 23.8954C45.3211 24.8058 45.7402 24.8058 46.6362 23.9098L57.2583 13.2877C57.7208 12.8252 58.1977 12.4639 58.9058 12.6952Z"/>
</mask>
<path fill-rule="evenodd" clip-rule="evenodd" d="M0 31.0046V9.63137C0 7.29017 1.48854 5.80162 3.8442 5.80162H10.5643C11.3881 5.80162 11.8794 6.24963 11.8505 6.92887C11.8216 7.5503 11.3736 7.95495 10.6221 7.95495C9.15821 7.96458 7.7007 7.96138 6.24107 7.95817C5.51044 7.95656 4.77929 7.95495 4.04652 7.95495C2.63024 7.95495 2.16778 8.41741 2.16778 9.80479V31.1326C1.45317 31.0612 0.730195 31.0181 0 31.0046ZM21.803 71.8178H47.1276C48.4282 71.8178 48.934 71.3409 48.934 70.0402V38.0293C48.934 37.9148 48.9233 37.8003 48.9116 37.6761V37.676V37.676C48.9042 37.5963 48.8963 37.5126 48.8907 37.4223C44.0927 38.1883 39.9161 37.0032 36.4621 33.607C33.7596 30.9479 32.4011 27.6529 32.4155 23.8665C32.43 19.5454 34.1498 15.9613 37.4737 13.2154C40.7832 10.484 44.6418 9.63137 48.8329 10.3106C49.1508 8.67755 48.5872 7.95495 47.0119 7.95495H37.1847H36.332C36.332 8.13653 36.3337 8.3131 36.3353 8.48637C36.3385 8.82337 36.3415 9.14789 36.332 9.4724C36.3031 11.2355 35.2915 12.2472 33.5283 12.2472C28.2101 12.2616 22.8773 12.2616 17.559 12.2472C15.767 12.2472 14.7409 11.2066 14.7409 9.41459C14.7409 8.89486 14.7393 8.37352 14.7377 7.85165C14.7345 6.8063 14.7313 5.7588 14.7409 4.71773C14.7554 1.95743 16.7064 0.0208768 19.4956 0.00642498C22.1638 -0.00320767 24.8256 0 27.4896 0.00321152C28.8224 0.00481792 30.1557 0.00642498 31.4906 0.00642498C34.381 0.00642498 36.2887 1.88517 36.332 4.77554V5.80162H37.1558H47.1998C49.5988 5.80162 51.1163 7.27572 51.0585 9.67473C51.044 10.643 51.2608 11.1922 52.2291 11.539C52.8163 11.7554 53.3522 12.0966 53.9361 12.4684C54.1712 12.6182 54.4142 12.7729 54.6714 12.9264C54.7716 12.8147 54.8737 12.6979 54.9782 12.5784L54.9786 12.578L54.9793 12.5772L54.9795 12.577C55.2668 12.2485 55.5717 11.9 55.8998 11.5824C57.4173 10.1083 59.5851 10.0794 61.0158 11.4957C62.4321 12.9119 62.4321 15.1231 60.9435 16.6116C56.6802 20.9038 52.4025 25.1671 48.1247 29.4304C46.5784 30.9768 44.4684 30.9623 42.9076 29.4304C40.9422 27.4794 38.9767 25.5284 37.0257 23.5485C35.5082 22.0166 35.4793 19.8199 36.9245 18.3892C38.3553 16.9729 40.523 17.0018 42.0405 18.4904C42.6852 19.119 43.3165 19.7566 43.9392 20.3856L43.9393 20.3857L43.9393 20.3857L43.9401 20.3865C44.4338 20.8851 44.9222 21.3785 45.4078 21.8577C46.6526 20.6128 47.8832 19.3787 49.1154 18.1429L49.1226 18.1357L49.124 18.1343L49.1254 18.1329L49.1278 18.1304L49.1321 18.1261C50.3692 16.8854 51.608 15.6429 52.8649 14.386C52.7537 14.3178 52.638 14.2443 52.518 14.1681L52.518 14.168C52.1549 13.9373 51.7531 13.682 51.3186 13.4756C43.7025 9.74698 34.8435 15.0942 34.5544 23.563C34.3521 29.546 39.0779 34.9366 44.9309 35.428C51.3619 35.9627 56.8248 31.7138 57.6485 25.5429C57.6864 25.2963 57.7119 25.0436 57.7372 24.7928C57.7505 24.6613 57.7637 24.5304 57.7786 24.4012C57.8508 23.6641 58.2699 23.245 58.9058 23.2595C59.5417 23.2884 59.9608 23.7508 59.9319 24.4879C59.8018 27.3349 58.8914 29.9073 57.1716 32.1763C55.7409 34.0839 53.9344 35.5436 51.7377 36.4685C51.1885 36.6997 51.0585 36.9888 51.0585 37.5379C51.0639 41.5322 51.0632 45.5244 51.0625 49.5161V49.5162V49.5164V49.5166V49.5168V49.5169V49.5171V49.5173V49.5174V49.5176V49.5178C51.0614 56.1698 51.0603 62.8203 51.0874 69.4766C51.1018 71.6877 50.3792 73.2485 48.2259 74H20.2377C20.795 73.3006 21.3176 72.5723 21.803 71.8178ZM33.3983 10.0938H25.5365C24.679 10.0938 23.8199 10.0906 22.9608 10.0874C21.2426 10.081 19.5245 10.0746 17.8192 10.0938C17.1399 10.1083 16.8653 9.92041 16.8942 9.19781C16.9203 8.30452 16.915 7.40601 16.9098 6.50855V6.5084V6.50825V6.5081V6.50795V6.50779V6.50764V6.50749V6.50734V6.50719V6.50704C16.9064 5.90952 16.9029 5.31247 16.9087 4.71773C16.9231 3.17138 17.9059 2.17421 19.4378 2.17421C23.4987 2.15975 27.5742 2.15975 31.6351 2.17421C33.1237 2.17421 34.1064 3.09913 34.1498 4.57322C34.1758 5.54422 34.1706 6.51002 34.1654 7.47685C34.1619 8.12169 34.1584 8.76698 34.1642 9.41459C34.1642 9.97822 33.8896 10.0938 33.3983 10.0938ZM58.9058 12.6952C59.5273 12.8975 59.8307 13.3455 59.903 14.1837C59.8662 14.2481 59.8294 14.3345 59.7884 14.4307L59.7884 14.4307C59.7006 14.6367 59.5936 14.8879 59.4261 15.0653C55.1628 19.3575 50.885 23.6352 46.6073 27.8985C45.9136 28.5778 45.1332 28.5778 44.4395 27.8841C42.4596 25.9331 40.5086 23.9676 38.5576 22.0022C37.9073 21.3374 37.8928 20.5425 38.4709 19.95C39.049 19.3575 39.8583 19.3719 40.523 20.0223C41.2662 20.7489 42.0046 21.4897 42.7438 22.2312C43.2982 22.7874 43.8531 23.3441 44.4106 23.8954C45.3211 24.8058 45.7402 24.8058 46.6362 23.9098L57.2583 13.2877C57.7208 12.8252 58.1977 12.4639 58.9058 12.6952Z" fill="#21BBB3"/>
<path d="M0 31.0046H-1V31.9863L-0.018501 32.0045L0 31.0046ZM11.8505 6.92887L12.8495 6.97533L12.8496 6.97139L11.8505 6.92887ZM10.6221 7.95495L10.6221 6.95493L10.6155 6.95498L10.6221 7.95495ZM6.24107 7.95817L6.24326 6.95817L6.24326 6.95817L6.24107 7.95817ZM2.16778 31.1326L2.06831 32.1277L3.16778 32.2376V31.1326H2.16778ZM21.803 71.8178V70.8178H21.2572L20.962 71.2767L21.803 71.8178ZM48.9116 37.6761H47.9116V37.7228L47.916 37.7694L48.9116 37.6761ZM48.9116 37.676H49.9116V37.6292L49.9073 37.5826L48.9116 37.676ZM48.8907 37.4223L49.8887 37.36L49.8201 36.2613L48.733 36.4348L48.8907 37.4223ZM36.4621 33.607L35.7607 34.3198L35.761 34.3201L36.4621 33.607ZM32.4155 23.8665L33.4155 23.8703L33.4155 23.8698L32.4155 23.8665ZM37.4737 13.2154L36.8372 12.4442L36.8368 12.4445L37.4737 13.2154ZM48.8329 10.3106L48.6729 11.2977L49.6293 11.4527L49.8144 10.5017L48.8329 10.3106ZM36.332 7.95495V6.95495H35.332V7.95495H36.332ZM36.3353 8.48637L37.3353 8.47693L37.3353 8.47693L36.3353 8.48637ZM36.332 9.4724L35.3324 9.443L35.3321 9.45601L36.332 9.4724ZM33.5283 12.2472L33.5283 11.2472L33.5256 11.2472L33.5283 12.2472ZM17.559 12.2472L17.5617 11.2472H17.559V12.2472ZM14.7377 7.85165L15.7377 7.84858L15.7377 7.84858L14.7377 7.85165ZM14.7409 4.71773L15.7409 4.72699L15.7409 4.72297L14.7409 4.71773ZM19.4956 0.00642498L19.492 -0.99357L19.4904 -0.993562L19.4956 0.00642498ZM27.4896 0.00321152L27.4884 1.00321L27.4884 1.00321L27.4896 0.00321152ZM36.332 4.77554H37.332V4.76804L37.3319 4.76054L36.332 4.77554ZM36.332 5.80162H35.332V6.80162H36.332V5.80162ZM51.0585 9.67473L50.0587 9.65063L50.0586 9.6598L51.0585 9.67473ZM52.2291 11.539L52.5748 10.6006L52.5663 10.5976L52.2291 11.539ZM53.9361 12.4684L54.4732 11.6249L54.4732 11.6249L53.9361 12.4684ZM54.6714 12.9264L54.159 13.7851L54.8662 14.2072L55.416 13.5939L54.6714 12.9264ZM54.9782 12.5784L54.2288 11.9163L54.2255 11.9201L54.9782 12.5784ZM54.9786 12.578L55.7281 13.2401L55.7325 13.235L54.9786 12.578ZM54.9793 12.5772L54.2318 11.9128L54.2254 11.9202L54.9793 12.5772ZM54.9795 12.577L55.7269 13.2414L55.7322 13.2354L54.9795 12.577ZM55.8998 11.5824L56.5953 12.301L56.5966 12.2997L55.8998 11.5824ZM61.0158 11.4957L61.7229 10.7885L61.7193 10.785L61.0158 11.4957ZM60.9435 16.6116L60.2364 15.9045L60.2341 15.9069L60.9435 16.6116ZM48.1247 29.4304L47.4188 28.7221L47.4176 28.7233L48.1247 29.4304ZM42.9076 29.4304L42.2031 30.1402L42.2071 30.1441L42.9076 29.4304ZM37.0257 23.5485L37.738 22.8466L37.7361 22.8448L37.0257 23.5485ZM36.9245 18.3892L36.221 17.6785L36.221 17.6786L36.9245 18.3892ZM42.0405 18.4904L41.3402 19.2042L41.3424 19.2064L42.0405 18.4904ZM43.9392 20.3856L44.7201 19.7609L44.6871 19.7196L44.6499 19.6821L43.9392 20.3856ZM43.9393 20.3857L43.1584 21.0104L43.1907 21.0507L43.227 21.0875L43.9393 20.3857ZM43.9401 20.3865L43.2277 21.0883L43.2294 21.09L43.9401 20.3865ZM45.4078 21.8577L44.7054 22.5694L45.4124 23.2672L46.1149 22.5648L45.4078 21.8577ZM49.1154 18.1429L49.8235 18.8489L49.8236 18.8488L49.1154 18.1429ZM49.1226 18.1357L49.8308 18.8416L49.8311 18.8413L49.1226 18.1357ZM49.124 18.1343L48.4154 17.4286L48.4154 17.4286L49.124 18.1343ZM49.1254 18.1329L49.8339 18.8385L49.8341 18.8383L49.1254 18.1329ZM49.1278 18.1304L48.4202 17.4238L48.419 17.425L49.1278 18.1304ZM49.1321 18.1261L49.8397 18.8327L49.8403 18.8321L49.1321 18.1261ZM52.8649 14.386L53.5721 15.0931L54.4689 14.1962L53.3875 13.5334L52.8649 14.386ZM52.518 14.1681L53.0544 13.3241L53.0383 13.3139L53.0219 13.3043L52.518 14.1681ZM52.518 14.168L51.9816 15.012L51.9977 15.0222L52.0141 15.0318L52.518 14.168ZM51.3186 13.4756L50.8789 14.3738L50.8895 14.3788L51.3186 13.4756ZM34.5544 23.563L33.555 23.5289L33.555 23.5292L34.5544 23.563ZM44.9309 35.428L44.8472 36.4245L44.848 36.4245L44.9309 35.428ZM57.6485 25.5429L56.6601 25.3908L56.6586 25.4007L56.6573 25.4106L57.6485 25.5429ZM57.7372 24.7928L58.7322 24.8931L58.7322 24.8931L57.7372 24.7928ZM57.7786 24.4012L58.772 24.5158L58.773 24.5073L58.7738 24.4988L57.7786 24.4012ZM58.9058 23.2595L58.9512 22.2605L58.9399 22.26L58.9286 22.2597L58.9058 23.2595ZM59.9319 24.4879L60.9309 24.5335L60.9311 24.5271L59.9319 24.4879ZM57.1716 32.1763L56.3747 31.5722L56.3716 31.5763L57.1716 32.1763ZM51.7377 36.4685L51.3496 35.5469L51.3496 35.5469L51.7377 36.4685ZM51.0585 37.5379L50.0585 37.5379L50.0585 37.5393L51.0585 37.5379ZM51.0625 49.5161L50.0625 49.5159V49.5161H51.0625ZM51.0625 49.5178L52.0625 49.518V49.5178H51.0625ZM51.0874 69.4766L50.0874 69.4806L50.0874 69.4831L51.0874 69.4766ZM48.2259 74V75H48.3954L48.5554 74.9442L48.2259 74ZM20.2377 74L19.4556 73.3769L18.1625 75H20.2377V74ZM22.9608 10.0874L22.9646 9.08741L22.9646 9.08741L22.9608 10.0874ZM17.8192 10.0938L17.8079 9.09384L17.7979 9.09406L17.8192 10.0938ZM16.8942 9.19781L17.8935 9.23778L17.8938 9.22693L16.8942 9.19781ZM16.9098 6.50855L15.9098 6.50855L15.9099 6.51435L16.9098 6.50855ZM16.9098 6.50704L17.9099 6.50704L17.9098 6.50123L16.9098 6.50704ZM16.9087 4.71773L17.9086 4.72745L17.9086 4.72708L16.9087 4.71773ZM19.4378 2.17421L19.4378 3.17421L19.4413 3.1742L19.4378 2.17421ZM31.6351 2.17421L31.6316 3.17421H31.6351V2.17421ZM34.1498 4.57322L35.1494 4.54644L35.1493 4.54382L34.1498 4.57322ZM34.1654 7.47685L35.1654 7.48224L35.1654 7.48224L34.1654 7.47685ZM34.1642 9.41459L35.1643 9.41459L35.1642 9.40566L34.1642 9.41459ZM59.903 14.1837L60.7713 14.6798L60.9261 14.4088L60.8993 14.0978L59.903 14.1837ZM58.9058 12.6952L58.5954 13.6458L58.5962 13.646L58.9058 12.6952ZM59.7884 14.4307L58.8685 14.0387L58.8641 14.0489L58.8599 14.0593L59.7884 14.4307ZM59.7884 14.4307L60.7084 14.8227L60.7127 14.8124L60.7169 14.8021L59.7884 14.4307ZM59.4261 15.0653L60.1356 15.77L60.1445 15.7611L60.1531 15.7519L59.4261 15.0653ZM46.6073 27.8985L47.3069 28.6131L47.3132 28.6068L46.6073 27.8985ZM44.4395 27.8841L45.1466 27.177L45.1414 27.1718L44.4395 27.8841ZM38.5576 22.0022L37.8427 22.7015L37.8479 22.7067L38.5576 22.0022ZM38.4709 19.95L37.7551 19.2517L37.7551 19.2517L38.4709 19.95ZM40.523 20.0223L39.8238 20.7371L39.8239 20.7373L40.523 20.0223ZM42.7438 22.2312L43.452 21.5252L43.452 21.5252L42.7438 22.2312ZM44.4106 23.8954L45.1177 23.1883L45.1137 23.1843L44.4106 23.8954ZM46.6362 23.9098L47.3433 24.6169L47.3433 24.6169L46.6362 23.9098ZM57.2583 13.2877L57.9654 13.9948L57.9654 13.9948L57.2583 13.2877ZM1 31.0046V9.63137H-1V31.0046H1ZM1 9.63137C1 8.67607 1.29931 7.99097 1.74487 7.54661C2.19067 7.10202 2.87999 6.80162 3.8442 6.80162V4.80162C2.45275 4.80162 1.21997 5.2455 0.332582 6.13048C-0.555037 7.01569 -1 8.24546 -1 9.63137H1ZM3.8442 6.80162H10.5643V4.80162H3.8442V6.80162ZM10.5643 6.80162C10.8038 6.80162 10.8722 6.86626 10.8639 6.85895C10.8594 6.8549 10.8523 6.84558 10.8488 6.83679C10.8459 6.8296 10.8533 6.84237 10.8514 6.88636L12.8496 6.97139C12.8755 6.36408 12.6616 5.77964 12.1904 5.36212C11.7378 4.96099 11.1486 4.80162 10.5643 4.80162V6.80162ZM10.8516 6.88241C10.8497 6.92251 10.8424 6.93603 10.844 6.93251C10.8463 6.92755 10.8521 6.91949 10.8581 6.91431C10.8724 6.90209 10.823 6.95495 10.6221 6.95495V8.95495C11.1727 8.95495 11.7231 8.80549 12.1565 8.43559C12.6013 8.05597 12.8238 7.52763 12.8495 6.97533L10.8516 6.88241ZM10.6155 6.95498C9.15674 6.96457 7.70362 6.96138 6.24326 6.95817L6.23887 8.95817C7.69779 8.96138 9.15967 8.9646 10.6287 8.95493L10.6155 6.95498ZM6.24326 6.95817C5.51282 6.95656 4.78057 6.95495 4.04652 6.95495V8.95495C4.77801 8.95495 5.50806 8.95656 6.23887 8.95817L6.24326 6.95817ZM4.04652 6.95495C3.28728 6.95495 2.46336 7.06539 1.87334 7.64812C1.2795 8.23464 1.16778 9.0561 1.16778 9.80479H3.16778C3.16778 9.50515 3.19373 9.31447 3.22647 9.19527C3.24192 9.139 3.25674 9.1068 3.26567 9.09052C3.27387 9.07556 3.27851 9.07132 3.27875 9.07109C3.27904 9.0708 3.2842 9.06539 3.30135 9.05622C3.31982 9.04634 3.35482 9.03077 3.41448 9.01477C3.54029 8.98103 3.73867 8.95495 4.04652 8.95495V6.95495ZM1.16778 9.80479V31.1326H3.16778V9.80479H1.16778ZM-0.018501 32.0045C0.68461 32.0175 1.38057 32.0589 2.06831 32.1277L2.26725 30.1376C1.52577 30.0635 0.775779 30.0188 0.018501 30.0048L-0.018501 32.0045ZM21.803 72.8178H47.1276V70.8178H21.803V72.8178ZM47.1276 72.8178C47.8572 72.8178 48.6421 72.6929 49.2166 72.1327C49.7974 71.5665 49.934 70.781 49.934 70.0402H47.934C47.934 70.3072 47.9073 70.4771 47.8762 70.5814C47.8479 70.6766 47.8216 70.6996 47.8205 70.7007C47.8169 70.7042 47.6986 70.8178 47.1276 70.8178V72.8178ZM49.934 70.0402V38.0293H47.934V70.0402H49.934ZM49.934 38.0293C49.934 37.8598 49.9181 37.698 49.9073 37.5827L47.916 37.7694C47.9285 37.9027 47.934 37.9698 47.934 38.0293H49.934ZM49.9116 37.6761V37.676H47.9116V37.6761H49.9116ZM49.9116 37.676V37.676H47.9116V37.676H49.9116ZM49.9073 37.5826C49.8997 37.5014 49.8933 37.4325 49.8887 37.36L47.8926 37.4847C47.8994 37.5927 47.9087 37.6912 47.916 37.7694L49.9073 37.5826ZM48.733 36.4348C44.2234 37.1547 40.3731 36.0502 37.1632 32.894L35.761 34.3201C39.459 37.9562 43.962 39.2218 49.0483 38.4098L48.733 36.4348ZM37.1634 32.8942C34.6548 30.4258 33.4021 27.3899 33.4155 23.8703L31.4156 23.8626C31.4001 27.9158 32.8644 31.47 35.7607 34.3198L37.1634 32.8942ZM33.4155 23.8698C33.429 19.8495 35.0128 16.5454 38.1106 13.9864L36.8368 12.4445C33.2867 15.3772 31.431 19.2412 31.4156 23.8631L33.4155 23.8698ZM38.1102 13.9867C41.1728 11.4591 44.7326 10.6591 48.6729 11.2977L48.9929 9.32349C44.5511 8.60361 40.3936 9.509 36.8372 12.4442L38.1102 13.9867ZM49.8144 10.5017C49.9892 9.60394 49.993 8.6439 49.4229 7.90799C48.8382 7.15313 47.9045 6.95495 47.0119 6.95495V8.95495C47.6946 8.95495 47.8304 9.11807 47.8418 9.13278C47.8679 9.16643 47.9945 9.38422 47.8513 10.1195L49.8144 10.5017ZM47.0119 6.95495H37.1847V8.95495H47.0119V6.95495ZM37.1847 6.95495H36.332V8.95495H37.1847V6.95495ZM35.332 7.95495C35.332 8.14199 35.3337 8.32321 35.3354 8.49582L37.3353 8.47693C37.3336 8.30299 37.332 8.13106 37.332 7.95495H35.332ZM35.3354 8.49581C35.3386 8.83622 35.3413 9.14119 35.3324 9.443L37.3316 9.5018C37.3418 9.15458 37.3384 8.81053 37.3353 8.47693L35.3354 8.49581ZM35.3321 9.45601C35.3207 10.1521 35.1205 10.5686 34.8761 10.8112C34.633 11.0524 34.2197 11.2472 33.5283 11.2472V13.2472C34.6001 13.2472 35.5742 12.9361 36.2849 12.2307C36.9944 11.5267 37.3144 10.5558 37.3319 9.48879L35.3321 9.45601ZM33.5256 11.2472C28.2091 11.2616 22.8782 11.2616 17.5617 11.2472L17.5563 13.2472C22.8764 13.2616 28.211 13.2616 33.5311 13.2472L33.5256 11.2472ZM17.559 11.2472C16.8554 11.2472 16.434 11.0466 16.1877 10.7984C15.9403 10.5492 15.7409 10.1222 15.7409 9.41459H13.7409C13.7409 10.499 14.0546 11.4883 14.7682 12.2073C15.4829 12.9275 16.4706 13.2472 17.559 13.2472V11.2472ZM15.7409 9.41459C15.7409 8.89306 15.7393 8.37019 15.7377 7.84858L13.7377 7.85473C13.7393 8.37686 13.7409 8.89665 13.7409 9.41459H15.7409ZM15.7377 7.84858C15.7345 6.80217 15.7313 5.76086 15.7409 4.72699L13.741 4.70848C13.7312 5.75675 13.7345 6.81043 13.7377 7.85473L15.7377 7.84858ZM15.7409 4.72297C15.7469 3.58395 16.1479 2.67094 16.7817 2.04255C17.4162 1.4136 18.3419 1.01242 19.5008 1.00641L19.4904 -0.993562C17.86 -0.985114 16.4157 -0.410793 15.3737 0.622223C14.3311 1.6558 13.7494 3.09121 13.7409 4.7125L15.7409 4.72297ZM19.4992 1.00642C22.1646 0.996796 24.824 0.999999 27.4884 1.00321L27.4908 -0.996788C24.8272 -0.999999 22.163 -1.00321 19.492 -0.993569L19.4992 1.00642ZM27.4884 1.00321C28.8211 1.00482 30.155 1.00642 31.4906 1.00642V-0.993575C30.1564 -0.993575 28.8237 -0.995181 27.4908 -0.996788L27.4884 1.00321ZM31.4906 1.00642C32.7147 1.00642 33.6483 1.4 34.2772 2.01952C34.9061 2.63903 35.3138 3.56652 35.3321 4.79054L37.3319 4.76054C37.3069 3.09419 36.739 1.63713 35.6807 0.594667C34.6224 -0.447779 33.157 -0.993575 31.4906 -0.993575V1.00642ZM35.332 4.77554V5.80162H37.332V4.77554H35.332ZM36.332 6.80162H37.1558V4.80162H36.332V6.80162ZM37.1558 6.80162H47.1998V4.80162H37.1558V6.80162ZM47.1998 6.80162C48.1949 6.80162 48.8992 7.10389 49.3452 7.54756C49.7874 7.98738 50.0823 8.67167 50.0588 9.65064L52.0582 9.69882C52.0924 8.27877 51.6575 7.02651 50.7556 6.12954C49.8577 5.2364 48.6037 4.80162 47.1998 4.80162V6.80162ZM50.0586 9.6598C50.0506 10.1937 50.0971 10.797 50.4083 11.3383C50.7393 11.9142 51.2716 12.2583 51.8918 12.4804L52.5663 10.5976C52.2183 10.4729 52.158 10.369 52.1422 10.3415C52.1065 10.2794 52.0519 10.124 52.0583 9.68965L50.0586 9.6598ZM51.8834 12.4774C52.3519 12.65 52.7964 12.9282 53.3989 13.3119L54.4732 11.6249C53.9079 11.2649 53.2808 10.8608 52.5748 10.6007L51.8834 12.4774ZM53.3989 13.3119C53.6325 13.4607 53.8874 13.623 54.159 13.7851L55.1839 12.0677C54.941 11.9227 54.7099 11.7757 54.4732 11.6249L53.3989 13.3119ZM55.416 13.5939C55.5209 13.4769 55.6272 13.3554 55.7309 13.2368L54.2255 11.9201C54.1202 12.0404 54.0222 12.1525 53.9269 12.2588L55.416 13.5939ZM55.7277 13.2405L55.7281 13.24L54.2292 11.9159L54.2288 11.9163L55.7277 13.2405ZM55.7325 13.235L55.7331 13.2343L54.2254 11.9202L54.2248 11.9209L55.7325 13.235ZM55.7267 13.2416L55.7269 13.2414L54.232 11.9127L54.2319 11.9129L55.7267 13.2416ZM55.7322 13.2354C56.0239 12.9018 56.3019 12.5848 56.5953 12.301L55.2044 10.8638C54.8414 11.2151 54.5096 11.5953 54.2267 11.9187L55.7322 13.2354ZM56.5966 12.2997C57.7513 11.178 59.2957 11.2 60.3123 12.2063L61.7193 10.785C59.8745 8.95877 57.0833 9.03855 55.2031 10.8651L56.5966 12.2997ZM60.3087 12.2028C61.3214 13.2154 61.3477 14.7933 60.2364 15.9045L61.6506 17.3187C63.5165 15.4529 63.5428 12.6084 61.7229 10.7886L60.3087 12.2028ZM60.2341 15.9069C55.9728 20.197 51.6969 24.4585 47.4188 28.7221L48.8306 30.1387C53.1081 25.8757 57.3876 21.6106 61.653 17.3163L60.2341 15.9069ZM47.4176 28.7233C46.8112 29.3298 46.1449 29.586 45.5236 29.5848C44.9003 29.5836 44.2256 29.3229 43.6081 28.7168L42.2071 30.1441C43.1504 31.0699 44.3111 31.5824 45.5196 31.5848C46.7301 31.5872 47.8919 31.0775 48.8318 30.1375L47.4176 28.7233ZM43.6121 28.7207C41.646 26.7691 39.6845 24.822 37.738 22.8466L36.3134 24.2504C38.2689 26.2349 40.2383 28.1898 42.2031 30.1401L43.6121 28.7207ZM37.7361 22.8448C36.5772 21.6748 36.6053 20.1124 37.6281 19.0999L36.221 17.6786C34.3533 19.5275 34.4393 22.3585 36.3152 24.2523L37.7361 22.8448ZM37.628 19.0999C38.6438 18.0943 40.1858 18.0718 41.3402 19.2042L42.7408 17.7765C40.8603 15.9319 38.0667 15.8515 36.221 17.6785L37.628 19.0999ZM41.3424 19.2064C41.9798 19.8278 42.6048 20.4591 43.2286 21.0892L44.6499 19.6821C44.0281 19.054 43.3907 18.4102 42.7386 17.7744L41.3424 19.2064ZM43.1584 21.0103L43.1584 21.0103L44.7201 19.761L44.7201 19.7609L43.1584 21.0103ZM43.1584 21.0103L43.1584 21.0104L44.7202 19.761L44.7201 19.761L43.1584 21.0103ZM43.227 21.0875L43.2277 21.0883L44.6524 19.6846L44.6516 19.6838L43.227 21.0875ZM43.2294 21.09C43.7224 21.588 44.2149 22.0855 44.7054 22.5694L46.1102 21.1459C45.6295 20.6715 45.1452 20.1823 44.6507 19.6829L43.2294 21.09ZM46.1149 22.5648C47.3603 21.3193 48.5914 20.0847 49.8235 18.8489L48.4073 17.4368C47.1749 18.6727 45.9449 19.9063 44.7007 21.1505L46.1149 22.5648ZM49.8236 18.8488L49.8308 18.8416L48.4143 17.4297L48.4072 17.4369L49.8236 18.8488ZM49.8311 18.8413L49.8325 18.8399L48.4154 17.4286L48.414 17.43L49.8311 18.8413ZM49.8325 18.8399L49.8339 18.8385L48.4168 17.4272L48.4154 17.4286L49.8325 18.8399ZM49.8341 18.8383L49.8365 18.8359L48.419 17.425L48.4166 17.4274L49.8341 18.8383ZM49.8354 18.8371L49.8397 18.8327L48.4246 17.4194L48.4202 17.4238L49.8354 18.8371ZM49.8403 18.8321C51.0774 17.5914 52.3157 16.3494 53.5721 15.0931L52.1578 13.6789C50.9003 14.9364 49.661 16.1794 48.424 17.42L49.8403 18.8321ZM53.3875 13.5334C53.2844 13.4703 53.1758 13.4012 53.0544 13.3241L51.9816 15.0121C52.1001 15.0874 52.2229 15.1654 52.3424 15.2386L53.3875 13.5334ZM53.0219 13.3043L53.0218 13.3043L52.0141 15.0318L52.0141 15.0318L53.0219 13.3043ZM53.0543 13.3241C52.6984 13.0978 52.2463 12.8091 51.7477 12.5723L50.8895 14.3788C51.2599 14.5548 51.6115 14.7768 51.9816 15.012L53.0543 13.3241ZM51.7583 12.5774C43.4879 8.52853 33.8686 14.3391 33.555 23.5289L35.5538 23.5971C35.8183 15.8492 43.917 10.9654 50.8789 14.3737L51.7583 12.5774ZM33.555 23.5292C33.3351 30.0307 38.4492 35.8873 44.8472 36.4245L45.0145 34.4315C39.7065 33.9859 35.3691 29.0614 35.5539 23.5968L33.555 23.5292ZM44.848 36.4245C51.7792 37.0008 57.7414 32.4047 58.6397 25.6752L56.6573 25.4106C55.9081 31.023 50.9447 34.9245 45.0137 34.4314L44.848 36.4245ZM58.6369 25.6949C58.6795 25.4182 58.7074 25.1393 58.7322 24.8931L56.7423 24.6925C56.7165 24.9479 56.6934 25.1745 56.6601 25.3908L58.6369 25.6949ZM58.7322 24.8931C58.7456 24.7604 58.758 24.6367 58.772 24.5158L56.7852 24.2865C56.7693 24.4241 56.7554 24.5623 56.7423 24.6925L58.7322 24.8931ZM58.7738 24.4988C58.7941 24.2918 58.8516 24.2418 58.8412 24.2523C58.8361 24.2575 58.8279 24.2625 58.8233 24.2643C58.8203 24.2654 58.8369 24.2582 58.8831 24.2592L58.9286 22.2597C58.3723 22.2471 57.8312 22.4301 57.4205 22.8447C57.0235 23.2454 56.8353 23.7735 56.7834 24.3036L58.7738 24.4988ZM58.8604 24.2585C58.9031 24.2604 58.9206 24.2685 58.9209 24.2686C58.9214 24.2689 58.9195 24.268 58.9162 24.2655C58.913 24.2631 58.9101 24.2603 58.908 24.2579C58.8925 24.2397 58.9394 24.2766 58.9327 24.4487L60.9311 24.5271C60.9533 23.9621 60.8052 23.3993 60.4283 22.9584C60.0462 22.5113 59.51 22.2859 58.9512 22.2605L58.8604 24.2585ZM58.933 24.4423C58.8119 27.092 57.9691 29.4686 56.3747 31.5722L57.9685 32.7803C59.8136 30.3461 60.7918 27.5779 60.9309 24.5335L58.933 24.4423ZM56.3716 31.5763C55.0402 33.3515 53.3724 34.6952 51.3496 35.5469L52.1258 37.3901C54.4964 36.392 56.4416 34.8163 57.9716 32.7763L56.3716 31.5763ZM51.3496 35.5469C50.9699 35.7068 50.5852 35.9489 50.333 36.3722C50.0921 36.7767 50.0585 37.2071 50.0585 37.5379H52.0585C52.0585 37.4357 52.0649 37.3836 52.0693 37.3607C52.0728 37.3429 52.0713 37.3622 52.0512 37.3958C52.0418 37.4116 52.0313 37.4254 52.0214 37.4364C52.0117 37.447 52.0055 37.4517 52.0063 37.4511C52.0099 37.4483 52.0412 37.4257 52.1258 37.3901L51.3496 35.5469ZM50.0585 37.5393C50.0639 41.5326 50.0632 45.5241 50.0625 49.5159L52.0625 49.5162C52.0632 45.5247 52.0639 41.5317 52.0585 37.5366L50.0585 37.5393ZM50.0625 49.5161V49.5162H52.0625V49.5161H50.0625ZM50.0625 49.5162V49.5164H52.0625V49.5162H50.0625ZM50.0625 49.5164V49.5166H52.0625V49.5164H50.0625ZM50.0625 49.5166V49.5168H52.0625V49.5166H50.0625ZM50.0625 49.5168V49.5169H52.0625V49.5168H50.0625ZM50.0625 49.5169V49.5171H52.0625V49.5169H50.0625ZM50.0625 49.5171V49.5173H52.0625V49.5171H50.0625ZM50.0625 49.5173V49.5174H52.0625V49.5173H50.0625ZM50.0625 49.5174V49.5176H52.0625V49.5174H50.0625ZM50.0625 49.5176V49.5178H52.0625V49.5176H50.0625ZM50.0625 49.5176C50.0614 56.1692 50.0603 62.8219 50.0874 69.4806L52.0874 69.4725C52.0603 62.8187 52.0614 56.1703 52.0625 49.518L50.0625 49.5176ZM50.0874 69.4831C50.094 70.4901 49.9299 71.2315 49.6079 71.7781C49.2998 72.3011 48.7894 72.7442 47.8964 73.0558L48.5554 74.9442C49.8157 74.5043 50.7433 73.7912 51.3312 72.7932C51.9052 71.8188 52.0952 70.6741 52.0873 69.47L50.0874 69.4831ZM48.2259 73H20.2377V75H48.2259V73ZM20.962 71.2767C20.4949 72.0028 19.9919 72.7037 19.4556 73.3769L21.0199 74.6231C21.598 73.8974 22.1403 73.1417 22.644 72.3588L20.962 71.2767ZM25.5365 11.0938H33.3983V9.09383H25.5365V11.0938ZM22.9571 11.0874C23.8158 11.0906 24.6768 11.0938 25.5365 11.0938V9.09383C24.6812 9.09383 23.8239 9.09063 22.9646 9.08741L22.9571 11.0874ZM17.8305 11.0938C19.527 11.0746 21.2376 11.081 22.9571 11.0874L22.9646 9.08741C21.2477 9.081 19.522 9.07453 17.8079 9.09389L17.8305 11.0938ZM15.895 9.15785C15.8776 9.59276 15.9263 10.2174 16.4207 10.6642C16.8808 11.0799 17.4772 11.1013 17.8404 11.0936L17.7979 9.09406C17.7358 9.09538 17.689 9.09412 17.6543 9.09165C17.6194 9.08916 17.6033 9.08588 17.6011 9.0854C17.5975 9.08459 17.674 9.10112 17.7616 9.18025C17.8041 9.2187 17.8372 9.26132 17.8608 9.30214C17.8836 9.34152 17.893 9.37137 17.8961 9.38281C17.899 9.39344 17.8966 9.38882 17.8945 9.36292C17.8924 9.33715 17.8911 9.29666 17.8934 9.23778L15.895 9.15785ZM15.9099 6.51435C15.9151 7.41479 15.9201 8.29578 15.8947 9.1687L17.8938 9.22693C17.9204 8.31325 17.915 7.39724 17.9098 6.50275L15.9099 6.51435ZM15.9098 6.5084V6.50855H17.9098V6.5084H15.9098ZM15.9098 6.50825V6.5084H17.9098V6.50825H15.9098ZM15.9098 6.5081V6.50825H17.9098V6.5081H15.9098ZM15.9098 6.50795V6.5081H17.9098V6.50795H15.9098ZM15.9098 6.50779V6.50795H17.9098V6.50779H15.9098ZM15.9098 6.50764V6.50779H17.9098V6.50764H15.9098ZM15.9098 6.50749V6.50764H17.9098V6.50749H15.9098ZM15.9098 6.50734V6.50749H17.9098V6.50734H15.9098ZM15.9098 6.50719V6.50734H17.9098V6.50719H15.9098ZM15.9098 6.50704V6.50719H17.9098V6.50704H15.9098ZM15.9087 4.70802C15.9029 5.31182 15.9064 5.91664 15.9099 6.51284L17.9098 6.50123C17.9064 5.9024 17.903 5.31313 17.9086 4.72745L15.9087 4.70802ZM19.4378 1.17421C18.4495 1.17421 17.55 1.50067 16.8942 2.16189C16.2403 2.8212 15.9179 3.72305 15.9087 4.70839L17.9086 4.72708C17.9139 4.16607 18.0902 3.79616 18.3142 3.57029C18.5363 3.34633 18.8941 3.17421 19.4378 3.17421V1.17421ZM31.6387 1.17421C27.5754 1.15975 23.4976 1.15975 19.4342 1.17421L19.4413 3.1742C23.4999 3.15976 27.573 3.15976 31.6316 3.1742L31.6387 1.17421ZM35.1493 4.54382C35.1211 3.58519 34.7802 2.72044 34.1233 2.09608C33.4687 1.47394 32.5887 1.17421 31.6351 1.17421V3.17421C32.1701 3.17421 32.5258 3.33693 32.7455 3.54578C32.9629 3.7524 33.135 4.08716 33.1502 4.60262L35.1493 4.54382ZM35.1654 7.48224C35.1706 6.51801 35.1759 5.53617 35.1494 4.54644L33.1501 4.59999C33.1756 5.55226 33.1706 6.50202 33.1654 7.47147L35.1654 7.48224ZM35.1642 9.40566C35.1585 8.76639 35.1619 8.12824 35.1654 7.48224L33.1654 7.47147C33.1619 8.11514 33.1584 8.76757 33.1643 9.42352L35.1642 9.40566ZM33.3983 11.0938C33.6613 11.0938 34.1567 11.0779 34.5725 10.7602C35.0601 10.3878 35.1642 9.83732 35.1642 9.41459H33.1642C33.1642 9.48141 33.1551 9.46724 33.1761 9.41073C33.2024 9.33977 33.2602 9.24598 33.3585 9.1709C33.4467 9.10348 33.5191 9.08842 33.5224 9.08775C33.5249 9.08723 33.5168 9.08905 33.4943 9.0908C33.472 9.09254 33.4409 9.09383 33.3983 9.09383V11.0938ZM60.8993 14.0978C60.8552 13.5861 60.7325 13.0782 60.4405 12.6434C60.133 12.1856 59.7014 11.9025 59.2154 11.7443L58.5962 13.646C58.7317 13.6901 58.7626 13.7323 58.7802 13.7585C58.8134 13.8079 58.8786 13.9431 58.9067 14.2696L60.8993 14.0978ZM60.7084 14.8227C60.73 14.772 60.7446 14.7377 60.7578 14.7088C60.7712 14.6792 60.775 14.6733 60.7713 14.6798L59.0348 13.6876C58.9626 13.8139 58.9011 13.962 58.8685 14.0387L60.7084 14.8227ZM60.7169 14.8021L60.7169 14.8021L58.8599 14.0593L58.8599 14.0593L60.7169 14.8021ZM60.1531 15.7519C60.4655 15.4211 60.636 14.9926 60.7084 14.8227L58.8684 14.0387C58.8223 14.147 58.7893 14.223 58.7535 14.2905C58.7179 14.3578 58.6982 14.3796 58.6991 14.3787L60.1531 15.7519ZM47.3132 28.6068C51.5917 24.3428 55.8707 20.0638 60.1356 15.77L58.7166 14.3606C54.4549 18.6512 50.1784 22.9277 45.9014 27.1902L47.3132 28.6068ZM43.7324 28.5912C44.2099 29.0687 44.817 29.4027 45.5185 29.4061C46.2198 29.4096 46.8282 29.0818 47.3069 28.613L45.9077 27.184C45.6927 27.3946 45.5641 27.4063 45.5283 27.4062C45.4928 27.406 45.3628 27.3932 45.1466 27.177L43.7324 28.5912ZM37.8479 22.7067C39.7982 24.6715 41.7531 26.6409 43.7376 28.5964L45.1414 27.1718C43.1661 25.2253 41.2189 23.2638 39.2673 21.2977L37.8479 22.7067ZM37.7551 19.2517C37.3007 19.7175 37.0306 20.3212 37.0542 20.9845C37.0775 21.6391 37.3816 22.2301 37.8428 22.7015L39.2724 21.3029C39.0832 21.1095 39.055 20.9706 39.053 20.9135C39.0512 20.865 39.063 20.7751 39.1867 20.6483L37.7551 19.2517ZM41.2223 19.3074C40.7487 18.8441 40.1519 18.5404 39.4947 18.5205C38.8271 18.5003 38.2176 18.7776 37.7551 19.2517L39.1867 20.6483C39.3022 20.5299 39.3864 20.5182 39.4342 20.5196C39.4923 20.5214 39.6326 20.5501 39.8238 20.7371L41.2223 19.3074ZM43.452 21.5252C42.7137 20.7845 41.9707 20.0391 41.2222 19.3073L39.8239 20.7373C40.5617 21.4587 41.2956 22.1949 42.0355 22.9372L43.452 21.5252ZM45.1137 23.1843C44.5592 22.636 44.0069 22.0819 43.452 21.5252L42.0355 22.9372C42.5896 23.493 43.147 24.0522 43.7075 24.6064L45.1137 23.1843ZM45.9291 23.2027C45.724 23.4078 45.593 23.5129 45.5099 23.5647C45.4372 23.61 45.4566 23.5796 45.5343 23.58C45.6107 23.5805 45.6267 23.6102 45.5488 23.5612C45.4616 23.5064 45.3267 23.3972 45.1177 23.1883L43.7035 24.6025C44.1425 25.0414 44.7395 25.5757 45.5234 25.58C46.313 25.5843 46.9102 25.05 47.3433 24.6169L45.9291 23.2027ZM56.5512 12.5806L45.9291 23.2027L47.3433 24.6169L57.9654 13.9948L56.5512 12.5806ZM59.2162 11.7446C58.6212 11.5503 58.0684 11.5999 57.5804 11.819C57.1385 12.0174 56.7961 12.3357 56.5512 12.5806L57.9654 13.9948C58.183 13.7773 58.3102 13.6837 58.3995 13.6436C58.434 13.6281 58.4552 13.6245 58.4712 13.6236C58.4873 13.6227 58.5255 13.6229 58.5954 13.6458L59.2162 11.7446Z" fill="url(#paint7_linear_686_855)" mask="url(#path-8-inside-1_686_855)"/>
<defs>
<linearGradient id="paint0_linear_686_855" x1="9.79156" y1="29.2651" x2="9.79156" y2="38.8963" gradientUnits="userSpaceOnUse">
<stop stop-color="white"/>
<stop offset="1" stop-opacity="0"/>
</linearGradient>
<linearGradient id="paint1_linear_686_855" x1="27.336" y1="44.7783" x2="27.336" y2="47.1622" gradientUnits="userSpaceOnUse">
<stop stop-color="white"/>
<stop offset="1" stop-opacity="0"/>
</linearGradient>
<linearGradient id="paint2_linear_686_855" x1="24.824" y1="59.2363" x2="24.824" y2="61.6162" gradientUnits="userSpaceOnUse">
<stop stop-color="white"/>
<stop offset="1" stop-opacity="0"/>
</linearGradient>
<linearGradient id="paint3_linear_686_855" x1="24.7758" y1="35.8335" x2="24.7758" y2="38.2134" gradientUnits="userSpaceOnUse">
<stop stop-color="white"/>
<stop offset="1" stop-opacity="0"/>
</linearGradient>
<linearGradient id="paint4_linear_686_855" x1="24.8162" y1="30.3125" x2="24.8162" y2="32.6995" gradientUnits="userSpaceOnUse">
<stop stop-color="white"/>
<stop offset="1" stop-opacity="0"/>
</linearGradient>
<linearGradient id="paint5_linear_686_855" x1="22.452" y1="50.2915" x2="22.452" y2="52.6904" gradientUnits="userSpaceOnUse">
<stop stop-color="white"/>
<stop offset="1" stop-opacity="0"/>
</linearGradient>
<linearGradient id="paint6_linear_686_855" x1="11.2804" y1="18" x2="11.2804" y2="20.3918" gradientUnits="userSpaceOnUse">
<stop stop-color="white"/>
<stop offset="1" stop-opacity="0"/>
</linearGradient>
<linearGradient id="paint7_linear_686_855" x1="31.0348" y1="0" x2="31.0348" y2="74" gradientUnits="userSpaceOnUse">
<stop stop-color="white"/>
<stop offset="1" stop-opacity="0"/>
</linearGradient>
</defs>
</svg>
