<svg width="20" height="20" viewBox="0 0 20 20" fill="none" xmlns="http://www.w3.org/2000/svg">
<path d="M7.49984 18.3333H12.4998C16.6665 18.3333 18.3332 16.6666 18.3332 12.5V7.49996C18.3332 3.33329 16.6665 1.66663 12.4998 1.66663H7.49984C3.33317 1.66663 1.6665 3.33329 1.6665 7.49996V12.5C1.6665 16.6666 3.33317 18.3333 7.49984 18.3333Z" stroke="white" stroke-width="1.5" stroke-linecap="round" stroke-linejoin="round"/>
<path d="M10.0002 12.9167C11.611 12.9167 12.9168 11.6109 12.9168 10C12.9168 8.38921 11.611 7.08337 10.0002 7.08337C8.38933 7.08337 7.0835 8.38921 7.0835 10C7.0835 11.6109 8.38933 12.9167 10.0002 12.9167Z" stroke="#21BBB3" stroke-linecap="round" stroke-linejoin="round"/>
<path d="M14.6966 5.83329H14.7062" stroke="#21BBB3" stroke-linecap="round" stroke-linejoin="round"/>
</svg>
