<svg width="20" height="48" viewBox="0 0 20 48" fill="none" xmlns="http://www.w3.org/2000/svg">
<path d="M19.9933 3.37852C20.0068 4.478 19.6838 5.16961 19.2128 5.79028C16.0101 9.99313 12.8209 14.2137 9.61819 18.4343C8.70313 19.6402 7.78807 20.8461 6.87302 22.0519C5.82339 23.4352 5.82339 25.0666 6.87302 26.4321C10.9773 31.8409 15.0816 37.2496 19.1859 42.6583C19.6165 43.2258 19.9529 43.8287 19.9933 44.6622C20.0606 45.8858 19.6165 46.9853 18.8091 47.4996C17.9883 48.0316 17.0598 47.8542 16.3869 46.9853C15.418 45.744 14.4761 44.4849 13.5206 43.2258C9.28177 37.6397 5.0429 32.0714 0.817496 26.4853C-0.272499 25.0489 -0.272499 23.4529 0.817496 22.0165C5.9445 15.2423 11.085 8.46805 16.2254 1.71157C17.4769 0.0623472 19.4012 0.594354 19.9126 2.74011C19.9799 2.98838 19.9933 3.28985 19.9933 3.37852Z" fill="white"/>
</svg>
