<svg width="38" height="38" viewBox="0 0 38 38" fill="none" xmlns="http://www.w3.org/2000/svg">
<circle cx="19.25" cy="18.75" r="18.75" fill="#21BBB3"/>
<path fill-rule="evenodd" clip-rule="evenodd" d="M27.6405 11H13.4525C12.6775 11 12 11.558 12 12.324V26.5431C12 27.3136 12.6775 28 13.4525 28H27.6361C28.4154 28 29 27.3092 29 26.5431V12.324C29.0044 11.558 28.4154 11 27.6405 11V11ZM17.2689 25.1704H14.8333V17.5981H17.2689V25.1704V25.1704ZM16.1352 16.4467H16.1175C15.3382 16.4467 14.8333 15.8666 14.8333 15.1404C14.8333 14.4008 15.3514 13.834 16.1485 13.834C16.9456 13.834 17.4327 14.3964 17.4504 15.1404C17.4504 15.8666 16.9456 16.4467 16.1352 16.4467V16.4467ZM26.1704 25.1704H23.7349V21.03C23.7349 20.0381 23.3807 19.3606 22.4994 19.3606C21.8263 19.3606 21.4278 19.8167 21.2507 20.2595C21.1843 20.4189 21.1665 20.6359 21.1665 20.8573V25.1704H18.731V17.5981H21.1665V18.652C21.5208 18.1472 22.0743 17.421 23.3629 17.421C24.9615 17.421 26.1704 18.4749 26.1704 20.7466V25.1704V25.1704Z" fill="white"/>
</svg>
