<svg width="185" height="117" viewBox="0 0 185 117" fill="none" xmlns="http://www.w3.org/2000/svg">
<path fill-rule="evenodd" clip-rule="evenodd" d="M46.3185 0.011423C28.3894 -0.294717 13.3484 19.3214 13.3484 19.3214H15.5513C47.0794 -10.9021 77.3651 19.0343 56.6503 52.1165C45.5591 70.9652 30.6691 73.7232 30.6691 73.7232C45.2286 71.3298 53.9834 59.7673 53.9834 59.7673C70.5851 46.3338 79.3534 -0.841688 46.3185 0.011423Z" fill="url(#paint0_linear_16_3045)"/>
<path fill-rule="evenodd" clip-rule="evenodd" d="M3.62207 36.4844C3.62207 36.4844 8.17887 25.1449 11.067 22.8455L11.674 23.7652C11.674 23.7652 5.44452 31.7344 3.62207 36.4844Z" fill="#FEF246"/>
<path fill-rule="evenodd" clip-rule="evenodd" d="M123.305 90.9507V72.3959C135.543 69.7821 133.556 92.3562 123.305 90.9507ZM147.967 116.632C149.299 100.184 150.099 83.1978 147.967 66.4799H163.697C161.696 80.8671 161.563 96.1945 163.031 109.642C169.117 111.389 175.339 109.372 181.293 108.835L180.76 116.632C171.428 116.185 162.363 116.005 153.166 116.095L147.967 116.632ZM109.039 116.632C110.906 99.8709 111.439 83.108 109.039 66.3452H131.303C156.282 66.0676 146.547 100.685 123.305 93.3712C123.305 101.125 123.971 108.88 124.504 116.632H109.039ZM88.91 116.499C90.5989 99.826 91.0886 83.0182 88.7778 66.4799H104.507C102.908 83.4659 102.775 99.9158 104.507 116.632L88.91 116.499Z" fill="#FEFEFE"/>
<path d="M29.4331 110.91C29.4331 110.91 29.4695 108.436 30.1184 108.183C30.1184 108.183 33.2196 105.859 33.7943 104.878C33.7943 104.878 35.8852 101.533 36.7135 100.987C36.7135 100.987 37.5363 99.0999 37.9356 98.991L39.4856 95.3922C39.4856 95.3922 43.1615 92.7349 43.7025 91.5021C43.7025 91.5021 44.5294 89.6884 44.9624 89.6136C44.9624 89.6136 45.5775 83.5085 45.1067 81.4362C45.1067 81.4362 44.8208 77.368 44.4957 76.9666C44.4957 76.9666 43.6687 71.9881 42.3346 71.0778C42.3346 71.0778 47.8802 68.1715 50.5836 65.736C50.5836 65.736 55.7757 61.3752 56.9278 59.8486L58.2241 60.9724C58.2241 60.9724 59.1266 60.9724 58.9809 62.7168C58.9809 62.7168 61.2512 65.1904 61.5385 65.6979L63.3394 67.6232C63.3394 67.6232 65.1025 68.4953 66.4731 71.4778C66.4731 71.4778 70.9058 79.6212 71.0137 80.7831C71.0137 80.7831 73.1383 78.7476 75.0134 79.9096C75.0134 79.9096 76.4595 81.0716 75.5206 82.5982L71.2295 88.1972C71.2295 88.1972 68.8526 89.1782 68.2038 89.287C68.2038 89.287 66.3314 89.9075 63.8453 93.1036L52.603 103.714L50.7279 104.258C50.7279 104.258 49.9684 106.808 50.1505 107.823C50.1505 107.823 49.9711 109.819 49.4315 110.184C49.4315 110.184 47.3029 109.969 46.7997 108.913L44.6751 106.149C44.6751 106.149 40.3854 110.188 37.9356 114.256C37.9356 114.256 38.1852 115.708 37.6119 116.143C37.6119 116.143 30.9089 117.817 29.7204 114.981C29.7204 114.981 29.541 112.654 29.2172 112.654C29.2172 112.654 29.0716 110.91 29.4331 110.91Z" fill="white"/>
<path d="M30.7695 113.927V111.71C30.7695 111.71 31.4858 110.33 32.7484 110.765C32.7484 110.765 36.1031 111.168 36.1746 112.401L36.5321 113.709C36.5321 113.709 37.0352 114.544 36.1004 114.871C36.1004 114.871 32.6445 115.562 30.7695 113.927Z" fill="#293778"/>
<path d="M47.9555 107.93L46.8386 106.077C46.8386 106.077 46.5513 105.419 47.3782 105.457C47.3782 105.457 48.8174 105.02 49.179 105.02C49.179 105.02 49.4352 107.092 49.1452 108.291C49.1452 108.291 48.4263 108.659 47.9555 107.93Z" fill="#293778"/>
<path d="M50.9456 84.5971C50.9456 84.5971 52.459 83.3664 55.3767 83.7264C55.3767 83.7264 58.0422 84.3757 58.4037 85.0671C58.4037 85.0671 55.1231 83.5769 53.0701 84.1964L53.901 84.305C53.901 84.305 51.4865 84.4164 50.9456 84.5971Z" fill="#293778"/>
<path d="M67.415 87.3926C67.415 87.3926 69.0729 85.1031 70.009 85.1031C70.009 85.1031 72.924 84.1196 71.1232 81.033C71.1232 81.033 73.6093 78.8932 75.0148 80.2358C75.0148 80.2358 75.522 81.067 75.4141 81.5771C75.4141 81.5771 73.5755 83.687 72.4573 84.4502C72.4573 84.4502 69.7595 86.7763 69.1443 86.7382C69.1443 86.7382 68.3876 87.4307 67.415 87.3926Z" fill="#293778"/>
<path d="M19.9802 37.6388C19.9802 37.6388 17.8556 34.3311 18.035 32.6235C18.035 32.6235 17.4199 31.4248 19.4743 28.5185C19.4743 28.5185 22.2101 24.3033 27.1486 26.664C27.1486 26.664 28.6284 27.0626 30.2135 30.3336C30.2135 30.3336 32.3044 31.4275 32.5917 31.3908C32.5917 31.3908 32.987 32.297 30.8623 33.278L31.4734 34.7706C31.4734 34.7706 33.0949 34.4427 33.1313 34.1882L33.277 34.9134L33.2756 34.9148L33.3229 35.1461L33.3471 35.1311L33.5266 35.9693C33.5266 35.9693 36.122 33.4589 37.7421 31.7513C37.7421 31.7513 38.5002 29.026 39.0776 27.9362C39.0776 27.9362 38.3167 23.7577 38.5002 23.6121C38.5002 23.6121 40.1554 22.1562 42.1748 22.4841C42.1748 22.4841 41.6339 20.4527 40.699 20.5956V20.1602C40.699 20.1602 37.7421 20.5616 37.9957 22.9944C37.9957 22.9944 36.8774 23.54 35.5095 22.4501L34.6084 19.9425C34.6084 19.9425 33.6749 19.2839 32.7361 20.7398C32.7361 20.7398 22.5756 22.8855 15.0079 24.0475C15.0079 24.0475 4.15817 25.7211 0.664339 24.4121C0.664339 24.4121 -0.703515 21.9385 0.486275 20.5589L2.64732 20.5956C2.64732 20.5956 0.41478 21.0324 0.198945 21.6868C0.198945 21.6868 10.7924 22.5209 15.7283 20.7766C15.7283 20.7766 30.865 18.088 32.7361 17.6145C32.7361 17.6145 32.4865 16.926 31.9793 17.107C31.9793 17.107 17.3457 19.5778 14.5021 19.4676C14.5021 19.4676 29.6011 16.8144 31.7634 16.8512C31.7634 16.8512 32.3786 16.4906 33.4928 17.6526C33.4928 17.6526 34 17.3627 34.1417 17.107C34.1417 17.107 34.0675 18.4159 34.7163 18.4159C34.7163 18.4159 34.7568 19.1411 35.0064 19.1411L35.979 20.5589C35.979 20.5589 40.3402 19.1043 41.1685 18.7764C41.1685 18.7764 41.097 17.8703 40.9513 17.8322L35.7254 19.5397L34.5369 17.3587L35.6889 18.9941C35.6889 18.9941 39.2934 17.9043 41.0228 17.5056L40.4832 15.3966C40.4832 15.3966 40.9863 16.6716 41.1307 14.998L41.3843 16.0878C41.3843 16.0878 42.6078 15.979 41.7431 17.2879C41.7431 17.2879 42.0696 19.4676 42.249 19.9044L44.553 21.0324L43.401 21.7576L44.7351 21.7957C44.7351 21.7957 42.9343 22.9944 43.4388 23.8665C43.4388 23.8665 44.553 24.9537 45.9586 24.1196C45.9586 24.1196 46.648 24.7741 46.8975 24.7741C46.8975 24.7741 47.1471 25.4312 46.3202 25.8299L44.7351 32.7705C44.7351 32.7705 44.3372 34.6277 43.7248 35.0971L39.4728 43.2377C39.4728 43.2377 45.4919 48.2557 46.1408 49.7075L50.5735 56.648L50.5357 57.4494L51.6877 57.995C51.6877 57.995 46.1408 65.9193 38.6445 70.2053C38.6445 70.2053 37.7421 68.6038 38.5002 66.2051C38.5002 66.2051 37.4588 63.2988 37.7097 63.2988C37.7097 63.2988 37.274 61.7735 36.5536 61.3367L29.0237 54.5772L23.6562 49.5238C23.6562 49.5238 22.8589 48.9074 22.9331 44.982C22.9331 44.982 21.2779 44.5085 21.7811 43.1289C21.7811 43.1289 20.6291 41.2376 20.9164 40.9111C20.9164 40.9111 22.2883 40.9111 22.4677 40.5832C22.4677 40.5832 23.5847 41.9329 24.5208 41.8581C24.5208 41.8581 22.2843 40.0375 21.9605 40.2566C21.9605 40.2566 20.3795 39.53 20.1974 38.8756C20.1974 38.8756 21.6759 40.2974 21.3858 39.3504L20.339 38.6579C20.339 38.6579 20.2311 37.6728 19.9802 37.6388Z" fill="white"/>
<path d="M34.8713 14.3273L40.2764 13.7826V14.3001C40.2764 14.3001 39.2756 13.7826 38.9248 14.7076C38.9248 14.7076 37.9792 13.5924 37.4653 14.7348C37.4653 14.7348 36.196 13.7554 35.8439 15.1165C35.8439 15.1165 35.0332 14.3545 34.8713 14.3273Z" fill="white"/>
<path d="M41.3003 14.1367C41.3003 14.1367 41.5971 13.4294 42.6519 13.8103C42.6519 13.8103 46.3533 13.4022 46.9482 14.655C46.9482 14.655 47.5161 15.9093 47.5161 16.4806L49.3533 16.8356L49.1375 18.9333L48.1919 19.4244C48.1919 19.4244 48.0017 21.5764 47.9477 22.0675C47.9477 22.0675 47.3529 18.8245 46.1645 19.5876C46.1645 19.5876 45.138 19.506 44.7589 18.9877L43.3277 18.2518L44.7589 18.4436C44.7589 18.4436 46.3803 18.7428 45.4077 17.49C45.4077 17.49 47.651 17.8437 46.6514 16.9173L47.191 16.7268C47.191 16.7268 46.7863 14.4646 46.3264 14.3013C46.3264 14.3013 45.7598 14.4102 45.8677 14.8727C45.8677 14.8727 45.111 13.4838 44.3812 14.5734C44.3812 14.5734 43.7863 13.783 43.0566 14.1653C43.0566 14.1653 42.1919 13.7014 41.3003 14.1367Z" fill="white"/>
<path d="M20.6969 37.0228C20.6969 37.0228 20.535 38.3314 21.1029 38.7667C21.1029 38.7667 24.2378 41.4929 25.1281 41.7377C25.1281 41.7377 29.5066 42.0914 33.2634 39.4211C33.2634 39.4211 33.1285 37.1316 33.0192 37.0772L33.776 36.4773V36.1236L32.9383 36.7507L32.4796 35.6053L33.3713 35.0884L33.2364 34.7333C33.2364 34.7333 29.5876 36.6963 25.0485 37.6227L22.7513 38.1682C22.7513 38.1682 21.5076 38.4947 21.4266 36.4501L21.2917 36.5603C21.2917 36.5603 21.1569 38.5491 22.7243 38.5491C22.7243 38.5491 31.0741 36.4229 32.1546 35.7971C32.1546 35.7971 32.6145 36.1508 32.7764 39.3667C32.7764 39.3667 26.2369 42.7185 24.2378 40.7025L21.4266 38.6307C21.4266 38.6307 20.589 37.5411 20.6969 37.0228Z" fill="#293778"/>
<path d="M25.5706 41.3556L26.8412 37.5943L27.2729 37.4038L26.0305 41.3284L25.5706 41.3556Z" fill="#293778"/>
<path d="M30.2506 40.4018C30.2506 40.4018 29.9539 37.0772 29.4399 36.6133L29.9809 36.5317C29.9809 36.5317 30.4665 39.3108 30.6297 40.293L30.2506 40.4018Z" fill="#293778"/>
<path d="M22.6831 38.7118C22.6831 38.7118 22.7371 40.3197 27.4933 39.2287C27.4933 39.2287 32.0055 38.3839 33.6808 36.4223L33.6269 36.0958C33.6269 36.0958 31.5198 38.2207 27.871 38.6029C27.871 38.6029 24.5473 39.7198 22.6831 38.7118Z" fill="#293778"/>
<path fill-rule="evenodd" clip-rule="evenodd" d="M79.0574 53.4219H132.029H185V10.1364H79.0574V53.4219Z" fill="#008CD3"/>
<path fill-rule="evenodd" clip-rule="evenodd" d="M158.437 29.1688C159.287 29.0069 165.169 29.0994 166.517 29.0994C167.73 29.0994 169.335 28.9892 170.448 29.2763C176.182 30.7621 176.147 39.8429 169.926 40.9137C169.009 41.0729 163.226 40.9844 161.828 40.9844C160.653 40.9844 158.936 41.0933 157.9 40.813C154.533 39.8932 152.941 36.2168 154.003 32.9622C154.623 31.0492 156.205 29.5988 158.437 29.1688ZM178.262 36.1692C178.669 32.3513 177.038 29.3171 174.999 27.619C173.913 26.7129 172.736 26.0462 171.029 25.6434C169.57 25.2924 167.011 25.4434 165.347 25.4434C163.373 25.4434 161.398 25.4448 159.423 25.4434C157.514 25.438 156.075 25.8706 154.699 26.6748C148.878 30.0491 148.558 38.3217 153.356 42.4594C156.33 45.0282 159.22 44.6581 162.996 44.6581C164.972 44.6581 166.95 44.6581 168.922 44.6581C173.691 44.6527 177.724 41.2566 178.262 36.1692ZM122.168 28.0572C122.273 28.6749 123.266 29.9947 123.622 30.5158L128.306 37.4604C129.221 38.8238 130.486 40.7817 131.43 42.0893C132.381 43.4104 134.015 44.8568 136.516 44.7425C138.862 44.6323 140.172 43.1342 141.177 41.6661C142.198 40.1722 143.227 38.6047 144.299 37.0359L149.771 28.9157C150.878 27.2653 149.49 25.4543 147.882 25.7672C146.877 25.9686 146.438 26.8775 145.917 27.6789L142.805 32.3132C141.762 33.8235 140.729 35.4222 139.679 36.938C139.145 37.7121 138.661 38.4646 138.124 39.2565C137.69 39.8959 136.992 41.0647 135.808 40.779C134.935 40.5626 134.329 39.4673 133.896 38.8088C133.371 38.0196 132.88 37.3012 132.341 36.4903C131.298 34.9569 130.303 33.4956 129.218 31.8642C128.168 30.2818 127.19 28.8341 126.098 27.2326C125.612 26.5169 125.067 25.5251 123.738 25.7672C122.79 25.9346 121.967 26.868 122.168 28.0572ZM85.7515 27.9987C85.8418 28.6858 86.832 29.9484 87.1895 30.4736L93.4231 39.7299C94.9717 42.0689 96.4758 44.8704 100.03 44.7452C103.302 44.6241 104.653 41.8525 106.322 39.3612L111.001 32.4207C111.498 31.6628 112.029 30.8873 112.562 30.1076C113.158 29.245 113.886 28.3946 113.755 27.4394C113.61 26.4503 112.716 25.589 111.548 25.7577C110.531 25.9033 110.091 26.7863 109.541 27.6245C108.48 29.2396 107.513 30.6383 106.427 32.2574C105.38 33.818 104.378 35.3433 103.311 36.8862C102.759 37.6754 102.287 38.4074 101.748 39.2007C101.289 39.866 100.659 41.0076 99.4772 40.7912C98.541 40.6212 98.0096 39.5476 97.5104 38.8265C94.9272 35.1174 92.2508 31.0397 89.7093 27.2476C89.19 26.4802 88.6571 25.5591 87.354 25.7604C86.4165 25.9033 85.5936 26.8204 85.7515 27.9987ZM117.62 25.7822C115.7 26.1822 116.012 27.834 116.012 29.8586V41.3532C116.012 42.3192 115.874 43.1927 116.343 43.8935C117.242 45.2486 119.349 44.9248 119.812 43.3846C119.994 42.7845 119.899 35.8182 119.899 34.8698C119.899 32.9609 119.898 31.0397 119.898 29.128C119.898 28.1551 120.029 27.3102 119.57 26.604C119.232 26.0843 118.502 25.5931 117.62 25.7822ZM117.7 18.8662C117.37 19.0022 117.166 19.2948 116.932 19.5247L115.538 20.9275C114.623 21.8568 115.372 22.2187 116.513 23.378C116.758 23.627 116.965 23.827 117.208 24.0801C118.124 25.0039 118.457 24.3236 119.661 23.1127C121.32 21.4513 121.271 21.7942 118.687 19.209C118.469 18.9941 118.174 18.673 117.7 18.8662Z" fill="#FEFEFE"/>
<defs>
<linearGradient id="paint0_linear_16_3045" x1="19.0707" y1="3.78581" x2="66.5383" y2="42.7448" gradientUnits="userSpaceOnUse">
<stop stop-color="#FEF246"/>
<stop offset="1" stop-color="#F989E5"/>
</linearGradient>
</defs>
</svg>
