<svg width="201" height="72" viewBox="0 0 201 72" fill="none" xmlns="http://www.w3.org/2000/svg">
<path d="M89.8225 26.1248H84.7333V24.5317H89.8225C90.8747 24.5317 91.7252 24.3252 92.3745 23.9122C93.0233 23.4893 93.4955 22.9238 93.7906 22.2158C94.0955 21.4979 94.2479 20.6965 94.2479 19.8115C94.2479 18.9461 94.0955 18.1446 93.7906 17.407C93.4955 16.6695 93.0233 16.0795 92.3745 15.6369C91.7252 15.1846 90.8747 14.9584 89.8225 14.9584H85.2794V34.8572H83.583V13.3801H89.8225C91.1498 13.3801 92.2662 13.6505 93.1711 14.1914C94.0853 14.7322 94.7736 15.4846 95.236 16.4482C95.7082 17.412 95.9439 18.5281 95.9439 19.7967C95.9439 21.1144 95.7082 22.2502 95.236 23.2041C94.7736 24.1482 94.0853 24.871 93.1711 25.3725C92.2662 25.874 91.1498 26.1248 89.8225 26.1248ZM97.1773 27.7031V26.051C97.1773 24.8415 97.3149 23.7745 97.5901 22.8501C97.8754 21.9257 98.2737 21.1489 98.785 20.5195C99.3064 19.8803 99.926 19.4033 100.644 19.0887C101.362 18.7641 102.148 18.6019 103.004 18.6019C103.879 18.6019 104.671 18.7641 105.379 19.0887C106.097 19.4033 106.711 19.8803 107.222 20.5195C107.744 21.1489 108.147 21.9257 108.432 22.8501C108.717 23.7745 108.86 24.8415 108.86 26.051V27.7031C108.86 28.9125 108.717 29.9847 108.432 30.9188C108.147 31.8433 107.744 32.6199 107.222 33.2496C106.711 33.8789 106.097 34.3558 105.379 34.6802C104.671 35.0046 103.884 35.1672 103.018 35.1672C102.153 35.1672 101.362 35.0046 100.644 34.6802C99.9357 34.3558 99.3208 33.8789 98.7998 33.2496C98.2788 32.6101 97.8754 31.8284 97.5901 30.904C97.3149 29.9796 97.1773 28.9125 97.1773 27.7031ZM98.8291 26.051V27.7031C98.8291 28.6178 98.9179 29.4386 99.095 30.1664C99.2818 30.8942 99.5569 31.5137 99.9208 32.025C100.285 32.5367 100.722 32.9299 101.234 33.205C101.755 33.4806 102.35 33.6182 103.018 33.6182C103.727 33.6182 104.341 33.4806 104.862 33.205C105.393 32.9299 105.831 32.5367 106.175 32.025C106.529 31.5137 106.79 30.8942 106.957 30.1664C107.134 29.4386 107.222 28.6178 107.222 27.7031V26.051C107.222 25.1561 107.129 24.3449 106.942 23.6171C106.755 22.8894 106.475 22.2699 106.101 21.7585C105.738 21.2373 105.295 20.8391 104.774 20.5637C104.253 20.2785 103.663 20.136 103.004 20.136C102.355 20.136 101.77 20.2785 101.248 20.5637C100.727 20.8391 100.285 21.2373 99.9208 21.7585C99.5667 22.2699 99.2962 22.8894 99.1094 23.6171C98.9225 24.3449 98.8291 25.1561 98.8291 26.051ZM114.784 31.1549L118.058 18.8969H119.194L118.634 22.1716L115.241 34.8572H114.105L114.784 31.1549ZM111.627 18.8969L114.504 31.2284L115.02 34.8572H113.854L109.96 18.8969H111.627ZM123.074 31.1693L125.847 18.8969H127.528L123.62 34.8572H122.469L123.074 31.1693ZM119.43 18.8969L122.646 31.0369L123.384 34.8572H122.248L118.767 22.1568L118.235 18.8969H119.43ZM134.618 35.1672C133.733 35.1672 132.916 35.0246 132.169 34.7392C131.431 34.4441 130.792 34.0016 130.251 33.4118C129.721 32.8118 129.307 32.0594 129.012 31.1549C128.718 30.2403 128.57 29.1634 128.57 27.9244V26.0805C128.57 24.7628 128.727 23.6319 129.042 22.6878C129.357 21.734 129.78 20.9571 130.31 20.3572C130.851 19.7475 131.466 19.305 132.155 19.0296C132.843 18.7445 133.57 18.6019 134.338 18.6019C135.213 18.6019 135.98 18.7445 136.639 19.0296C137.307 19.3148 137.868 19.7475 138.32 20.3277C138.772 20.9079 139.112 21.6405 139.338 22.5256C139.564 23.4008 139.677 24.4383 139.677 25.638V27.0097H129.558V25.4758H138.04V25.0627C138.02 24.0203 137.873 23.1353 137.597 22.4076C137.332 21.67 136.929 21.1095 136.388 20.726C135.857 20.3326 135.178 20.136 134.352 20.136C133.743 20.136 133.182 20.249 132.67 20.4752C132.159 20.6916 131.717 21.0357 131.343 21.5078C130.979 21.9798 130.699 22.5944 130.502 23.3516C130.315 24.1088 130.222 25.0185 130.222 26.0805V27.9244C130.222 28.898 130.325 29.7435 130.532 30.4615C130.748 31.1693 131.053 31.7596 131.446 32.2318C131.839 32.6938 132.312 33.0428 132.862 33.2789C133.413 33.5052 134.023 33.6182 134.692 33.6182C135.518 33.6182 136.24 33.4806 136.86 33.205C137.479 32.9201 138.03 32.4921 138.512 31.9218L139.382 33.0135C139.087 33.397 138.723 33.7558 138.291 34.0904C137.858 34.4148 137.342 34.6755 136.742 34.8721C136.142 35.0687 135.434 35.1672 134.618 35.1672ZM143.315 21.5225V34.8572H141.678V18.8969H143.271L143.315 21.5225ZM147.961 18.7936L147.917 20.431C147.74 20.3916 147.573 20.367 147.415 20.3572C147.258 20.3376 147.086 20.3277 146.899 20.3277C146.28 20.3277 145.739 20.4654 145.277 20.7408C144.814 21.0161 144.421 21.4045 144.097 21.906C143.782 22.3977 143.536 22.973 143.359 23.6319C143.192 24.2809 143.094 24.984 143.064 25.7412L142.489 25.992C142.489 24.9595 142.577 23.9957 142.754 23.1009C142.931 22.206 143.201 21.4193 143.565 20.7408C143.939 20.0622 144.406 19.5361 144.967 19.1624C145.537 18.7887 146.206 18.6019 146.973 18.6019C147.15 18.6019 147.332 18.6215 147.519 18.6609C147.715 18.6904 147.863 18.7346 147.961 18.7936ZM157.346 34.8572H155.693V16.9203C155.693 15.8484 155.856 14.9387 156.18 14.1914C156.505 13.4342 156.967 12.8638 157.567 12.4803C158.177 12.0869 158.899 11.8903 159.735 11.8903C159.991 11.8903 160.256 11.9099 160.532 11.9492C160.807 11.9886 161.068 12.0525 161.314 12.141L161.211 13.6456C161.014 13.5866 160.807 13.5424 160.591 13.5128C160.374 13.4833 160.134 13.4686 159.868 13.4686C159.347 13.4686 158.895 13.6063 158.511 13.8816C158.137 14.1472 157.847 14.5405 157.641 15.0617C157.444 15.573 157.346 16.1926 157.346 16.9203V34.8572ZM160.473 18.8969V20.372H153.51V18.8969H160.473ZM161.573 27.7031V26.051C161.573 24.8415 161.711 23.7745 161.986 22.8501C162.272 21.9257 162.67 21.1489 163.181 20.5195C163.702 19.8803 164.322 19.4033 165.04 19.0887C165.757 18.7641 166.544 18.6019 167.4 18.6019C168.275 18.6019 169.067 18.7641 169.775 19.0887C170.492 19.4033 171.107 19.8803 171.619 20.5195C172.14 21.1489 172.543 21.9257 172.828 22.8501C173.113 23.7745 173.256 24.8415 173.256 26.051V27.7031C173.256 28.9125 173.113 29.9847 172.828 30.9188C172.543 31.8433 172.14 32.6199 171.619 33.2496C171.107 33.8789 170.492 34.3558 169.775 34.6802C169.067 35.0046 168.28 35.1672 167.415 35.1672C166.549 35.1672 165.757 35.0046 165.04 34.6802C164.332 34.3558 163.717 33.8789 163.196 33.2496C162.675 32.6101 162.272 31.8284 161.986 30.904C161.711 29.9796 161.573 28.9125 161.573 27.7031ZM163.225 26.051V27.7031C163.225 28.6178 163.314 29.4386 163.491 30.1664C163.678 30.8942 163.953 31.5137 164.317 32.025C164.681 32.5367 165.118 32.9299 165.63 33.205C166.151 33.4806 166.746 33.6182 167.415 33.6182C168.123 33.6182 168.737 33.4806 169.258 33.205C169.79 32.9299 170.227 32.5367 170.571 32.025C170.925 31.5137 171.186 30.8942 171.353 30.1664C171.53 29.4386 171.619 28.6178 171.619 27.7031V26.051C171.619 25.1561 171.525 24.3449 171.338 23.6171C171.151 22.8894 170.871 22.2699 170.498 21.7585C170.134 21.2373 169.691 20.8391 169.17 20.5637C168.649 20.2785 168.059 20.136 167.4 20.136C166.751 20.136 166.166 20.2785 165.644 20.5637C165.123 20.8391 164.681 21.2373 164.317 21.7585C163.963 22.2699 163.692 22.8894 163.506 23.6171C163.319 24.3449 163.225 25.1561 163.225 26.051ZM177.159 21.5225V34.8572H175.522V18.8969H177.115L177.159 21.5225ZM181.806 18.7936L181.761 20.431C181.584 20.3916 181.417 20.367 181.26 20.3572C181.102 20.3376 180.93 20.3277 180.743 20.3277C180.124 20.3277 179.583 20.4654 179.121 20.7408C178.659 21.0161 178.265 21.4045 177.941 21.906C177.626 22.3977 177.38 22.973 177.203 23.6319C177.036 24.2809 176.938 24.984 176.908 25.7412L176.333 25.992C176.333 24.9595 176.421 23.9957 176.598 23.1009C176.776 22.206 177.046 21.4193 177.41 20.7408C177.784 20.0622 178.251 19.5361 178.811 19.1624C179.381 18.7887 180.05 18.6019 180.817 18.6019C180.994 18.6019 181.176 18.6215 181.363 18.6609C181.56 18.6904 181.707 18.7346 181.806 18.7936Z" fill="white"/>
<path d="M88.2472 56.7012H83.1548V36.767H88.8328C91.0386 36.767 92.6044 36.8763 93.5306 37.0938C94.4383 37.3299 95.1963 37.7021 95.8043 38.2106C96.5307 38.8185 97.0889 39.5723 97.4793 40.4707C97.8692 41.3877 98.0644 42.4088 98.0644 43.5345C98.0644 44.7326 97.8692 45.7765 97.4793 46.666C97.1339 47.5649 96.5758 48.309 95.8043 48.8992C95.2507 49.3347 94.5833 49.648 93.8025 49.8385C93.104 50.0295 91.8872 50.1248 90.1537 50.1248H89.2278H88.2472V56.7012ZM88.2472 45.7402H89.2822C90.571 45.7402 91.4833 45.5543 92.0192 45.182C92.5365 44.8372 92.7949 44.2335 92.7949 43.3709C92.7949 42.545 92.5411 41.9547 92.0327 41.601C91.5335 41.2381 90.6347 41.0563 89.3366 41.0563H88.2472V45.7402ZM99.2844 36.767H104.731V46.462C104.731 47.9413 104.767 48.9671 104.84 49.5392C104.931 50.2201 105.054 50.7374 105.208 51.0915C105.398 51.6088 105.757 51.9899 106.283 52.2353C106.81 52.5165 107.445 52.6573 108.19 52.6573C108.925 52.6573 109.556 52.5165 110.082 52.2353C110.563 51.9992 110.926 51.6176 111.172 51.0915C111.317 50.7281 111.435 50.2108 111.525 49.5392C111.607 48.9945 111.648 47.9688 111.648 46.462V45.1002V36.767H117.054V47.306C117.054 49.4667 116.922 51.0734 116.659 52.1261C116.414 53.1699 115.969 54.0641 115.324 54.8087C114.616 55.6346 113.677 56.2383 112.506 56.6194C111.344 57.0279 109.905 57.2324 108.19 57.2324C106.438 57.2324 104.994 57.0279 103.86 56.6194C102.707 56.2383 101.767 55.6346 101.041 54.8087C100.415 54.0823 99.9699 53.1881 99.7069 52.1261C99.4252 51.0553 99.2844 49.4486 99.2844 47.306V45.2364V36.767ZM119.799 56.7012V36.767H125.041L132.571 47.0202C132.761 47.3014 133.002 47.7238 133.292 48.2867C133.664 49.0126 134.027 49.7614 134.381 50.5333C134.245 49.489 134.168 48.7584 134.15 48.341C134.096 47.6871 134.068 47.1108 134.068 46.6117V36.767H139.283V56.7012H134.068L126.539 46.4076C126.43 46.2622 126.189 45.8355 125.817 45.1277C125.49 44.5467 125.127 43.8115 124.728 42.9219C124.819 43.6297 124.904 44.365 124.986 45.1277C125.023 45.981 125.041 46.5573 125.041 46.8566V56.7012H119.799ZM145.051 56.7012V41.4783H140.585V36.767H154.95V41.4783H150.484V56.7012H145.051ZM156.224 56.7012V36.767H168.438V41.1381H161.521V44.5964H168.043V48.8718H161.521V52.2353H168.438V56.7012H156.224ZM170.652 56.7012V36.767H176.33C177.428 36.767 178.354 36.7898 179.108 36.8354C179.87 36.8809 180.497 36.958 180.987 37.0668C181.831 37.2667 182.584 37.6115 183.247 38.1014C183.973 38.6461 184.522 39.3451 184.895 40.1984C185.285 41.0154 185.48 41.9412 185.48 42.9763C185.48 44.5105 185.099 45.7676 184.336 46.7478C183.592 47.728 182.489 48.368 181.027 48.6678L186.461 56.7012H180.32L175.745 48.8992V56.7012H170.652ZM175.745 46.1896H176.752C177.941 46.1896 178.799 45.9944 179.326 45.604C179.861 45.1686 180.129 44.5374 180.129 43.7115C180.129 42.7127 179.88 42.0049 179.38 41.5871C178.872 41.1604 178.023 40.9476 176.834 40.9476H175.745V46.1896ZM188.034 50.261C188.869 51.1868 189.668 51.8718 190.431 52.3166C191.23 52.7707 192.01 52.9975 192.773 52.9975C193.49 52.9975 194.085 52.8023 194.557 52.4119C195.028 52.022 195.265 51.527 195.265 50.9279C195.265 50.2745 195.069 49.7614 194.679 49.3895C194.262 49.0354 193.34 48.6678 191.915 48.2867C189.972 47.7601 188.597 47.0792 187.789 46.244C186.972 45.3907 186.564 44.2288 186.564 42.7583C186.564 40.8518 187.204 39.3 188.484 38.1014C189.746 36.8944 191.398 36.2906 193.44 36.2906C194.593 36.2906 195.637 36.4403 196.572 36.7401C197.552 37.0394 198.483 37.4842 199.363 38.0744L197.661 41.9821C197.062 41.4649 196.426 41.0652 195.755 40.784C195.101 40.5209 194.461 40.3889 193.835 40.3889C193.2 40.3889 192.668 40.5479 192.242 40.8658C191.833 41.1651 191.629 41.5648 191.629 42.0639C191.629 42.545 191.806 42.9442 192.16 43.2621C192.532 43.5619 193.231 43.8477 194.257 44.1201C194.293 44.1289 194.325 44.1382 194.352 44.147C194.38 44.147 194.421 44.1563 194.475 44.1744C196.69 44.7642 198.151 45.427 198.859 46.1622C199.322 46.6251 199.685 47.2107 199.948 47.919C200.185 48.5906 200.303 49.3528 200.303 50.2061C200.303 52.3124 199.608 54.0144 198.219 55.3125C196.822 56.5924 194.969 57.2324 192.664 57.2324C191.248 57.2324 189.982 57.001 188.865 56.5376C187.758 56.0747 186.664 55.3306 185.584 54.3049L188.034 50.261Z" fill="white"/>
<path d="M35.8573 71.1088C55.4931 71.1088 71.4112 55.1907 71.4112 35.5544C71.4112 15.9182 55.4931 0 35.8573 0C16.2209 0 0.302734 15.9182 0.302734 35.5544C0.302734 55.1907 16.2209 71.1088 35.8573 71.1088Z" fill="#012E2B"/>
<mask id="mask0_561_277" style="mask-type:alpha" maskUnits="userSpaceOnUse" x="0" y="0" width="72" height="72">
<path d="M35.8573 71.1088C55.4931 71.1088 71.4112 55.1907 71.4112 35.5544C71.4112 15.9182 55.4931 0 35.8573 0C16.2209 0 0.302734 15.9182 0.302734 35.5544C0.302734 55.1907 16.2209 71.1088 35.8573 71.1088Z" fill="#21BBB3"/>
</mask>
<g mask="url(#mask0_561_277)">
<path d="M42.9204 71.806H24.3298L24.3299 65.7641L25.027 53.6803L24.3299 51.8212L21.7737 43.6878V40.8993L26.1889 36.484C25.4453 35.3686 23.7102 31.6816 22.9355 29.9773C22.7496 28.8619 25.6466 27.034 27.1185 26.2592C27.6762 22.727 31.069 22.7735 32.6956 23.2382C33.6252 18.9624 36.9556 20.0624 38.5052 21.1468L39.4347 19.9848C42.2233 17.3821 44.4695 19.9848 45.2442 21.6114L45.709 24.6324L48.2652 25.5619C49.3806 26.4915 49.5043 27.6535 49.4271 28.1183L48.73 35.7869L47.5681 39.505L45.2442 43.4555C44.0047 44.9269 41.5261 48.0101 41.5261 48.5679C41.5261 49.1256 42.4557 64.2922 42.9204 71.806Z" fill="#21BBB3"/>
<path d="M54.9072 23.024L48.8123 25.674L48.5474 25.2765L57.4248 21.3015C57.0009 22.1495 56.453 28.9864 56.2322 32.2988H49.6075V31.6365H54.2449C54.2449 31.3186 55.128 30.4439 55.5699 30.0465C55.5699 29.6226 56.0115 25.6298 56.2322 23.6865C55.8084 23.5805 55.1721 23.2007 54.9072 23.024Z" fill="#21BBB3"/>
<path d="M19.14 39.9088L24.5832 35.936L24.9014 36.199L17.4856 41.9598C17.6255 41.1529 13.0373 30.7646 13.6177 29.6505L22.0133 31.4482L22.178 31.9962L15.4266 30.7646C15.5057 31.0276 14.7273 30.9105 14.4608 31.3492C14.5663 31.7001 17.0123 38.0748 17.6141 39.6903C17.9912 39.6727 18.8768 39.8288 19.14 39.9088Z" fill="#21BBB3"/>
<path fill-rule="evenodd" clip-rule="evenodd" d="M55.7308 17.3463C56.3247 17.9399 56.8829 18.6538 56.9712 18.9329C57.1223 19.4072 57.1925 19.4147 58.0736 19.0466L59.0148 18.6533L58.788 20.1763C58.5259 21.9395 58.5314 23.4453 58.8219 28.6555C59.0311 32.4075 59.0287 32.4317 58.4631 32.4317C58.0495 32.4317 57.8938 32.5943 57.8942 33.028L57.8947 33.6242L53.5594 33.5462L49.2241 33.4676L49.0438 35.4568C48.9448 36.5504 48.7286 37.8327 48.5636 38.3058C48.2843 39.1071 46.7464 41.7929 44.1619 45.9916C43.5633 46.9639 42.848 48.4544 42.5719 49.304C42.004 51.0524 42.0077 51.143 43.1896 64.2587C44.0373 73.6687 44.0568 72.9762 42.9479 72.9762H42.0477L41.8887 71.1878C41.5597 67.4897 40.9141 56.0272 40.8588 52.9045C40.8272 51.1203 40.7737 49.6591 40.7403 49.6586C40.5321 49.6525 37.8007 51.5335 37.5111 51.8825C37.3173 52.1153 37.0459 52.3064 36.9074 52.3064C36.4245 52.3064 37.737 50.9376 39.7169 49.3769C41.8283 47.7122 43.0887 46.0534 46.0414 41.0549C47.8065 38.0665 48.0808 37.0891 48.8128 31.1731C49.0698 29.0961 49.37 27.3969 49.4797 27.3969C49.7265 27.3969 49.7065 29.4474 49.4421 31.3055L49.2441 32.6966H50.7457C51.5716 32.6966 53.3256 32.7733 54.6437 32.8667L57.04 33.0368L57.0335 30.0181C57.0279 27.4582 57.4504 23.5839 58.0495 20.7054C58.141 20.264 58.0871 19.9767 57.9124 19.9767C57.7539 19.9767 55.4073 21.0465 52.6987 22.354L47.7726 24.7316L48.586 25.7182C49.6182 26.9702 49.4156 27.2291 48.2708 26.1199C47.095 24.9802 46.7334 25.0127 47.0694 26.2291C47.214 26.7527 47.2702 27.244 47.1935 27.3202C47.1173 27.3969 46.9821 27.1171 46.8933 26.6993C46.594 25.2873 46.4067 25.1487 44.6824 25.0652L43.0539 24.9865V25.9265C43.0539 27.1436 42.2889 27.9267 41.0995 27.9267C40.0111 27.9267 38.086 27.2746 37.4344 26.6844C36.523 25.8602 36.6801 26.5366 37.6989 27.8254C38.7153 29.1109 39.9604 30.1892 41.1665 30.8278C41.9008 31.2168 43.8984 31.3148 45.0412 31.0183C45.7779 30.8273 45.7974 30.8394 45.3066 31.1856C45.0147 31.3911 44.24 31.735 43.5837 31.9497C42.1378 32.4238 41.8896 33.1627 42.907 33.9631C43.8965 34.7415 43.7334 34.9525 42.6565 34.2865C41.8697 33.8004 41.7056 33.7739 41.5759 34.1118C41.3896 34.5979 41.8771 35.5595 42.6291 36.1879C43.0079 36.5049 43.0669 36.6568 42.8141 36.6629C42.6096 36.6675 41.9882 36.1949 41.4332 35.6116C40.3062 34.4269 39.6183 34.2972 38.6214 35.0817C37.8634 35.6776 36.45 35.7817 35.9188 35.2802C35.6409 35.0181 35.5424 35.0176 35.4476 35.2769C35.3811 35.4573 35.1231 35.8565 34.874 36.1646C34.3396 36.8241 32.2886 37.1504 31.4604 36.707C30.9951 36.4584 30.8961 36.5067 30.7604 37.0482C30.5159 38.0218 28.3153 38.6181 27.1892 38.0153C26.327 37.5543 24.6471 38.5954 23.2993 40.4265C22.1357 42.0072 22.0768 42.1685 22.2332 43.3466C22.513 45.4567 23.3491 48.38 24.2475 50.3887C25.0466 52.1762 25.1777 52.3249 26.1955 52.6029C27.2217 52.8831 31.3525 52.7841 32.9838 52.4402L33.6466 52.3008L32.9838 52.5373C30.6958 53.3549 28.9334 53.69 27.4769 53.5845L25.8906 53.4697L25.6954 62.9583L25.5002 72.4464H24.4372H23.374L23.5144 68.2728C23.5916 65.9774 23.8099 61.5654 23.9999 58.4682L24.3452 52.838L23.7283 51.5785C22.7459 49.5731 21.8908 46.8477 21.5357 44.5903C21.3549 43.4415 21.1207 42.5017 21.0155 42.5017C20.9103 42.5017 20.0125 43.5688 19.0203 44.8734C18.0282 46.178 17.1492 47.2516 17.0668 47.2586C16.9846 47.2655 16.7267 46.8723 16.4944 46.3848C16.2617 45.8973 15.1286 44.1874 13.9761 42.5854C11.8845 39.6783 10.9731 37.8648 10.4723 35.6116C9.98785 33.4332 10.0414 33.2975 11.4605 33.1023L12.7269 32.928L12.6315 31.1564C12.5793 30.1817 12.6352 29.1356 12.7563 28.8316L12.9765 28.279L16.554 29.0203C22.5027 30.2529 21.9565 30.2394 22.6177 29.1695C23.2105 28.2107 25.4249 26.6017 26.1518 26.6017C26.4139 26.6017 26.6658 26.1843 26.8536 25.4402C27.0507 24.6561 27.4625 24.0007 28.1196 23.4238C29.0264 22.6275 29.1993 22.5769 30.6475 22.6815L32.2021 22.7939L32.9151 21.6669C33.3073 21.0468 33.9064 20.4129 34.2461 20.2581C35.1334 19.8538 37.0129 19.9115 37.6575 20.3631C38.1725 20.7238 38.2519 20.6843 38.8431 19.7703C40.572 17.0986 43.9532 17.8464 45.4864 21.24L45.9977 22.3705L47.6392 21.1255C48.5427 20.4407 50.3116 19.0672 51.5707 18.0735C52.8297 17.0797 54.0381 16.2667 54.2556 16.2667C54.4736 16.2667 55.1373 16.7524 55.7308 17.3463ZM51.995 18.6061C50.9395 19.4555 49.1525 20.8414 48.0227 21.6857C46.7343 22.6487 45.9689 23.4066 45.9689 23.7187C45.9689 23.9928 46.0883 24.2167 46.2338 24.2167C46.3797 24.2167 46.469 24.1094 46.4327 23.9782C46.396 23.847 46.4722 23.7378 46.6019 23.7357C46.7311 23.7336 46.91 23.6244 46.9993 23.493C47.0885 23.3618 47.8767 22.8535 48.7514 22.3635C49.6256 21.8738 51.0566 20.9911 51.9313 20.4018C53.7086 19.2042 54.7032 19.002 55.1224 19.7533C55.3552 20.1707 55.471 20.1953 55.8618 19.9097C56.2931 19.5941 56.2955 19.5119 55.8985 18.7158C55.497 17.9108 54.5851 17.0617 54.1222 17.0617C54.0074 17.0617 53.05 17.7568 51.995 18.6061ZM40.6102 19.778C39.6825 20.5009 39.1322 21.8216 39.3525 22.7979C39.4682 23.3098 39.603 23.7575 39.6523 23.7924C40.0868 24.1022 42.2317 24.4817 43.5484 24.4817H45.1737V23.1005C45.1737 21.8344 45.0807 21.6245 44.0587 20.583C43.1543 19.6614 42.7629 19.4467 41.9896 19.4467C41.4648 19.4467 40.8439 19.5959 40.6102 19.778ZM52.2292 21.103C51.2937 21.7223 50.3065 22.3789 50.0369 22.5618C49.7669 22.7446 50.6542 22.3535 52.008 21.6926C53.3623 21.0314 54.3988 20.375 54.3114 20.2338C54.086 19.8691 54.1069 19.8606 52.2292 21.103ZM35.0056 21.0574C33.3691 22.3442 33.0866 24.1865 33.932 28.055C34.2829 29.6607 34.7592 31.4808 34.9912 32.1003C35.3992 33.1902 35.4503 33.2269 36.5746 33.2269C37.2132 33.2269 38.1669 33.021 38.6935 32.77C39.5328 32.3699 39.6332 32.2216 39.5035 31.5746C39.4227 31.1684 38.9291 30.4611 38.4067 30.0028C36.9882 28.7572 35.8491 26.9619 35.8198 25.9251C35.7873 24.7681 36.7475 23.6867 37.8086 23.6867C38.225 23.6867 38.6312 23.515 38.7121 23.3053C38.9612 22.6564 38.1962 21.4567 37.2234 20.971C36.0434 20.3811 35.8556 20.3885 35.0056 21.0574ZM28.7643 24.1078C28.1206 24.6494 27.9491 25.0029 27.9491 25.7887C27.9491 26.8605 28.6206 29.0356 29.4726 30.7218C29.7635 31.2981 30.2678 32.5646 30.5936 33.5369L31.1861 35.3039L32.1515 35.1561C32.6822 35.0743 33.3547 34.8796 33.6466 34.7229C33.938 34.5663 34.2559 34.4339 34.353 34.4283C34.8015 34.4051 34.776 33.9566 34.1876 31.4924C33.8413 30.0414 33.357 27.9128 33.1117 26.7616C32.8072 25.3344 32.467 24.4708 32.0418 24.0455C31.1829 23.1866 29.8281 23.2123 28.7643 24.1078ZM37.0951 24.5479C36.6903 25.1169 36.7099 25.177 37.5218 25.8631C38.3714 26.5808 40.3448 27.3969 41.2311 27.3969C41.8697 27.3969 42.4748 26.4626 42.3288 25.7012C42.2317 25.1924 41.8803 24.9743 40.4456 24.5312C38.1529 23.8232 37.6082 23.8261 37.0951 24.5479ZM25.4133 27.7901C23.9901 28.8758 23.709 29.2518 23.709 30.0711C23.709 31.9609 26.526 36.4068 27.7232 36.4068C28.0025 36.4068 28.6443 36.2339 29.15 36.0224C29.9387 35.6929 30.0688 35.692 30.0688 36.0141C30.0688 36.2204 29.7407 36.5676 29.3401 36.7851C28.9116 37.0175 28.7815 37.1848 29.0245 37.1908C29.2518 37.1969 29.658 37.0407 29.9271 36.8437C30.5917 36.358 30.3956 35.5214 28.788 31.9808C28.0736 30.4067 27.3449 28.6722 27.1687 28.1256C26.7909 26.9549 26.565 26.9117 25.4133 27.7901ZM13.365 32.1063C13.5176 32.9331 14.3468 35.1036 15.2075 36.9292C16.068 38.7552 16.9234 40.7858 17.1084 41.4416C17.2933 42.0974 17.4817 42.6825 17.5268 42.7424C17.5721 42.8015 18.2961 42.2554 19.1353 41.5285C19.9746 40.8016 21.1795 39.8335 21.8129 39.3771C22.446 38.9212 23.4943 38.059 24.1422 37.4618L25.3204 36.3761L24.6579 35.5888C24.2936 35.1556 23.5595 33.9194 23.0266 32.8411L22.058 30.8812L20.1672 30.4643C19.1274 30.2347 17.2032 29.8313 15.8915 29.5673L13.5065 29.0882L13.2969 29.8457C13.1813 30.2631 13.2118 31.2781 13.365 32.1063ZM40.4001 32.1003C40.3982 32.3554 40.3248 32.8328 40.2369 33.1604C39.9976 34.0528 40.586 33.8906 41.0847 32.9262C41.4388 32.2416 41.4518 32.0571 41.1576 31.8707C40.6153 31.5268 40.4043 31.5904 40.4001 32.1003ZM37.3317 34.1759C36.2925 34.3711 36.3785 34.8168 37.4549 34.8168C37.9085 34.8168 38.4541 34.5357 38.897 34.0732C39.8052 33.1256 39.8187 32.7579 38.9198 33.4653C38.5406 33.7637 37.8258 34.0834 37.3317 34.1759ZM10.989 34.379C10.989 35.3904 11.7816 37.7816 12.6087 39.2656C13.3849 40.6575 15.6286 43.8384 16.0137 44.0917C16.1244 44.1646 16.4212 44.6266 16.6732 45.1183C17.0752 45.9019 17.1794 45.9647 17.5186 45.6258C17.7314 45.413 17.9243 44.9891 17.9471 44.6838C17.9701 44.378 18.07 44.1786 18.1691 44.2399C18.2683 44.3008 18.8656 43.6664 19.4965 42.8303L20.6437 41.3091L18.8616 42.8819C17.6135 43.9834 17.1794 44.5183 17.4128 44.6666C17.6529 44.819 17.6163 44.8799 17.2827 44.8827C17.0275 44.8845 16.8182 44.7972 16.8174 44.6879C16.8057 43.1775 16.0351 40.8025 14.5196 37.6059C12.7696 33.9143 12.716 33.8376 11.8614 33.8055C11.1194 33.7776 10.989 33.8636 10.989 34.379ZM12.5581 34.4636C12.5695 34.6342 12.6476 34.9916 12.7316 35.2588C12.8766 35.7199 12.8689 35.7208 12.5803 35.2704C12.4131 35.0097 12.3352 34.6523 12.4068 34.4752C12.5008 34.2433 12.543 34.2401 12.5581 34.4636ZM33.6396 35.8254C33.721 35.9072 33.9347 35.8258 34.1146 35.6446C34.3744 35.3825 34.3437 35.3522 33.9664 35.4963C33.7052 35.5958 33.5578 35.744 33.6396 35.8254ZM38.5489 35.7952C38.5489 35.9146 38.1948 36.1688 37.7616 36.3608C36.5844 36.8818 34.387 38.9611 33.6071 40.2922C33.2283 40.9382 32.691 42.1466 32.4126 42.9781L31.907 44.489L32.0539 43.2964C32.2649 41.5838 33.6243 38.9653 34.8457 37.9196C36.022 36.9129 38.5489 35.4633 38.5489 35.7952ZM32.1668 38.6181C32.1789 38.7418 32.0199 39.457 31.8136 40.2081C31.6072 40.9596 31.3623 42.8154 31.2684 44.3324C31.1206 46.738 30.6484 48.5966 30.185 48.5966C30.1111 48.5966 30.1585 48.3879 30.2915 48.1328C30.4239 47.8776 30.5889 46.2305 30.6582 44.4723C30.7655 41.752 30.8854 41.0605 31.4645 39.8349C31.8387 39.0425 32.1547 38.495 32.1668 38.6181ZM15.5936 40.7895C15.6845 41.0261 15.7513 41.3593 15.7423 41.5294C15.733 41.6995 15.6111 41.5536 15.4715 41.2045C15.3318 40.855 15.265 40.5223 15.3231 40.4642C15.3811 40.4061 15.503 40.5525 15.5936 40.7895ZM16.0031 42.3911C15.9903 42.6997 15.9275 42.7624 15.843 42.5514C15.7664 42.3599 15.7759 42.1313 15.8639 42.0434C15.9519 41.9556 16.0144 42.1118 16.0031 42.3911ZM16.2681 43.4512C16.2553 43.7598 16.1925 43.8226 16.108 43.6116C16.0314 43.4201 16.0409 43.1914 16.1289 43.1036C16.2169 43.0153 16.2794 43.1719 16.2681 43.4512ZM36.5021 53.4404C36.583 53.6514 36.7359 57.9258 36.8414 62.9392C37.0087 70.8723 36.9817 72.0974 36.6369 72.3841C36.2934 72.669 36.2163 72.492 36.0694 71.0837C35.818 68.679 35.87 53.8224 36.1312 53.4106C36.3148 53.1211 36.3817 53.1262 36.5021 53.4404ZM33.6526 56.3702C33.7493 57.1478 33.8474 61.0132 33.8701 64.96C33.9064 71.265 33.8088 72.8526 33.4114 72.4246C33.3552 72.3637 33.2223 68.4086 33.1158 63.6354C32.9829 57.6614 33.0089 54.9564 33.1995 54.9564C33.3515 54.9564 33.555 55.5927 33.6526 56.3702Z" fill="white"/>
</g>
</svg>
