<svg width="28" height="28" viewBox="0 0 28 28" fill="none" xmlns="http://www.w3.org/2000/svg">
<path d="M13.9999 23.9167H8.16659C4.66659 23.9167 2.33325 22.1667 2.33325 18.0834V9.91671C2.33325 5.83337 4.66659 4.08337 8.16659 4.08337H19.8333C23.3333 4.08337 25.6666 5.83337 25.6666 9.91671V13.4167" stroke="#21BBB3" stroke-miterlimit="10" stroke-linecap="round" stroke-linejoin="round"/>
<path d="M19.8334 10.5L16.1817 13.4167C14.9801 14.3733 13.0084 14.3733 11.8067 13.4167L8.16675 10.5" stroke="white" stroke-miterlimit="10" stroke-linecap="round" stroke-linejoin="round"/>
<path d="M22.4118 17.2316L18.2818 21.3616C18.1185 21.525 17.9668 21.8283 17.9318 22.05L17.7101 23.625C17.6285 24.1966 18.0251 24.5933 18.5968 24.5116L20.1718 24.29C20.3935 24.255 20.7085 24.1033 20.8601 23.94L24.9901 19.81C25.7018 19.0983 26.0401 18.27 24.9901 17.22C23.9518 16.1816 23.1234 16.52 22.4118 17.2316Z" stroke="white" stroke-miterlimit="10" stroke-linecap="round" stroke-linejoin="round"/>
<path d="M21.8169 17.8267C22.1669 19.0867 23.1469 20.0667 24.4069 20.4167" stroke="#21BBB3" stroke-miterlimit="10" stroke-linecap="round" stroke-linejoin="round"/>
</svg>
