<svg width="75" height="72" viewBox="0 0 75 72" fill="none" xmlns="http://www.w3.org/2000/svg">
<path d="M59.375 27.2086C59.375 31.4498 58.0312 35.3401 55.7187 38.5868C52.3437 43.2667 47 46.5719 40.7813 47.4201C39.7188 47.5956 38.625 47.6833 37.5 47.6833C36.375 47.6833 35.2812 47.5956 34.2187 47.4201C28 46.5719 22.6563 43.2667 19.2813 38.5868C16.9688 35.3401 15.625 31.4498 15.625 27.2086C15.625 15.8891 25.4063 6.73395 37.5 6.73395C49.5937 6.73395 59.375 15.8891 59.375 27.2086Z" stroke="#21BBB3" stroke-width="1.5" stroke-linecap="round" stroke-linejoin="round"/>
<path d="M66.4061 54.908L61.2499 56.0487C60.0936 56.3119 59.1874 57.131 58.9374 58.2132L57.8436 62.5129C57.2499 64.8529 54.0624 65.5549 52.4061 63.7121L37.4999 47.6833L22.5936 63.7413C20.9374 65.584 17.7499 64.882 17.1561 62.5421L16.0624 58.2424C15.7811 57.1602 14.8749 56.3119 13.7499 56.0779L8.59363 54.9373C6.21863 54.4108 5.37488 51.632 7.09363 50.0233L19.2811 38.616C22.6561 43.2959 27.9999 46.6011 34.2186 47.4494C35.2811 47.6249 36.3749 47.7126 37.4999 47.7126C38.6249 47.7126 39.7186 47.6249 40.7811 47.4494C46.9999 46.6011 52.3436 43.2959 55.7186 38.616L67.9061 50.0233C69.6249 51.6027 68.7811 54.3815 66.4061 54.908Z" stroke="#21BBB3" stroke-width="1.5" stroke-linecap="round" stroke-linejoin="round"/>
<path d="M39.3124 18.3753L41.1562 21.8267C41.4062 22.2947 42.0624 22.7627 42.6562 22.8505L45.9999 23.3769C48.1249 23.6987 48.6249 25.1612 47.0937 26.5944L44.4999 29.0221C44.0624 29.4316 43.8124 30.2213 43.9687 30.8063L44.7187 33.819C45.3124 36.1883 43.9687 37.1242 41.7187 35.8665L38.5937 34.1407C38.0312 33.819 37.0937 33.819 36.5312 34.1407L33.4062 35.8665C31.1562 37.0949 29.8124 36.1883 30.4062 33.819L31.1562 30.8063C31.2812 30.2506 31.0624 29.4316 30.6249 29.0221L28.0312 26.5944C26.4999 25.1612 26.9999 23.7279 29.1249 23.3769L32.4687 22.8505C33.0312 22.7627 33.6874 22.2947 33.9374 21.8267L35.7812 18.3753C36.6874 16.5033 38.3124 16.5033 39.3124 18.3753Z" stroke="#21BBB3" stroke-width="1.5" stroke-linecap="round" stroke-linejoin="round"/>
</svg>
