<svg width="89" height="56" viewBox="0 0 89 56" fill="none" xmlns="http://www.w3.org/2000/svg">
<path fill-rule="evenodd" clip-rule="evenodd" d="M38.6675 55.9402C54.517 55.9397 70.3669 55.9443 86.2115 55.9541C87.3861 55.9541 88.2809 55.6745 88.8589 54.6304V48.6644C88.839 48.6113 88.8144 48.5606 88.7901 48.5106L88.79 48.5105L88.79 48.5104L88.7899 48.5103C88.746 48.4198 88.7031 48.3316 88.6911 48.2356C87.3301 40.7408 82.8183 36.1358 75.5845 34.0849C74.9878 33.9222 74.3812 33.8088 73.6929 33.6801L73.6922 33.68C73.4345 33.6318 73.1655 33.5815 72.8812 33.5256C79.9099 32.2392 83.1539 26.4783 82.6505 21.3326C82.0726 15.553 77.2811 11.209 71.5575 11.1904C65.8152 11.1717 61.0424 15.4225 60.3898 21.258C59.8119 26.3478 63 32.2206 69.9541 33.5629C65.7592 34.1036 62.0491 35.707 58.9356 38.6713C54.7967 33.4697 49.4832 30.5613 42.9579 29.8528C52.1866 28.3613 56.5865 20.3258 56.0085 13.7259C55.3933 6.54805 49.7815 0.861691 42.4918 0.0786517C35.6868 -0.648457 29.0496 3.73284 26.9428 10.4446C25.5632 14.8632 26.1411 19.114 28.6581 23.0105C31.1563 26.8698 34.7919 29.0511 39.3223 29.8342C37.4348 30.0673 35.6267 30.4658 33.89 31.0689C34.6231 32.1069 35.2934 33.1924 35.8956 34.3197C37.553 33.8379 39.3195 33.5784 41.1681 33.5816C52.1679 33.5816 59.8491 42.6611 59.7559 52.1322H39.3242C39.1841 53.4273 38.9635 54.6984 38.6675 55.9402ZM21.8332 20.9493C21.0497 15.2732 16.3446 11.172 10.7041 11.1904C5.6729 11.2067 1.36201 14.5652 -4.69076e-07 19.303C1.46254 18.8693 2.97058 18.5414 4.51526 18.3283C5.8618 16.2641 8.18918 14.8885 10.7787 14.9005C13.7504 14.9276 16.3666 16.7622 17.5418 19.3115C19.022 19.752 20.4556 20.301 21.8332 20.9493ZM52.3357 14.9378C52.3543 8.78531 47.3205 3.73284 41.1681 3.71419C35.0529 3.71419 30.0191 8.69209 29.9818 14.8259C29.9445 20.997 34.9597 26.0681 41.1121 26.0868C47.2459 26.1054 52.3171 21.0902 52.3357 14.9378ZM85.2793 52.1508C85.2322 51.6563 85.2037 51.1674 85.1756 50.6852C85.1147 49.6403 85.0556 48.6272 84.8132 47.6576C83.5268 42.512 80.2082 39.212 75.1557 37.8137C69.9914 36.3968 65.4237 37.7578 61.5085 41.412C61.0717 41.8123 61.1678 42.1238 61.3113 42.5892L61.322 42.6238L61.3934 42.8398L61.3934 42.84C62.0406 44.7989 62.6829 46.7429 63.1864 48.739C63.378 49.4926 63.4383 50.2725 63.4993 51.0607L63.4993 51.0608L63.4993 51.061L63.4993 51.0611L63.4993 51.0612L63.4993 51.0614C63.5273 51.4234 63.5555 51.7871 63.5966 52.1508H85.2793ZM78.9963 22.3394C78.9777 18.2936 75.6218 14.9378 71.5761 14.9005C67.5118 14.8818 64.0813 18.2936 64.0999 22.358C64.1186 26.4037 67.4745 29.7596 71.5202 29.7969C75.5659 29.8342 78.9963 26.4037 78.9963 22.3394Z" fill="url(#paint0_linear_686_815)"/>
<defs>
<linearGradient id="paint0_linear_686_815" x1="-32.9438" y1="-29.6494" x2="99.9296" y2="86.7519" gradientUnits="userSpaceOnUse">
<stop stop-color="#008A81"/>
<stop offset="1" stop-color="white"/>
</linearGradient>
</defs>
</svg>
