<svg width="20" height="48" viewBox="0 0 20 48" fill="none" xmlns="http://www.w3.org/2000/svg">
<path d="M0.00668144 3.37852C-0.0067749 4.478 0.316185 5.16961 0.78717 5.79028C3.98987 9.99313 7.17911 14.2137 10.3818 18.4343C11.2969 19.6402 12.2119 20.8461 13.127 22.0519C14.1766 23.4352 14.1766 25.0666 13.127 26.4321C9.02268 31.8409 4.91838 37.2496 0.814083 42.6583C0.383469 43.2258 0.0470505 43.8287 0.00668144 44.6622C-0.0606022 45.8858 0.383469 46.9853 1.19087 47.4996C2.01173 48.0316 2.94025 47.8542 3.61308 46.9853C4.58197 45.744 5.52394 44.4849 6.47936 43.2258C10.7182 37.6397 14.9571 32.0714 19.1825 26.4853C20.2725 25.0489 20.2725 23.4529 19.1825 22.0165C14.0555 15.2423 8.91503 8.46805 3.77456 1.71157C2.52309 0.0623472 0.598778 0.594354 0.0874214 2.74011C0.0201378 2.98838 0.00668144 3.28985 0.00668144 3.37852Z" fill="white"/>
</svg>
