<svg width="61" height="39" viewBox="0 0 61 39" fill="none" xmlns="http://www.w3.org/2000/svg">
<path fill-rule="evenodd" clip-rule="evenodd" d="M15.2726 0.179761C9.36083 0.0788178 4.40137 6.54683 4.40137 6.54683H5.12772C15.5235 -3.41876 25.5096 6.45217 18.6793 17.3603C15.0222 23.5753 10.1125 24.4847 10.1125 24.4847C14.9132 23.6956 17.7999 19.883 17.7999 19.883C23.274 15.4536 26.1652 -0.101535 15.2726 0.179761Z" fill="url(#paint0_linear_55_197)"/>
<path fill-rule="evenodd" clip-rule="evenodd" d="M1.19434 12.206C1.19434 12.206 2.69685 8.46702 3.64915 7.70882L3.84931 8.0121C3.84931 8.0121 1.79525 10.6398 1.19434 12.206Z" fill="#FEF246"/>
<path fill-rule="evenodd" clip-rule="evenodd" d="M40.6572 30.1651V24.0471C44.6924 23.1852 44.0373 30.6286 40.6572 30.1651ZM48.789 38.6332C49.2285 33.2096 49.4922 27.6088 48.789 22.0964H53.9758C53.3161 26.8403 53.2721 31.8942 53.756 36.3281C55.763 36.9041 57.8144 36.2392 59.7777 36.062L59.602 38.6332C56.5249 38.4856 53.5359 38.4264 50.5032 38.456L48.789 38.6332ZM35.9535 38.6332C36.5691 33.1064 36.7448 27.5792 35.9535 22.052H43.2944C51.5307 21.9604 48.3211 33.3747 40.6572 30.9633C40.6572 33.5201 40.877 36.0768 41.0527 38.6332H35.9535ZM29.3163 38.5892C29.8732 33.0916 30.0346 27.5496 29.2727 22.0964H34.459C33.9319 27.6972 33.8879 33.1212 34.459 38.6332L29.3163 38.5892Z" fill="#FEFEFE"/>
<path d="M9.705 36.7463C9.705 36.7463 9.71701 35.9307 9.93096 35.8473C9.93096 35.8473 10.9535 35.081 11.143 34.7575C11.143 34.7575 11.8325 33.6543 12.1056 33.4744C12.1056 33.4744 12.3769 32.8521 12.5085 32.8163L13.0196 31.6296C13.0196 31.6296 14.2317 30.7534 14.41 30.347C14.41 30.347 14.6827 29.7489 14.8255 29.7242C14.8255 29.7242 15.0283 27.7112 14.8731 27.0279C14.8731 27.0279 14.7788 25.6865 14.6716 25.5542C14.6716 25.5542 14.3989 23.9126 13.959 23.6124C13.959 23.6124 15.7876 22.6542 16.6789 21.8511C16.6789 21.8511 18.391 20.4132 18.7708 19.9098L19.1983 20.2804C19.1983 20.2804 19.4958 20.2804 19.4478 20.8556C19.4478 20.8556 20.1964 21.6712 20.2911 21.8385L20.8849 22.4734C20.8849 22.4734 21.4663 22.7609 21.9182 23.7443C21.9182 23.7443 23.3798 26.4294 23.4154 26.8126C23.4154 26.8126 24.1159 26.1414 24.7342 26.5246C24.7342 26.5246 25.211 26.9077 24.9014 27.4111L23.4865 29.2572C23.4865 29.2572 22.7028 29.5807 22.4889 29.6166C22.4889 29.6166 21.8715 29.8211 21.0517 30.875L17.3448 34.3735L16.7265 34.5529C16.7265 34.5529 16.4761 35.3937 16.5362 35.7284C16.5362 35.7284 16.477 36.3865 16.2991 36.5068C16.2991 36.5068 15.5972 36.4359 15.4313 36.0877L14.7307 35.1765C14.7307 35.1765 13.3163 36.5081 12.5085 37.8495C12.5085 37.8495 12.5908 38.3282 12.4018 38.4718C12.4018 38.4718 10.1916 39.0236 9.79974 38.0887C9.79974 38.0887 9.74059 37.3215 9.63384 37.3215C9.63384 37.3215 9.5858 36.7463 9.705 36.7463Z" fill="white"/>
<path d="M10.1458 37.7411V37.0099C10.1458 37.0099 10.3819 36.5551 10.7982 36.6986C10.7982 36.6986 11.9044 36.8314 11.928 37.2378L12.0458 37.6693C12.0458 37.6693 12.2117 37.9447 11.9035 38.0524C11.9035 38.0524 10.764 38.2802 10.1458 37.7411Z" fill="#293778"/>
<path d="M15.8122 35.7638L15.4439 35.1528C15.4439 35.1528 15.3492 34.9357 15.6218 34.9483C15.6218 34.9483 16.0964 34.8043 16.2156 34.8043C16.2156 34.8043 16.3001 35.4875 16.2045 35.8826C16.2045 35.8826 15.9674 36.0042 15.8122 35.7638Z" fill="#293778"/>
<path d="M16.7983 28.0702C16.7983 28.0702 17.2974 27.6644 18.2594 27.7831C18.2594 27.7831 19.1383 27.9972 19.2575 28.2251C19.2575 28.2251 18.1758 27.7338 17.4989 27.938L17.7728 27.9739C17.7728 27.9739 16.9767 28.0106 16.7983 28.0702Z" fill="#293778"/>
<path d="M22.2288 28.9919C22.2288 28.9919 22.7754 28.237 23.0841 28.237C23.0841 28.237 24.0452 27.9127 23.4515 26.895C23.4515 26.895 24.2712 26.1894 24.7346 26.6321C24.7346 26.6321 24.9019 26.9062 24.8663 27.0744C24.8663 27.0744 24.2601 27.7701 23.8913 28.0217C23.8913 28.0217 23.0018 28.7887 22.799 28.7762C22.799 28.7762 22.5494 29.0045 22.2288 28.9919Z" fill="#293778"/>
<path d="M6.58807 12.5866C6.58807 12.5866 5.88752 11.496 5.94668 10.9329C5.94668 10.9329 5.74385 10.5377 6.42127 9.57939C6.42127 9.57939 7.32332 8.18951 8.95171 8.9679C8.95171 8.9679 9.43965 9.09935 9.96228 10.1779C9.96228 10.1779 10.6517 10.5386 10.7465 10.5265C10.7465 10.5265 10.8768 10.8253 10.1762 11.1487L10.3777 11.6409C10.3777 11.6409 10.9124 11.5328 10.9244 11.4489L10.9724 11.688L10.972 11.6884L10.9875 11.7647L10.9955 11.7598L11.0547 12.0361C11.0547 12.0361 11.9105 11.2084 12.4447 10.6454C12.4447 10.6454 12.6947 9.74673 12.885 9.38738C12.885 9.38738 12.6342 8.00961 12.6947 7.9616C12.6947 7.9616 13.2404 7.48156 13.9063 7.58968C13.9063 7.58968 13.7279 6.91987 13.4197 6.96697V6.82341C13.4197 6.82341 12.4447 6.95576 12.5283 7.75792C12.5283 7.75792 12.1596 7.93783 11.7085 7.57847L11.4114 6.75163C11.4114 6.75163 11.1036 6.53449 10.794 7.01453C10.794 7.01453 7.44385 7.72203 4.94856 8.10517C4.94856 8.10517 1.37107 8.65699 0.219052 8.2254C0.219052 8.2254 -0.23197 7.40978 0.160339 6.95486L0.872901 6.96697C0.872901 6.96697 0.136765 7.11099 0.065598 7.32678C0.065598 7.32678 3.55857 7.6018 5.18608 7.02664C5.18608 7.02664 10.1771 6.14013 10.794 5.98401C10.794 5.98401 10.7118 5.757 10.5445 5.81667C10.5445 5.81667 5.71939 6.63139 4.78176 6.59505C4.78176 6.59505 9.76035 5.72021 10.4734 5.73232C10.4734 5.73232 10.6762 5.61343 11.0436 5.99657C11.0436 5.99657 11.2108 5.90101 11.2575 5.81667C11.2575 5.81667 11.2331 6.24826 11.447 6.24826C11.447 6.24826 11.4604 6.48738 11.5426 6.48738L11.8633 6.95486C11.8633 6.95486 13.3014 6.47527 13.5745 6.36714C13.5745 6.36714 13.5509 6.06835 13.5028 6.05579L11.7797 6.61883L11.3878 5.89966L11.7677 6.43893C11.7677 6.43893 12.9562 6.07957 13.5264 5.94812L13.3485 5.25273C13.3485 5.25273 13.5144 5.6731 13.562 5.12128L13.6456 5.48064C13.6456 5.48064 14.0491 5.44474 13.7639 5.87633C13.7639 5.87633 13.8716 6.59505 13.9307 6.73907L14.6905 7.11099L14.3106 7.35011L14.7505 7.36267C14.7505 7.36267 14.1567 7.75792 14.3231 8.0455C14.3231 8.0455 14.6905 8.40396 15.1539 8.12895C15.1539 8.12895 15.3812 8.34474 15.4635 8.34474C15.4635 8.34474 15.5458 8.56143 15.2731 8.69288L14.7505 10.9814C14.7505 10.9814 14.6193 11.5938 14.4173 11.7486L13.0154 14.4328C13.0154 14.4328 15 16.0873 15.214 16.566L16.6756 18.8545L16.6631 19.1188L17.043 19.2987C17.043 19.2987 15.214 21.9116 12.7423 23.3248C12.7423 23.3248 12.4447 22.7967 12.6947 22.0058C12.6947 22.0058 12.3513 21.0475 12.434 21.0475C12.434 21.0475 12.2903 20.5446 12.0528 20.4005L9.56997 18.1717L7.80014 16.5055C7.80014 16.5055 7.53726 16.3022 7.56173 15.0079C7.56173 15.0079 7.01596 14.8518 7.18187 14.3969C7.18187 14.3969 6.80202 13.7733 6.89676 13.6656C6.89676 13.6656 7.34911 13.6656 7.40827 13.5575C7.40827 13.5575 7.77656 14.0025 8.08525 13.9778C8.08525 13.9778 7.34778 13.3776 7.24103 13.4498C7.24103 13.4498 6.71973 13.2102 6.65968 12.9944C6.65968 12.9944 7.14718 13.4633 7.05155 13.151L6.70639 12.9226C6.70639 12.9226 6.6708 12.5978 6.58807 12.5866Z" fill="white"/>
<path d="M11.4983 4.90013L13.2805 4.72052V4.89117C13.2805 4.89117 12.9505 4.72052 12.8348 5.02554C12.8348 5.02554 12.5231 4.65781 12.3536 5.03449C12.3536 5.03449 11.9351 4.71156 11.819 5.16035C11.819 5.16035 11.5517 4.90908 11.4983 4.90013Z" fill="white"/>
<path d="M13.6179 4.83729C13.6179 4.83729 13.7158 4.60405 14.0636 4.72964C14.0636 4.72964 15.2841 4.59508 15.4802 5.00819C15.4802 5.00819 15.6675 5.42174 15.6675 5.61013L16.2732 5.7272L16.2021 6.41886L15.8903 6.58078C15.8903 6.58078 15.8276 7.29038 15.8098 7.4523C15.8098 7.4523 15.6136 6.38297 15.2218 6.63461C15.2218 6.63461 14.8833 6.60769 14.7583 6.4368L14.2864 6.19414L14.7583 6.25738C14.7583 6.25738 15.293 6.35606 14.9723 5.94295C14.9723 5.94295 15.7119 6.05957 15.3824 5.75411L15.5603 5.69132C15.5603 5.69132 15.4268 4.94539 15.2752 4.89156C15.2752 4.89156 15.0884 4.92745 15.1239 5.07995C15.1239 5.07995 14.8744 4.62199 14.6338 4.98127C14.6338 4.98127 14.4376 4.72067 14.197 4.84671C14.197 4.84671 13.9119 4.69376 13.6179 4.83729Z" fill="white"/>
<path d="M6.82442 12.3835C6.82442 12.3835 6.77105 12.815 6.9583 12.9585C6.9583 12.9585 7.99196 13.8574 8.28551 13.9382C8.28551 13.9382 9.72926 14.0548 10.968 13.1743C10.968 13.1743 10.9235 12.4194 10.8875 12.4014L11.137 12.2036V12.087L10.8608 12.2938L10.7095 11.9161L11.0035 11.7457L10.9591 11.6286C10.9591 11.6286 9.75595 12.2759 8.25927 12.5813L7.50182 12.7612C7.50182 12.7612 7.09173 12.8688 7.06504 12.1947L7.02057 12.231C7.02057 12.231 6.97609 12.8868 7.49292 12.8868C7.49292 12.8868 10.2461 12.1857 10.6024 11.9794C10.6024 11.9794 10.754 12.096 10.8074 13.1563C10.8074 13.1563 8.65112 14.2616 7.99196 13.5968L7.06504 12.9137C7.06504 12.9137 6.78884 12.5544 6.82442 12.3835Z" fill="#293778"/>
<path d="M8.4314 13.8122L8.85037 12.5719L8.9927 12.5091L8.58306 13.8032L8.4314 13.8122Z" fill="#293778"/>
<path d="M9.97459 13.4977C9.97459 13.4977 9.87673 12.4015 9.70728 12.2485L9.88563 12.2216C9.88563 12.2216 10.0457 13.138 10.0996 13.4618L9.97459 13.4977Z" fill="#293778"/>
<path d="M7.47949 12.9404C7.47949 12.9404 7.49728 13.4706 9.06557 13.1108C9.06557 13.1108 10.5533 12.8323 11.1058 12.1855L11.088 12.0779C11.088 12.0779 10.3932 12.7785 9.19011 12.9045C9.19011 12.9045 8.09417 13.2728 7.47949 12.9404Z" fill="#293778"/>
<path fill-rule="evenodd" clip-rule="evenodd" d="M26.0676 17.7908H43.5338H61.0001V3.51828H26.0676V17.7908Z" fill="#008CD3"/>
<path fill-rule="evenodd" clip-rule="evenodd" d="M52.2412 9.79383C52.5214 9.74044 54.4612 9.77095 54.9056 9.77095C55.3054 9.77095 55.8347 9.73461 56.2017 9.82927C58.0925 10.3192 58.0809 13.3134 56.0295 13.6665C55.7271 13.719 53.8202 13.6898 53.3594 13.6898C52.972 13.6898 52.4058 13.7257 52.0642 13.6333C50.954 13.33 50.4291 12.1178 50.7792 11.0446C50.9838 10.4138 51.5055 9.9356 52.2412 9.79383ZM58.7784 12.1021C58.9123 10.8432 58.3745 9.84273 57.7024 9.28283C57.3444 8.98404 56.9561 8.7642 56.3934 8.63141C55.9121 8.51566 55.0683 8.56546 54.5199 8.56546C53.8687 8.56546 53.2176 8.56591 52.5664 8.56546C51.937 8.56366 51.4624 8.70633 51.0087 8.97147C49.0894 10.0841 48.984 12.8118 50.5661 14.1761C51.5465 15.0231 52.4997 14.9011 53.7446 14.9011C54.3963 14.9011 55.0483 14.9011 55.6986 14.9011C57.271 14.8993 58.6009 13.7795 58.7784 12.1021ZM40.2825 9.42729C40.3171 9.63097 40.6445 10.0661 40.7619 10.238L42.3063 12.5278C42.6078 12.9774 43.0251 13.6229 43.3364 14.0541C43.65 14.4897 44.1886 14.9666 45.0133 14.9289C45.7868 14.8926 46.2187 14.3986 46.5501 13.9146C46.8868 13.422 47.2262 12.9051 47.5798 12.3878L49.3839 9.71038C49.749 9.16618 49.2913 8.56905 48.7611 8.67223C48.4298 8.73863 48.2848 9.03832 48.1131 9.30257L47.0869 10.8306C46.7431 11.3286 46.4024 11.8558 46.0563 12.3555C45.8802 12.6108 45.7205 12.8589 45.5435 13.12C45.4003 13.3309 45.1703 13.7163 44.7798 13.6221C44.492 13.5507 44.2923 13.1896 44.1495 12.9724C43.9765 12.7122 43.8146 12.4753 43.6367 12.2079C43.2928 11.7023 42.9646 11.2205 42.607 10.6826C42.2609 10.1608 41.9384 9.68346 41.5781 9.15542C41.418 8.91943 41.2383 8.59238 40.8002 8.67223C40.4875 8.72742 40.2162 9.03518 40.2825 9.42729ZM28.2747 9.408C28.3046 9.63456 28.631 10.0509 28.7489 10.2241L30.8043 13.2762C31.3149 14.0474 31.8109 14.9711 32.9829 14.9298C34.0615 14.8899 34.5072 13.976 35.0574 13.1546L36.6004 10.8661C36.7641 10.6162 36.9394 10.3605 37.1151 10.1034C37.3117 9.81895 37.5514 9.53855 37.5083 9.22361C37.4607 8.89745 37.1658 8.61346 36.7806 8.66909C36.4452 8.7171 36.3002 9.00826 36.1187 9.28462C35.7691 9.81716 35.4502 10.2784 35.0921 10.8122C34.747 11.3268 34.4165 11.8297 34.0647 12.3385C33.8827 12.5987 33.7271 12.8401 33.5491 13.1016C33.3979 13.321 33.1902 13.6974 32.8005 13.6261C32.4919 13.57 32.3166 13.216 32.152 12.9783C31.3002 11.7553 30.4178 10.4107 29.5798 9.16035C29.4085 8.90732 29.2328 8.60359 28.8032 8.66999C28.494 8.7171 28.2227 9.01948 28.2747 9.408ZM38.7826 8.67717C38.1497 8.80907 38.2524 9.35371 38.2524 10.0213V13.8114C38.2524 14.1299 38.207 14.4179 38.3618 14.649C38.6581 15.0958 39.3528 14.989 39.5054 14.4812C39.5654 14.2833 39.5343 11.9863 39.5343 11.6736C39.5343 11.0442 39.5339 10.4107 39.5339 9.78037C39.5339 9.45959 39.577 9.18099 39.4258 8.94815C39.3141 8.77677 39.0735 8.61481 38.7826 8.67717ZM38.8093 6.39674C38.7003 6.44161 38.6331 6.53806 38.5558 6.61388L38.0963 7.07643C37.7947 7.38285 38.0416 7.50219 38.4179 7.88443C38.4984 7.96653 38.5669 8.03248 38.6469 8.11592C38.949 8.42055 39.0588 8.19623 39.4556 7.79694C40.0027 7.24915 39.9867 7.36221 39.1344 6.5098C39.0628 6.43892 38.9654 6.33304 38.8093 6.39674Z" fill="#FEFEFE"/>
<defs>
<linearGradient id="paint0_linear_55_197" x1="6.28819" y1="1.42429" x2="21.9397" y2="14.2702" gradientUnits="userSpaceOnUse">
<stop stop-color="#FEF246"/>
<stop offset="1" stop-color="#F989E5"/>
</linearGradient>
</defs>
</svg>
