<svg version="1.2" xmlns="http://www.w3.org/2000/svg" viewBox="0 0 27 27" width="27" height="27"><style>.a{fill:none;stroke:#868686;stroke-linecap:round;stroke-linejoin:round;stroke-width:1.5}</style><path class="a" d="m13 17.1c-1.9 0-3.5-1.6-3.5-3.5 0-2 1.6-3.5 3.5-3.5 1.9 0 3.5 1.5 3.5 3.5 0 1.9-1.6 3.5-3.5 3.5z"/><path class="a" d="m1.3 14.6v-2.1c0-1.2 1-2.2 2.2-2.2 2.2 0 3-1.5 2-3.3-0.6-1.1-0.3-2.4 0.8-3l2-1.2c0.9-0.5 2.1-0.2 2.7 0.7l0.1 0.2c1 1.9 2.8 1.9 3.8 0l0.2-0.2c0.5-0.9 1.7-1.2 2.6-0.7l2 1.2c1.1 0.6 1.5 1.9 0.8 3-1 1.8-0.2 3.3 2 3.3 1.2 0 2.2 1 2.2 2.2v2.1c0 1.2-1 2.2-2.2 2.2-2.2 0-3 1.5-2 3.3 0.7 1.1 0.3 2.5-0.8 3.1l-2 1.1c-0.9 0.6-2.1 0.2-2.6-0.7l-0.2-0.2c-1-1.8-2.8-1.8-3.8 0l-0.1 0.2c-0.6 0.9-1.8 1.3-2.7 0.7l-2-1.1c-1.1-0.6-1.4-2-0.8-3.1 1-1.8 0.2-3.3-2-3.3-1.2 0-2.2-1-2.2-2.2z"/></svg>