<svg width="10" height="9" viewBox="0 0 10 9" fill="none" xmlns="http://www.w3.org/2000/svg">
<path d="M4.37907 1.13087C4.63535 0.342132 5.75121 0.342132 6.00749 1.13087L6.44264 2.47012C6.55725 2.82286 6.88596 3.06168 7.25684 3.06168H8.66501C9.49434 3.06168 9.83916 4.12292 9.16822 4.61039L8.02899 5.43809C7.72893 5.6561 7.60338 6.04252 7.71799 6.39525L8.15314 7.7345C8.40941 8.52324 7.50666 9.17913 6.83572 8.69166L5.69649 7.86396C5.39643 7.64595 4.99013 7.64595 4.69007 7.86396L3.55084 8.69166C2.8799 9.17913 1.97715 8.52324 2.23343 7.7345L2.66857 6.39525C2.78318 6.04252 2.65763 5.6561 2.35757 5.43809L1.21834 4.61039C0.547398 4.12292 0.892218 3.06168 1.72155 3.06168H3.12972C3.50061 3.06168 3.82931 2.82286 3.94393 2.47012L4.37907 1.13087Z" fill="#FFB61D"/>
</svg>
