<svg width="10" height="9" viewBox="0 0 10 9" fill="none" xmlns="http://www.w3.org/2000/svg">
<path d="M4.07731 1.13087C4.33359 0.342132 5.44945 0.342132 5.70573 1.13087L6.14088 2.47012C6.25549 2.82286 6.5842 3.06168 6.95509 3.06168H8.36325C9.19258 3.06168 9.53741 4.12292 8.86646 4.61039L7.72723 5.43809C7.42718 5.6561 7.30162 6.04252 7.41623 6.39525L7.85138 7.7345C8.10766 8.52324 7.20491 9.17913 6.53396 8.69166L5.39473 7.86396C5.09468 7.64595 4.68837 7.64595 4.38831 7.86396L3.24908 8.69166C2.57814 9.17913 1.67539 8.52324 1.93167 7.7345L2.36681 6.39525C2.48143 6.04252 2.35587 5.6561 2.05581 5.43809L0.916585 4.61039C0.24564 4.12292 0.59046 3.06168 1.41979 3.06168H2.82796C3.19885 3.06168 3.52756 2.82286 3.64217 2.47012L4.07731 1.13087Z" fill="white"/>
</svg>
