<svg version="1.2" xmlns="http://www.w3.org/2000/svg" viewBox="0 0 27 27" width="27" height="27"><defs><clipPath clipPathUnits="userSpaceOnUse" id="cp1"><path d="m-2 16.06c0-9.3 7.54-16.84 16.85-16.84h2.3c9.31 0 16.85 7.54 16.85 16.84 0 9.31-7.54 16.85-16.85 16.85h-2.3c-9.31 0-16.85-7.54-16.85-16.85z"/></clipPath><clipPath clipPathUnits="userSpaceOnUse" id="cp2"><path d="m-2-0.78h36v33.69h-36z"/></clipPath></defs><style>.a{fill:none;stroke:#868686;stroke-linecap:round;stroke-linejoin:round;stroke-width:1.5}</style><g clip-path="url(#cp1)"><g clip-path="url(#cp2)"><path class="a" d="m18.8 23.4h-11.6c-3.5 0-5.9-1.7-5.9-5.5v-7.6c0-3.9 2.4-5.5 5.9-5.5h11.6c3.5 0 5.9 1.6 5.9 5.5v7.6c0 3.8-2.4 5.5-5.9 5.5z"/><path class="a" d="m18.8 10.8l-3.6 2.7c-1.2 0.9-3.2 0.9-4.4 0l-3.6-2.7"/></g></g></svg>