<svg width="26" height="26" viewBox="0 0 26 26" fill="none" xmlns="http://www.w3.org/2000/svg">
<g clip-path="url(#clip0_16_3091)">
<path d="M19.5345 14.0851C19.1806 14.4306 18.9784 14.9277 19.0289 15.4586C19.1048 16.3686 19.939 17.0342 20.849 17.0342H22.45V18.0369C22.45 19.7811 21.026 21.2051 19.2817 21.2051H10.7627C11.0239 20.986 11.2514 20.7164 11.4283 20.413C11.7401 19.9075 11.9171 19.3092 11.9171 18.6773C11.9171 16.8152 10.4088 15.3069 8.54653 15.3069C7.75445 15.3069 7.02136 15.585 6.43994 16.0484V12.3663C6.43994 10.6221 7.86399 9.19812 9.60825 9.19812H19.2817C21.026 9.19812 22.45 10.6221 22.45 12.3663V13.5796H20.7479C20.276 13.5796 19.8463 13.765 19.5345 14.0851Z" stroke="white" stroke-width="1.5" stroke-linecap="round" stroke-linejoin="round"/>
<path d="M6.43994 13.1246V9.27396C6.43994 8.27128 7.05506 7.37809 7.99039 7.0242L14.6809 4.49643C15.7258 4.10041 16.8465 4.87562 16.8465 5.99626V9.19811" stroke="white" stroke-width="1.5" stroke-linecap="round" stroke-linejoin="round"/>
<path d="M23.3425 14.4392V16.175C23.3425 16.6384 22.9717 17.0175 22.4999 17.0344H20.8483C19.9382 17.0344 19.104 16.3687 19.0282 15.4587C18.9776 14.9279 19.1799 14.4308 19.5338 14.0853C19.8455 13.7651 20.2753 13.5798 20.7472 13.5798H22.4999C22.9717 13.5966 23.3425 13.9758 23.3425 14.4392Z" stroke="white" stroke-width="1.5" stroke-linecap="round" stroke-linejoin="round"/>
<path d="M10.2319 12.7791H16.1304" stroke="white" stroke-width="1.5" stroke-linecap="round" stroke-linejoin="round"/>
<path d="M11.9174 18.6773C11.9174 19.3093 11.7404 19.9075 11.4286 20.4131C11.2517 20.7164 11.0242 20.986 10.7629 21.2051C10.1731 21.7359 9.39787 22.0477 8.54681 22.0477C7.31656 22.0477 6.24642 21.3905 5.665 20.4131C5.35322 19.9075 5.17627 19.3093 5.17627 18.6773C5.17627 17.6156 5.665 16.6635 6.44022 16.0484C7.02164 15.585 7.75473 15.3069 8.54681 15.3069C10.409 15.3069 11.9174 16.8152 11.9174 18.6773Z" stroke="white" stroke-width="1.5" stroke-miterlimit="10" stroke-linecap="round" stroke-linejoin="round"/>
<path d="M7.2334 18.6769L8.0676 19.5111L9.86242 17.8512" stroke="white" stroke-width="1.5" stroke-linecap="round" stroke-linejoin="round"/>
</g>
<defs>
<clipPath id="clip0_16_3091">
<rect width="26" height="26" fill="white"/>
</clipPath>
</defs>
</svg>
