<svg version="1.2" xmlns="http://www.w3.org/2000/svg" viewBox="0 0 27 27" width="27" height="27"><defs><clipPath clipPathUnits="userSpaceOnUse" id="cp1"><path d="m-6 11.42c0-9.31 7.54-16.85 16.85-16.85h2.3c9.31 0 16.85 7.54 16.85 16.85 0 9.3-7.54 16.84-16.85 16.84h-2.3c-9.31 0-16.85-7.54-16.85-16.84z"/></clipPath></defs><style>.a{fill:none;stroke:#868686;stroke-linecap:round;stroke-linejoin:round;stroke-width:1.5}</style><g clip-path="url(#cp1)"><path class="a" d="m21 15.4c-0.4 0.5-0.7 1.1-0.7 1.8 0.2 1.2 1.3 2 2.6 2h2.2v1.3c0 2.3-2 4.1-4.4 4.1h-11.8q0.6-0.4 0.9-1c0.5-0.6 0.7-1.4 0.7-2.2 0-2.4-2.1-4.4-4.7-4.4-1.1 0-2.1 0.4-2.9 1v-4.8c0-2.3 2-4.1 4.4-4.1h13.4c2.4 0 4.4 1.8 4.4 4.1v1.6h-2.4c-0.6 0-1.2 0.2-1.7 0.6z"/><path class="a" d="m2.9 14.2v-5c0-1.3 0.9-2.5 2.2-2.9l9.2-3.3c1.5-0.5 3 0.5 3 1.9v4.2"/><path class="a" d="m26.3 15.9v2.2c0 0.6-0.5 1.1-1.1 1.1h-2.3c-1.3 0-2.4-0.8-2.6-2 0-0.7 0.3-1.3 0.7-1.8 0.5-0.4 1.1-0.6 1.7-0.6h2.5c0.6 0 1.1 0.5 1.1 1.1z"/><path class="a" d="m8.2 13.7h8.1"/><path class="a" d="m10.5 21.4c0 0.8-0.2 1.6-0.7 2.2q-0.3 0.6-0.9 1c-0.8 0.7-1.9 1.1-3.1 1.1-1.7 0-3.2-0.8-4-2.1-0.4-0.6-0.6-1.4-0.6-2.2 0-1.4 0.6-2.6 1.7-3.4 0.8-0.6 1.8-1 2.9-1 2.6 0 4.7 2 4.7 4.4z"/><path class="a" d="m7.7 20.3l-2.5 2.1-1.2-1"/></g></svg>